<svg width="24" height="24" viewBox="0 0 24 24" fill="none" xmlns="http://www.w3.org/2000/svg">
<path d="M9.5 6.5C9.5 6.30109 9.57902 6.11032 9.71967 5.96967C9.86032 5.82902 10.0511 5.75 10.25 5.75H16.75C16.9489 5.75 17.1397 5.82902 17.2803 5.96967C17.421 6.11032 17.5 6.30109 17.5 6.5C17.5 6.69891 17.421 6.88968 17.2803 7.03033C17.1397 7.17098 16.9489 7.25 16.75 7.25H10.25C10.0511 7.25 9.86032 7.17098 9.71967 7.03033C9.57902 6.88968 9.5 6.69891 9.5 6.5ZM14.138 8.75H16.362C16.422 8.75 16.492 8.75 16.555 8.755C16.654 8.76276 16.7506 8.78887 16.84 8.832C16.9812 8.90393 17.0961 9.01875 17.168 9.16C17.2136 9.24845 17.2399 9.34561 17.245 9.445C17.25 9.508 17.25 9.579 17.25 9.638V11.362C17.25 11.422 17.25 11.492 17.245 11.555C17.2374 11.6543 17.2112 11.7513 17.168 11.841C17.0959 11.9819 16.9811 12.0963 16.84 12.168C16.7506 12.2111 16.654 12.2372 16.555 12.245C16.492 12.25 16.421 12.25 16.362 12.25H14.138C14.078 12.25 14.008 12.25 13.945 12.245C13.8457 12.2374 13.7487 12.2112 13.659 12.168C13.5183 12.0962 13.4038 11.9817 13.332 11.841C13.2888 11.7513 13.2626 11.6543 13.255 11.555C13.25 11.492 13.25 11.421 13.25 11.362V9.638C13.25 9.578 13.25 9.508 13.255 9.445C13.2628 9.34605 13.2889 9.2494 13.332 9.16C13.4037 9.01891 13.5181 8.9041 13.659 8.832C13.7487 8.78876 13.8457 8.76264 13.945 8.755C14.008 8.75 14.079 8.75 14.138 8.75ZM14.25 9.75V11.25H16.25V9.75H14.25ZM9.75 9.5C9.75 9.36739 9.80268 9.24021 9.89645 9.14645C9.99021 9.05268 10.1174 9 10.25 9H11.5C11.6326 9 11.7598 9.05268 11.8536 9.14645C11.9473 9.24021 12 9.36739 12 9.5C12 9.63261 11.9473 9.75979 11.8536 9.85355C11.7598 9.94732 11.6326 10 11.5 10H10.25C10.1174 10 9.99021 9.94732 9.89645 9.85355C9.80268 9.75979 9.75 9.63261 9.75 9.5ZM10.25 11.25C10.1174 11.25 9.99021 11.3027 9.89645 11.3964C9.80268 11.4902 9.75 11.6174 9.75 11.75C9.75 11.8826 9.80268 12.0098 9.89645 12.1036C9.99021 12.1973 10.1174 12.25 10.25 12.25H11.5C11.6326 12.25 11.7598 12.1973 11.8536 12.1036C11.9473 12.0098 12 11.8826 12 11.75C12 11.6174 11.9473 11.4902 11.8536 11.3964C11.7598 11.3027 11.6326 11.25 11.5 11.25H10.25ZM9.75 14.5C9.75 14.3674 9.80268 14.2402 9.89645 14.1464C9.99021 14.0527 10.1174 14 10.25 14H16.75C16.8826 14 17.0098 14.0527 17.1036 14.1464C17.1973 14.2402 17.25 14.3674 17.25 14.5C17.25 14.6326 17.1973 14.7598 17.1036 14.8536C17.0098 14.9473 16.8826 15 16.75 15H10.25C10.1174 15 9.99021 14.9473 9.89645 14.8536C9.80268 14.7598 9.75 14.6326 9.75 14.5Z" fill="#004098"/>
<path d="M16.321 3H10.68C10.138 3 9.7 3 9.347 3.029C8.982 3.059 8.662 3.122 8.366 3.272C7.89535 3.51173 7.51272 3.89435 7.273 4.365C7.123 4.661 7.06 4.981 7.03 5.345C7 5.7 7 6.138 7 6.68V17H4.5C4.36739 17 4.24021 17.0527 4.14645 17.1464C4.05268 17.2402 4 17.3674 4 17.5C4 19.122 4.548 20.036 5.2 20.525C5.514 20.761 5.829 20.879 6.066 20.938C6.206 20.973 6.349 20.998 6.493 21C8.15 21.012 13.68 21 16.616 21C17.305 21 18.001 21.05 18.635 20.727C19.448 20.313 19.899 19.542 19.971 18.654C20 18.3 20 17.864 20 17.322V6.679C20 6.137 20 5.699 19.971 5.346C19.941 4.981 19.878 4.661 19.727 4.365C19.4875 3.89451 19.1053 3.5119 18.635 3.272C18.339 3.122 18.019 3.059 17.655 3.029C17.3 3 16.863 3 16.321 3ZM16.799 19.725C16.451 19.464 15.999 18.878 15.999 17.5C15.999 17.3674 15.9463 17.2402 15.8526 17.1464C15.7588 17.0527 15.6316 17 15.499 17H8V6.7C8 6.132 8 5.736 8.026 5.427C8.05 5.125 8.096 4.951 8.163 4.819C8.30685 4.53651 8.53651 4.30685 8.819 4.163C8.951 4.096 9.125 4.05 9.427 4.026C9.736 4 10.132 4 10.7 4H16.3C16.868 4 17.265 4 17.573 4.026C17.875 4.05 18.049 4.096 18.181 4.163C18.4635 4.30685 18.6931 4.53651 18.837 4.819C18.904 4.951 18.95 5.125 18.974 5.427C19 5.736 19 6.132 19 6.7V17.3C19 17.868 19 18.265 18.974 18.573C18.93 19.119 18.688 19.578 18.181 19.837C17.731 20.066 17.2 20.026 16.799 19.725ZM15.68 20H6.506C6.24893 19.9803 6.00353 19.8846 5.801 19.725C5.498 19.498 5.117 19.025 5.023 18H15.019C15.089 18.896 15.342 19.542 15.682 20" fill="#004098"/>
</svg>
