<svg width="37" height="54" viewBox="0 0 37 54" fill="none" xmlns="http://www.w3.org/2000/svg">
<path d="M14.1175 32.0226V27.2947C14.1174 26.0921 15.0978 25.115 16.3125 25.1069H20.7618C21.9823 25.1069 22.9717 26.0864 22.9717 27.2947V27.2947V32.0372C22.9714 33.0582 23.7946 33.8927 24.8256 33.9166H27.7918C30.7488 33.9166 33.1459 31.5435 33.1459 28.6161V28.6161V15.1666C33.1301 14.015 32.5839 12.9336 31.6628 12.2301L21.5182 4.13982C19.741 2.73114 17.2146 2.73114 15.4374 4.13982L5.33737 12.2448C4.41273 12.9454 3.86564 14.0286 3.85425 15.1813V28.6161C3.85425 31.5435 6.25135 33.9166 9.20832 33.9166H12.1746C13.2312 33.9166 14.0878 33.0686 14.0878 32.0226V32.0226" stroke="white" stroke-width="1.5" stroke-linecap="round" stroke-linejoin="round"/>
<path d="M10.7015 51H9.80148V47.67H6.14148V51H5.24148V43.86H6.14148V46.88H9.80148V43.86H10.7015V51ZM17.1936 48.31C17.1936 48.7567 17.1336 49.1533 17.0136 49.5C16.9003 49.84 16.7336 50.13 16.5136 50.37C16.3003 50.61 16.0369 50.7933 15.7236 50.92C15.4169 51.04 15.0736 51.1 14.6936 51.1C14.3403 51.1 14.0136 51.04 13.7136 50.92C13.4136 50.7933 13.1536 50.61 12.9336 50.37C12.7136 50.13 12.5403 49.84 12.4136 49.5C12.2936 49.1533 12.2336 48.7567 12.2336 48.31C12.2336 47.7167 12.3336 47.2167 12.5336 46.81C12.7336 46.3967 13.0203 46.0833 13.3936 45.87C13.7669 45.65 14.2103 45.54 14.7236 45.54C15.2103 45.54 15.6369 45.65 16.0036 45.87C16.3769 46.0833 16.6669 46.3967 16.8736 46.81C17.0869 47.2167 17.1936 47.7167 17.1936 48.31ZM13.1436 48.31C13.1436 48.73 13.1969 49.0967 13.3036 49.41C13.4169 49.7167 13.5903 49.9533 13.8236 50.12C14.0569 50.2867 14.3536 50.37 14.7136 50.37C15.0736 50.37 15.3703 50.2867 15.6036 50.12C15.8369 49.9533 16.0069 49.7167 16.1136 49.41C16.2269 49.0967 16.2836 48.73 16.2836 48.31C16.2836 47.8833 16.2269 47.52 16.1136 47.22C16.0003 46.92 15.8269 46.69 15.5936 46.53C15.3669 46.3633 15.0703 46.28 14.7036 46.28C14.1569 46.28 13.7603 46.46 13.5136 46.82C13.2669 47.18 13.1436 47.6767 13.1436 48.31ZM24.4683 45.54C25.0749 45.54 25.5283 45.6967 25.8283 46.01C26.1283 46.3167 26.2783 46.8167 26.2783 47.51V51H25.4083V47.55C25.4083 47.13 25.3183 46.8133 25.1383 46.6C24.9649 46.3867 24.6916 46.28 24.3183 46.28C23.7983 46.28 23.4249 46.43 23.1983 46.73C22.9783 47.03 22.8683 47.4667 22.8683 48.04V51H21.9983V47.55C21.9983 47.27 21.9583 47.0367 21.8783 46.85C21.7983 46.6567 21.6783 46.5133 21.5183 46.42C21.3583 46.3267 21.1516 46.28 20.8983 46.28C20.5383 46.28 20.2549 46.3567 20.0483 46.51C19.8416 46.6567 19.6916 46.8733 19.5983 47.16C19.5116 47.4467 19.4683 47.8 19.4683 48.22V51H18.5883V45.64H19.2983L19.4283 46.37H19.4783C19.5916 46.1833 19.7283 46.03 19.8883 45.91C20.0549 45.7833 20.2383 45.69 20.4383 45.63C20.6383 45.57 20.8449 45.54 21.0583 45.54C21.4716 45.54 21.8149 45.6133 22.0883 45.76C22.3683 45.9067 22.5716 46.1333 22.6983 46.44H22.7483C22.9283 46.1333 23.1716 45.9067 23.4783 45.76C23.7916 45.6133 24.1216 45.54 24.4683 45.54ZM30.004 45.54C30.464 45.54 30.8573 45.64 31.184 45.84C31.5173 46.04 31.7707 46.3233 31.944 46.69C32.124 47.05 32.214 47.4733 32.214 47.96V48.49H28.544C28.5573 49.0967 28.7107 49.56 29.004 49.88C29.304 50.1933 29.7207 50.35 30.254 50.35C30.594 50.35 30.894 50.32 31.154 50.26C31.4207 50.1933 31.694 50.1 31.974 49.98V50.75C31.7007 50.87 31.4307 50.9567 31.164 51.01C30.8973 51.07 30.5807 51.1 30.214 51.1C29.7073 51.1 29.2573 50.9967 28.864 50.79C28.4773 50.5833 28.174 50.2767 27.954 49.87C27.7407 49.4567 27.634 48.9533 27.634 48.36C27.634 47.7733 27.7307 47.27 27.924 46.85C28.124 46.43 28.4007 46.1067 28.754 45.88C29.114 45.6533 29.5307 45.54 30.004 45.54ZM29.994 46.26C29.574 46.26 29.2407 46.3967 28.994 46.67C28.754 46.9367 28.6107 47.31 28.564 47.79H31.294C31.294 47.4833 31.2473 47.2167 31.154 46.99C31.0607 46.7633 30.9173 46.5867 30.724 46.46C30.5373 46.3267 30.294 46.26 29.994 46.26Z" fill="white"/>
</svg>
