<svg width="48" height="54" viewBox="0 0 48 54" fill="none" xmlns="http://www.w3.org/2000/svg">
<path fill-rule="evenodd" clip-rule="evenodd" d="M38.1427 29.3994C32.0304 34.1114 22.9795 35.1295 15.5728 32.4891C14.4794 32.1497 13.583 31.8755 12.7307 31.8755C10.357 31.8863 7.40233 33.6605 5.86672 32.4782C4.33111 31.2944 6.63453 29.0151 6.63453 27.1742C6.63453 26.5173 6.29283 25.8386 5.85265 24.9941C2.42566 19.2857 3.74822 12.3066 9.86052 7.59609C17.6632 1.57931 30.34 1.57931 38.1427 7.59454C45.9595 13.6206 45.9454 23.3841 38.1427 29.3994Z" stroke="white" stroke-width="1.5" stroke-linecap="round" stroke-linejoin="round"/>
<path d="M31.8787 19.1367H31.8967" stroke="white" stroke-width="2" stroke-linecap="round" stroke-linejoin="round"/>
<path d="M23.8609 19.1367H23.8789" stroke="white" stroke-width="2" stroke-linecap="round" stroke-linejoin="round"/>
<path d="M15.8428 19.1367H15.8608" stroke="white" stroke-width="2" stroke-linecap="round" stroke-linejoin="round"/>
<path d="M7.17629 51H6.27629V44.65H4.04629V43.86H9.39629V44.65H7.17629V51ZM11.2329 45.64V51H10.3529V45.64H11.2329ZM10.8029 43.63C10.9363 43.63 11.0529 43.6767 11.1529 43.77C11.2596 43.8567 11.3129 43.9967 11.3129 44.19C11.3129 44.3767 11.2596 44.5167 11.1529 44.61C11.0529 44.7033 10.9363 44.75 10.8029 44.75C10.6563 44.75 10.5329 44.7033 10.4329 44.61C10.3329 44.5167 10.2829 44.3767 10.2829 44.19C10.2829 43.9967 10.3329 43.8567 10.4329 43.77C10.5329 43.6767 10.6563 43.63 10.8029 43.63ZM18.8111 45.54C19.4177 45.54 19.8711 45.6967 20.1711 46.01C20.4711 46.3167 20.6211 46.8167 20.6211 47.51V51H19.7511V47.55C19.7511 47.13 19.6611 46.8133 19.4811 46.6C19.3077 46.3867 19.0344 46.28 18.6611 46.28C18.1411 46.28 17.7677 46.43 17.5411 46.73C17.3211 47.03 17.2111 47.4667 17.2111 48.04V51H16.3411V47.55C16.3411 47.27 16.3011 47.0367 16.2211 46.85C16.1411 46.6567 16.0211 46.5133 15.8611 46.42C15.7011 46.3267 15.4944 46.28 15.2411 46.28C14.8811 46.28 14.5977 46.3567 14.3911 46.51C14.1844 46.6567 14.0344 46.8733 13.9411 47.16C13.8544 47.4467 13.8111 47.8 13.8111 48.22V51H12.9311V45.64H13.6411L13.7711 46.37H13.8211C13.9344 46.1833 14.0711 46.03 14.2311 45.91C14.3977 45.7833 14.5811 45.69 14.7811 45.63C14.9811 45.57 15.1877 45.54 15.4011 45.54C15.8144 45.54 16.1577 45.6133 16.4311 45.76C16.7111 45.9067 16.9144 46.1333 17.0411 46.44H17.0911C17.2711 46.1333 17.5144 45.9067 17.8211 45.76C18.1344 45.6133 18.4644 45.54 18.8111 45.54ZM24.3468 45.54C24.8068 45.54 25.2001 45.64 25.5268 45.84C25.8601 46.04 26.1134 46.3233 26.2868 46.69C26.4668 47.05 26.5568 47.4733 26.5568 47.96V48.49H22.8868C22.9001 49.0967 23.0534 49.56 23.3468 49.88C23.6468 50.1933 24.0634 50.35 24.5968 50.35C24.9368 50.35 25.2368 50.32 25.4968 50.26C25.7634 50.1933 26.0368 50.1 26.3168 49.98V50.75C26.0434 50.87 25.7734 50.9567 25.5068 51.01C25.2401 51.07 24.9234 51.1 24.5568 51.1C24.0501 51.1 23.6001 50.9967 23.2068 50.79C22.8201 50.5833 22.5168 50.2767 22.2968 49.87C22.0834 49.4567 21.9768 48.9533 21.9768 48.36C21.9768 47.7733 22.0734 47.27 22.2668 46.85C22.4668 46.43 22.7434 46.1067 23.0968 45.88C23.4568 45.6533 23.8734 45.54 24.3468 45.54ZM24.3368 46.26C23.9168 46.26 23.5834 46.3967 23.3368 46.67C23.0968 46.9367 22.9534 47.31 22.9068 47.79H25.6368C25.6368 47.4833 25.5901 47.2167 25.4968 46.99C25.4034 46.7633 25.2601 46.5867 25.0668 46.46C24.8801 46.3267 24.6368 46.26 24.3368 46.26ZM28.8013 51H27.9213V43.4H28.8013V51ZM31.3794 45.64V51H30.4994V45.64H31.3794ZM30.9494 43.63C31.0827 43.63 31.1994 43.6767 31.2994 43.77C31.4061 43.8567 31.4594 43.9967 31.4594 44.19C31.4594 44.3767 31.4061 44.5167 31.2994 44.61C31.1994 44.7033 31.0827 44.75 30.9494 44.75C30.8027 44.75 30.6794 44.7033 30.5794 44.61C30.4794 44.5167 30.4294 44.3767 30.4294 44.19C30.4294 43.9967 30.4794 43.8567 30.5794 43.77C30.6794 43.6767 30.8027 43.63 30.9494 43.63ZM35.6575 45.54C36.2975 45.54 36.7809 45.6967 37.1075 46.01C37.4342 46.3167 37.5975 46.8167 37.5975 47.51V51H36.7275V47.57C36.7275 47.1367 36.6309 46.8133 36.4375 46.6C36.2442 46.3867 35.9409 46.28 35.5275 46.28C34.9342 46.28 34.5242 46.4467 34.2975 46.78C34.0709 47.1133 33.9575 47.5933 33.9575 48.22V51H33.0775V45.64H33.7875L33.9175 46.37H33.9675C34.0875 46.1833 34.2342 46.03 34.4075 45.91C34.5875 45.7833 34.7842 45.69 34.9975 45.63C35.2109 45.57 35.4309 45.54 35.6575 45.54ZM41.3292 45.54C41.7892 45.54 42.1825 45.64 42.5092 45.84C42.8425 46.04 43.0958 46.3233 43.2692 46.69C43.4492 47.05 43.5392 47.4733 43.5392 47.96V48.49H39.8692C39.8825 49.0967 40.0358 49.56 40.3292 49.88C40.6292 50.1933 41.0458 50.35 41.5792 50.35C41.9192 50.35 42.2192 50.32 42.4792 50.26C42.7458 50.1933 43.0192 50.1 43.2992 49.98V50.75C43.0258 50.87 42.7558 50.9567 42.4892 51.01C42.2225 51.07 41.9058 51.1 41.5392 51.1C41.0325 51.1 40.5825 50.9967 40.1892 50.79C39.8025 50.5833 39.4992 50.2767 39.2792 49.87C39.0658 49.4567 38.9592 48.9533 38.9592 48.36C38.9592 47.7733 39.0558 47.27 39.2492 46.85C39.4492 46.43 39.7258 46.1067 40.0792 45.88C40.4392 45.6533 40.8558 45.54 41.3292 45.54ZM41.3192 46.26C40.8992 46.26 40.5658 46.3967 40.3192 46.67C40.0792 46.9367 39.9358 47.31 39.8892 47.79H42.6192C42.6192 47.4833 42.5725 47.2167 42.4792 46.99C42.3858 46.7633 42.2425 46.5867 42.0492 46.46C41.8625 46.3267 41.6192 46.26 41.3192 46.26Z" fill="white"/>
</svg>
