<svg width="24" height="20" viewBox="0 0 24 20" fill="none" xmlns="http://www.w3.org/2000/svg">
<path d="M10.0898 9.96191L9.03516 8.81934L16.5 0.719727L23.9648 8.81934L22.9102 9.96191L22.5 9.53027V16.5H18V11.625H15V16.5H10.5V9.53027L10.0898 9.96191ZM12 14.875H13.5V10H19.5V14.875H21V7.90527L16.5 3.03027L12 7.90527V14.875ZM24 18.125V19.75H0V18.125H24ZM3 11.5488C2.5625 11.4557 2.16406 11.2865 1.80469 11.041C1.44531 10.7956 1.12891 10.4909 0.855469 10.127C0.582031 9.76302 0.371094 9.36947 0.222656 8.94629C0.0742188 8.52311 0 8.06185 0 7.5625C0 6.94466 0.0546875 6.38607 0.164062 5.88672C0.273438 5.38737 0.417969 4.90495 0.597656 4.43945C0.777344 3.97396 0.984375 3.50423 1.21875 3.03027C1.45312 2.55632 1.70312 2.04004 1.96875 1.48145C2.04688 1.31217 2.14844 1.15137 2.27344 0.999023C2.39844 0.84668 2.54297 0.715495 2.70703 0.605469C2.87109 0.495443 3.03906 0.410807 3.21094 0.351562C3.38281 0.292318 3.5625 0.258464 3.75 0.25C4.125 0.25 4.44141 0.343099 4.69922 0.529297C4.95703 0.715495 5.17969 0.956706 5.36719 1.25293C5.55469 1.54915 5.72266 1.8623 5.87109 2.19238C6.01953 2.52246 6.16016 2.83561 6.29297 3.13184L6.46875 3.5127C6.63281 3.86816 6.77734 4.19401 6.90234 4.49023C7.02734 4.78646 7.13672 5.08268 7.23047 5.37891C7.32422 5.67513 7.39062 6.00098 7.42969 6.35645C7.46875 6.71191 7.49219 7.11393 7.5 7.5625C7.5 8.04492 7.42578 8.50195 7.27734 8.93359C7.12891 9.36523 6.92188 9.76302 6.65625 10.127C6.39062 10.4909 6.07031 10.7913 5.69531 11.0283C5.32031 11.2653 4.92188 11.4388 4.5 11.5488V16.5H3V11.5488ZM3.75 1.875C3.67969 1.875 3.58984 1.95117 3.48047 2.10352C3.37109 2.25586 3.24609 2.45052 3.10547 2.6875C2.96484 2.92448 2.82812 3.18685 2.69531 3.47461C2.5625 3.76237 2.43359 4.03743 2.30859 4.2998C2.18359 4.56217 2.07812 4.79915 1.99219 5.01074C1.90625 5.22233 1.84375 5.37044 1.80469 5.45508C1.6875 5.77669 1.60938 6.1237 1.57031 6.49609C1.53125 6.86849 1.50781 7.22396 1.5 7.5625C1.5 7.90104 1.55859 8.21842 1.67578 8.51465C1.79297 8.81087 1.95312 9.06901 2.15625 9.28906C2.35938 9.50911 2.59766 9.68262 2.87109 9.80957C3.14453 9.93652 3.4375 10 3.75 10C4.0625 10 4.35547 9.93652 4.62891 9.80957C4.90234 9.68262 5.14062 9.50911 5.34375 9.28906C5.54688 9.06901 5.70703 8.81087 5.82422 8.51465C5.94141 8.21842 6 7.90104 6 7.5625C6 7.22396 5.98047 6.86849 5.94141 6.49609C5.90234 6.1237 5.82031 5.77669 5.69531 5.45508C5.66406 5.37044 5.60547 5.22233 5.51953 5.01074C5.43359 4.79915 5.32812 4.56217 5.20312 4.2998C5.07812 4.03743 4.94531 3.76237 4.80469 3.47461C4.66406 3.18685 4.52734 2.92448 4.39453 2.6875C4.26172 2.45052 4.14062 2.25586 4.03125 2.10352C3.92188 1.95117 3.82812 1.875 3.75 1.875Z" fill="#1B6AAC"/>
</svg>
