<svg width="44" height="55" viewBox="0 0 44 55" fill="none" xmlns="http://www.w3.org/2000/svg">
<path fill-rule="evenodd" clip-rule="evenodd" d="M21.972 24.9376C14.8814 24.9376 8.82617 25.8878 8.82617 29.6934C8.82617 33.499 14.843 34.4833 21.972 34.4833C29.0627 34.4833 35.1162 33.5315 35.1162 29.7274C35.1162 25.9234 29.1011 24.9376 21.972 24.9376Z" stroke="white" stroke-width="1.5" stroke-linecap="round" stroke-linejoin="round"/>
<path fill-rule="evenodd" clip-rule="evenodd" d="M21.9721 19.5096C26.6252 19.5096 30.3967 16.1652 30.3967 12.0407C30.3967 7.91634 26.6252 4.57349 21.9721 4.57349C17.3189 4.57349 13.5457 7.91634 13.5457 12.0407C13.53 16.1512 17.277 19.4956 21.9127 19.5096H21.9721Z" stroke="white" stroke-width="1.42857" stroke-linecap="round" stroke-linejoin="round"/>
<path d="M6.0077 52L3.6577 45.74H3.6177C3.63103 45.8733 3.64103 46.0433 3.6477 46.25C3.66103 46.4567 3.67103 46.6833 3.6777 46.93C3.68436 47.17 3.6877 47.4167 3.6877 47.67V52H2.8577V44.86H4.1877L6.3877 50.71H6.4277L8.6677 44.86H9.9877V52H9.0977V47.61C9.0977 47.3767 9.10103 47.1467 9.1077 46.92C9.11436 46.6867 9.12436 46.47 9.1377 46.27C9.15103 46.0633 9.16103 45.89 9.1677 45.75H9.1277L6.7477 52H6.0077ZM10.97 46.64H11.91L13.07 49.69C13.1366 49.87 13.1966 50.0433 13.25 50.21C13.31 50.3767 13.3633 50.54 13.41 50.7C13.4566 50.8533 13.4933 51.0033 13.52 51.15H13.56C13.6 50.9833 13.6633 50.7667 13.75 50.5C13.8366 50.2267 13.9266 49.9533 14.02 49.68L15.11 46.64H16.06L13.75 52.74C13.6233 53.0733 13.4733 53.3633 13.3 53.61C13.1333 53.8633 12.9266 54.0567 12.68 54.19C12.44 54.33 12.1466 54.4 11.8 54.4C11.64 54.4 11.5 54.39 11.38 54.37C11.26 54.3567 11.1566 54.34 11.07 54.32V53.62C11.1433 53.6333 11.23 53.6467 11.33 53.66C11.4366 53.6733 11.5466 53.68 11.66 53.68C11.8666 53.68 12.0433 53.64 12.19 53.56C12.3433 53.4867 12.4733 53.3767 12.58 53.23C12.6866 53.09 12.7766 52.9233 12.85 52.73L13.13 52.02L10.97 46.64ZM21.5153 44.86C22.4486 44.86 23.1286 45.0433 23.5553 45.41C23.9819 45.7767 24.1953 46.2933 24.1953 46.96C24.1953 47.2533 24.1453 47.5367 24.0453 47.81C23.9519 48.0767 23.7953 48.3167 23.5753 48.53C23.3553 48.7433 23.0619 48.9133 22.6953 49.04C22.3286 49.16 21.8786 49.22 21.3453 49.22H20.5253V52H19.6253V44.86H21.5153ZM21.4353 45.63H20.5253V48.45H21.2453C21.6986 48.45 22.0753 48.4033 22.3753 48.31C22.6753 48.21 22.8986 48.0533 23.0453 47.84C23.1919 47.6267 23.2653 47.3467 23.2653 47C23.2653 46.54 23.1186 46.1967 22.8253 45.97C22.5319 45.7433 22.0686 45.63 21.4353 45.63ZM27.59 46.55C28.2433 46.55 28.7266 46.6933 29.04 46.98C29.3533 47.2667 29.51 47.7233 29.51 48.35V52H28.87L28.7 51.24H28.66C28.5066 51.4333 28.3466 51.5967 28.18 51.73C28.02 51.8567 27.8333 51.95 27.62 52.01C27.4133 52.07 27.16 52.1 26.86 52.1C26.54 52.1 26.25 52.0433 25.99 51.93C25.7366 51.8167 25.5366 51.6433 25.39 51.41C25.2433 51.17 25.17 50.87 25.17 50.51C25.17 49.9767 25.38 49.5667 25.8 49.28C26.22 48.9867 26.8666 48.8267 27.74 48.8L28.65 48.77V48.45C28.65 48.0033 28.5533 47.6933 28.36 47.52C28.1666 47.3467 27.8933 47.26 27.54 47.26C27.26 47.26 26.9933 47.3033 26.74 47.39C26.4866 47.47 26.25 47.5633 26.03 47.67L25.76 47.01C25.9933 46.8833 26.27 46.7767 26.59 46.69C26.91 46.5967 27.2433 46.55 27.59 46.55ZM27.85 49.41C27.1833 49.4367 26.72 49.5433 26.46 49.73C26.2066 49.9167 26.08 50.18 26.08 50.52C26.08 50.82 26.17 51.04 26.35 51.18C26.5366 51.32 26.7733 51.39 27.06 51.39C27.5133 51.39 27.89 51.2667 28.19 51.02C28.49 50.7667 28.64 50.38 28.64 49.86V49.38L27.85 49.41ZM33.0654 46.54C33.4188 46.54 33.7354 46.6067 34.0154 46.74C34.3021 46.8733 34.5454 47.0767 34.7454 47.35H34.7954L34.9154 46.64H35.6154V52.09C35.6154 52.5967 35.5288 53.02 35.3554 53.36C35.1821 53.7067 34.9188 53.9667 34.5654 54.14C34.2121 54.3133 33.7621 54.4 33.2154 54.4C32.8288 54.4 32.4721 54.37 32.1454 54.31C31.8254 54.2567 31.5388 54.1733 31.2854 54.06V53.25C31.4588 53.3367 31.6488 53.41 31.8554 53.47C32.0621 53.5367 32.2854 53.5867 32.5254 53.62C32.7654 53.6533 33.0121 53.67 33.2654 53.67C33.7254 53.67 34.0854 53.5333 34.3454 53.26C34.6121 52.9933 34.7454 52.6267 34.7454 52.16V51.95C34.7454 51.87 34.7488 51.7567 34.7554 51.61C34.7621 51.4567 34.7688 51.35 34.7754 51.29H34.7354C34.5488 51.5633 34.3154 51.7667 34.0354 51.9C33.7621 52.0333 33.4421 52.1 33.0754 52.1C32.3821 52.1 31.8388 51.8567 31.4454 51.37C31.0588 50.8833 30.8654 50.2033 30.8654 49.33C30.8654 48.7567 30.9521 48.2633 31.1254 47.85C31.3054 47.43 31.5588 47.1067 31.8854 46.88C32.2121 46.6533 32.6054 46.54 33.0654 46.54ZM33.1854 47.28C32.8854 47.28 32.6288 47.36 32.4154 47.52C32.2088 47.68 32.0488 47.9133 31.9354 48.22C31.8288 48.5267 31.7754 48.9 31.7754 49.34C31.7754 50 31.8954 50.5067 32.1354 50.86C32.3821 51.2067 32.7388 51.38 33.2054 51.38C33.4788 51.38 33.7121 51.3467 33.9054 51.28C34.0988 51.2067 34.2588 51.0967 34.3854 50.95C34.5121 50.7967 34.6054 50.6033 34.6654 50.37C34.7254 50.1367 34.7554 49.86 34.7554 49.54V49.33C34.7554 48.8433 34.6988 48.45 34.5854 48.15C34.4788 47.85 34.3088 47.63 34.0754 47.49C33.8421 47.35 33.5454 47.28 33.1854 47.28ZM39.3878 46.54C39.8478 46.54 40.2411 46.64 40.5678 46.84C40.9011 47.04 41.1544 47.3233 41.3278 47.69C41.5078 48.05 41.5978 48.4733 41.5978 48.96V49.49H37.9278C37.9411 50.0967 38.0944 50.56 38.3878 50.88C38.6878 51.1933 39.1044 51.35 39.6378 51.35C39.9778 51.35 40.2778 51.32 40.5378 51.26C40.8044 51.1933 41.0778 51.1 41.3578 50.98V51.75C41.0844 51.87 40.8144 51.9567 40.5478 52.01C40.2811 52.07 39.9644 52.1 39.5978 52.1C39.0911 52.1 38.6411 51.9967 38.2478 51.79C37.8611 51.5833 37.5578 51.2767 37.3378 50.87C37.1244 50.4567 37.0178 49.9533 37.0178 49.36C37.0178 48.7733 37.1144 48.27 37.3078 47.85C37.5078 47.43 37.7844 47.1067 38.1378 46.88C38.4978 46.6533 38.9144 46.54 39.3878 46.54ZM39.3778 47.26C38.9578 47.26 38.6244 47.3967 38.3778 47.67C38.1378 47.9367 37.9944 48.31 37.9478 48.79H40.6778C40.6778 48.4833 40.6311 48.2167 40.5378 47.99C40.4444 47.7633 40.3011 47.5867 40.1078 47.46C39.9211 47.3267 39.6778 47.26 39.3778 47.26Z" fill="white"/>
</svg>
