<svg width="44" height="54" viewBox="0 0 44 54" fill="none" xmlns="http://www.w3.org/2000/svg">
<path fill-rule="evenodd" clip-rule="evenodd" d="M27.0191 4.2578H14.822C11.0086 4.24546 7.88279 6.80155 7.79296 10.0067V26.5225C7.70862 29.7801 10.7795 32.4795 14.6533 32.552C14.7101 32.552 14.7651 32.5535 14.822 32.552H29.4685C33.3075 32.421 36.3325 29.7539 36.305 26.5225V12.3916L27.0191 4.2578Z" stroke="white" stroke-width="1.5" stroke-linecap="round" stroke-linejoin="round"/>
<path d="M26.5376 4.23956V8.72427C26.5376 10.9134 28.6423 12.6879 31.2456 12.6941H36.2964" stroke="white" stroke-width="1.5" stroke-linecap="round" stroke-linejoin="round"/>
<path d="M26.1947 23.6777H16.2947" stroke="white" stroke-width="1.5" stroke-linecap="round" stroke-linejoin="round"/>
<path d="M22.4456 17.8926H16.293" stroke="white" stroke-width="1.5" stroke-linecap="round" stroke-linejoin="round"/>
<path d="M11.3071 49.09C11.3071 49.5167 11.2038 49.88 10.9971 50.18C10.7904 50.4733 10.4938 50.7 10.1071 50.86C9.72711 51.02 9.27711 51.1 8.75711 51.1C8.49044 51.1 8.23378 51.0867 7.98711 51.06C7.74711 51.0333 7.52711 50.9967 7.32711 50.95C7.12711 50.8967 6.95044 50.8333 6.79711 50.76V49.9C7.03711 50.0067 7.33378 50.1033 7.68711 50.19C8.04711 50.2767 8.41711 50.32 8.79711 50.32C9.15044 50.32 9.44711 50.2733 9.68711 50.18C9.92711 50.0867 10.1071 49.9533 10.2271 49.78C10.3471 49.6067 10.4071 49.4033 10.4071 49.17C10.4071 48.9367 10.3571 48.74 10.2571 48.58C10.1571 48.42 9.98378 48.2733 9.73711 48.14C9.49711 48 9.16044 47.8533 8.72711 47.7C8.42044 47.5867 8.15044 47.4667 7.91711 47.34C7.69044 47.2067 7.50044 47.0567 7.34711 46.89C7.19378 46.7233 7.07711 46.5333 6.99711 46.32C6.92378 46.1067 6.88711 45.86 6.88711 45.58C6.88711 45.2 6.98378 44.8767 7.17711 44.61C7.37044 44.3367 7.63711 44.1267 7.97711 43.98C8.32378 43.8333 8.72044 43.76 9.16711 43.76C9.56044 43.76 9.92044 43.7967 10.2471 43.87C10.5738 43.9433 10.8704 44.04 11.1371 44.16L10.8571 44.93C10.6104 44.8233 10.3404 44.7333 10.0471 44.66C9.76044 44.5867 9.46044 44.55 9.14711 44.55C8.84711 44.55 8.59711 44.5933 8.39711 44.68C8.19711 44.7667 8.04711 44.89 7.94711 45.05C7.84711 45.2033 7.79711 45.3833 7.79711 45.59C7.79711 45.83 7.84711 46.03 7.94711 46.19C8.04711 46.35 8.21044 46.4933 8.43711 46.62C8.66378 46.7467 8.97044 46.8833 9.35711 47.03C9.77711 47.1833 10.1304 47.35 10.4171 47.53C10.7104 47.7033 10.9304 47.9133 11.0771 48.16C11.2304 48.4067 11.3071 48.7167 11.3071 49.09ZM17.1054 45.64V51H16.3854L16.2554 50.29H16.2154C16.1021 50.4767 15.9554 50.63 15.7754 50.75C15.5954 50.87 15.3987 50.9567 15.1854 51.01C14.9721 51.07 14.7487 51.1 14.5154 51.1C14.0887 51.1 13.7287 51.0333 13.4354 50.9C13.1487 50.76 12.9321 50.5467 12.7854 50.26C12.6387 49.9733 12.5654 49.6033 12.5654 49.15V45.64H13.4554V49.09C13.4554 49.5167 13.5521 49.8367 13.7454 50.05C13.9387 50.2633 14.2387 50.37 14.6454 50.37C15.0454 50.37 15.3587 50.2967 15.5854 50.15C15.8187 49.9967 15.9821 49.7767 16.0754 49.49C16.1754 49.1967 16.2254 48.8433 16.2254 48.43V45.64H17.1054ZM21.307 45.54C21.407 45.54 21.5137 45.5467 21.627 45.56C21.747 45.5667 21.8504 45.58 21.937 45.6L21.827 46.41C21.7404 46.39 21.6437 46.3733 21.537 46.36C21.437 46.3467 21.3404 46.34 21.247 46.34C21.0404 46.34 20.8437 46.3833 20.657 46.47C20.4704 46.5567 20.3037 46.68 20.157 46.84C20.0104 46.9933 19.8937 47.18 19.807 47.4C19.727 47.62 19.687 47.8667 19.687 48.14V51H18.807V45.64H19.527L19.627 46.62H19.667C19.7804 46.42 19.917 46.24 20.077 46.08C20.237 45.9133 20.4204 45.7833 20.627 45.69C20.8337 45.59 21.0604 45.54 21.307 45.54ZM24.1179 51L22.0879 45.64H23.0279L24.1679 48.8C24.2212 48.9467 24.2779 49.11 24.3379 49.29C24.3979 49.47 24.4512 49.6433 24.4979 49.81C24.5446 49.97 24.5779 50.1067 24.5979 50.22H24.6379C24.6646 50.1067 24.7012 49.9667 24.7479 49.8C24.8012 49.6333 24.8579 49.46 24.9179 49.28C24.9846 49.1 25.0412 48.94 25.0879 48.8L26.2279 45.64H27.1679L25.1279 51H24.1179ZM30.086 45.54C30.546 45.54 30.9393 45.64 31.266 45.84C31.5993 46.04 31.8527 46.3233 32.026 46.69C32.206 47.05 32.296 47.4733 32.296 47.96V48.49H28.626C28.6393 49.0967 28.7927 49.56 29.086 49.88C29.386 50.1933 29.8027 50.35 30.336 50.35C30.676 50.35 30.976 50.32 31.236 50.26C31.5027 50.1933 31.776 50.1 32.056 49.98V50.75C31.7827 50.87 31.5127 50.9567 31.246 51.01C30.9793 51.07 30.6627 51.1 30.296 51.1C29.7893 51.1 29.3393 50.9967 28.946 50.79C28.5593 50.5833 28.256 50.2767 28.036 49.87C27.8227 49.4567 27.716 48.9533 27.716 48.36C27.716 47.7733 27.8127 47.27 28.006 46.85C28.206 46.43 28.4827 46.1067 28.836 45.88C29.196 45.6533 29.6127 45.54 30.086 45.54ZM30.076 46.26C29.656 46.26 29.3227 46.3967 29.076 46.67C28.836 46.9367 28.6927 47.31 28.646 47.79H31.376C31.376 47.4833 31.3293 47.2167 31.236 46.99C31.1427 46.7633 30.9993 46.5867 30.806 46.46C30.6193 46.3267 30.376 46.26 30.076 46.26ZM32.6252 45.64H33.5652L34.7252 48.69C34.7919 48.87 34.8519 49.0433 34.9052 49.21C34.9652 49.3767 35.0186 49.54 35.0652 49.7C35.1119 49.8533 35.1486 50.0033 35.1752 50.15H35.2152C35.2552 49.9833 35.3186 49.7667 35.4052 49.5C35.4919 49.2267 35.5819 48.9533 35.6752 48.68L36.7652 45.64H37.7152L35.4052 51.74C35.2786 52.0733 35.1286 52.3633 34.9552 52.61C34.7886 52.8633 34.5819 53.0567 34.3352 53.19C34.0952 53.33 33.8019 53.4 33.4552 53.4C33.2952 53.4 33.1552 53.39 33.0352 53.37C32.9152 53.3567 32.8119 53.34 32.7252 53.32V52.62C32.7986 52.6333 32.8852 52.6467 32.9852 52.66C33.0919 52.6733 33.2019 52.68 33.3152 52.68C33.5219 52.68 33.6986 52.64 33.8452 52.56C33.9986 52.4867 34.1286 52.3767 34.2352 52.23C34.3419 52.09 34.4319 51.9233 34.5052 51.73L34.7852 51.02L32.6252 45.64Z" fill="white"/>
</svg>
