<svg width="37" height="37" viewBox="0 0 37 37" fill="none" xmlns="http://www.w3.org/2000/svg">
<path fill-rule="evenodd" clip-rule="evenodd" d="M29.4016 29.3994C24.69 34.1115 17.7133 35.1295 12.004 32.4891C11.1611 32.1498 10.4701 31.8755 9.8132 31.8755C7.98342 31.8864 5.70588 33.6606 4.52218 32.4783C3.33848 31.2944 5.11403 29.0151 5.11403 27.1743C5.11403 26.5173 4.85064 25.8386 4.51134 24.9941C1.8697 19.2857 2.88917 12.3067 7.60073 7.59612C13.6153 1.57934 23.387 1.57934 29.4016 7.59457C35.427 13.6206 35.4162 23.3842 29.4016 29.3994Z" stroke="white" stroke-width="1.5" stroke-linecap="round" stroke-linejoin="round"/>
<path d="M24.5732 19.1367H24.5871" stroke="white" stroke-width="2" stroke-linecap="round" stroke-linejoin="round"/>
<path d="M18.3926 19.1367H18.4064" stroke="white" stroke-width="2" stroke-linecap="round" stroke-linejoin="round"/>
<path d="M12.2121 19.1367H12.226" stroke="white" stroke-width="2" stroke-linecap="round" stroke-linejoin="round"/>
</svg>
