<svg width="23" height="23" viewBox="0 0 23 23" fill="none" xmlns="http://www.w3.org/2000/svg">
<path d="M18.0032 16.1796C18.7316 15.3583 19.1667 14.3137 19.1667 13.1772C19.1667 10.5312 16.8072 8.3855 13.8958 8.3855C10.9844 8.3855 8.625 10.5312 8.625 13.1772C8.625 15.8231 10.9844 17.9688 13.8958 17.9688C14.6174 17.9694 15.3326 17.8342 16.0042 17.5702L18.6875 18.6876L18.0032 16.1796Z" fill="#D7E0FF"/>
<path fill-rule="evenodd" clip-rule="evenodd" d="M9.10415 3.59375C5.8621 3.59375 3.11456 5.99821 3.11456 9.10417C3.11728 10.253 3.50081 11.3686 4.20515 12.2762L3.61865 14.4258C3.46531 14.9912 4.04798 15.5039 4.58848 15.2787L7.27181 14.1603C7.44782 14.087 7.58749 13.9468 7.6601 13.7705C7.73271 13.5941 7.73231 13.3962 7.65898 13.2202C7.58565 13.0442 7.44541 12.9045 7.2691 12.8319C7.09279 12.7593 6.89486 12.7597 6.71885 12.833L5.39252 13.386L5.6896 12.2964C5.72109 12.1812 5.72338 12.06 5.69627 11.9437C5.66917 11.8274 5.61352 11.7197 5.53435 11.6303C4.91335 10.9298 4.55206 10.0529 4.55206 9.10417C4.55206 6.91725 6.52431 5.03125 9.10415 5.03125C11.0975 5.03125 12.7372 6.16496 13.3726 7.68775C10.3634 7.93021 7.90623 10.2398 7.90623 13.1771C7.90623 16.283 10.6538 18.6875 13.8958 18.6875C14.6299 18.6875 15.3362 18.5658 15.9888 18.3425L18.4115 19.3507C18.952 19.5768 19.5346 19.0632 19.3813 18.4977L18.7948 16.3492C19.4991 15.4415 19.8827 14.326 19.8854 13.1771C19.8854 10.4008 17.6908 8.18608 14.9107 7.74621C14.2456 5.32163 11.8594 3.59375 9.10415 3.59375ZM9.34373 13.1771C9.34373 10.9911 11.316 9.10417 13.8958 9.10417C16.4756 9.10417 18.4479 10.9911 18.4479 13.1771C18.4479 14.1249 18.0866 15.0027 17.4656 15.7032C17.3864 15.7926 17.3308 15.9003 17.3037 16.0166C17.2766 16.1329 17.2789 16.2541 17.3104 16.3693L17.6074 17.4589L16.2811 16.906C16.108 16.8341 15.9137 16.8328 15.7396 16.9021C15.1526 17.1338 14.5269 17.2518 13.8958 17.25C11.316 17.25 9.34373 15.364 9.34373 13.1771Z" fill="#004098"/>
</svg>
