<svg width="23" height="23" viewBox="0 0 23 23" fill="none" xmlns="http://www.w3.org/2000/svg">
<path d="M11.5 5.75008C12.5586 5.75008 13.4167 4.89196 13.4167 3.83341C13.4167 2.77487 12.5586 1.91675 11.5 1.91675C10.4415 1.91675 9.58334 2.77487 9.58334 3.83341C9.58334 4.89196 10.4415 5.75008 11.5 5.75008Z" fill="#004098"/>
<path d="M15.2279 7.77216C14.8542 7.39841 14.2121 6.70842 12.9663 6.70842H10.5321C7.89668 6.69883 5.75001 4.55216 5.75001 1.91675H3.83334C3.83334 4.94508 5.85543 7.51341 8.62501 8.34717V21.0834H10.5417V15.3334H12.4583V21.0834H14.375V9.63133L18.1604 13.4167L19.5117 12.0655L15.2279 7.77216Z" fill="#004098"/>
</svg>
