<svg width="24" height="24" viewBox="0 0 24 24" fill="none" xmlns="http://www.w3.org/2000/svg">
<path d="M4 9C4 6.172 4 4.757 4.879 3.879C5.757 3 7.172 3 10 3H14C16.828 3 18.243 3 19.121 3.879C20 4.757 20 6.172 20 9V15.828C20 18.511 20 19.852 19.156 20.263C18.311 20.673 17.256 19.844 15.146 18.187L14.471 17.656C13.285 16.724 12.691 16.258 12 16.258C11.309 16.258 10.715 16.724 9.529 17.656L8.853 18.186C6.743 19.844 5.689 20.673 4.844 20.263C4 19.853 4 18.51 4 15.828V9Z" fill="white" stroke="#1B6AAC"/>
</svg>
