<svg width="26" height="26" viewBox="0 0 26 26" fill="none" xmlns="http://www.w3.org/2000/svg">
<path fill-rule="evenodd" clip-rule="evenodd" d="M7.3035 6.00341C5.4406 6.45581 3.9001 7.89101 3.9001 10.3948C3.9001 13.728 6.7198 16.9897 13.0001 20.0772C19.2804 16.9897 22.1001 13.728 22.1001 10.3948C22.1001 7.89231 20.5596 6.45581 18.6967 6.00341C16.7844 5.53801 14.6381 6.13731 13.524 7.65441C13.4636 7.73663 13.3847 7.80349 13.2937 7.84957C13.2027 7.89565 13.1021 7.91967 13.0001 7.91967C12.8981 7.91967 12.7975 7.89565 12.7065 7.84957C12.6155 7.80349 12.5366 7.73663 12.4762 7.65441C11.3621 6.13731 9.2158 5.53801 7.3035 6.00341ZM13.0001 6.27641C11.4531 4.72551 9.0585 4.23801 6.9967 4.73851C4.6346 5.31441 2.6001 7.20981 2.6001 10.3948C2.6001 14.6068 6.1959 18.2364 12.718 21.385C12.806 21.4274 12.9024 21.4494 13.0001 21.4494C13.0978 21.4494 13.1942 21.4274 13.2822 21.385C19.8043 18.2364 23.4001 14.6081 23.4001 10.3948C23.4001 7.20981 21.3656 5.31441 19.0035 4.73981C16.9417 4.23931 14.5484 4.72811 13.0001 6.27641Z" fill="#1B6AAC"/>
</svg>
