<svg width="16" height="16" viewBox="0 0 16 16" fill="none" xmlns="http://www.w3.org/2000/svg">
<path d="M13.9657 2.50439C13.9585 2.38206 13.9067 2.26662 13.8201 2.17998C13.7334 2.09334 13.618 2.04153 13.4957 2.03439C8.73753 1.75501 4.92628 3.18751 3.30128 5.87501C2.73805 6.79435 2.46048 7.86023 2.50378 8.93751C2.53941 9.93251 2.82941 10.9375 3.36566 11.9281L2.14628 13.1469C2.05246 13.2407 1.99976 13.368 1.99976 13.5006C1.99976 13.6333 2.05246 13.7606 2.14628 13.8544C2.2401 13.9482 2.36735 14.0009 2.50003 14.0009C2.63272 14.0009 2.75996 13.9482 2.85378 13.8544L4.07253 12.635C5.06253 13.1706 6.06816 13.4606 7.06253 13.4963C7.13212 13.4988 7.20149 13.5 7.27066 13.5C8.278 13.5027 9.26625 13.2253 10.125 12.6988C12.8125 11.0738 14.2457 7.26314 13.9657 2.50439ZM9.60941 11.8438C8.18753 12.705 6.50441 12.7188 4.81503 11.8919L10.3544 6.35314C10.4009 6.30668 10.4377 6.25153 10.4629 6.19083C10.488 6.13014 10.5009 6.06508 10.5009 5.99939C10.5009 5.93369 10.488 5.86863 10.4629 5.80794C10.4377 5.74724 10.4009 5.69209 10.3544 5.64564C10.308 5.59918 10.2528 5.56233 10.1921 5.53719C10.1314 5.51205 10.0664 5.49911 10.0007 5.49911C9.93496 5.49911 9.86991 5.51205 9.80921 5.53719C9.74851 5.56233 9.69336 5.59918 9.64691 5.64564L4.10816 11.1875C3.28378 9.50001 3.29566 7.81251 4.15628 6.39314C5.53691 4.11376 8.81878 2.86564 12.9882 3.01439C13.1375 7.18064 11.8888 10.4631 9.60941 11.8438Z" fill="#1B6AAC"/>
</svg>
