<svg width="108" height="23" viewBox="0 0 108 23" fill="none" xmlns="http://www.w3.org/2000/svg">
<rect x="0.5" y="0.5" width="107" height="22" rx="9.5" fill="white" stroke="#C4C4C4"/>
<path d="M39.911 8.685C39.8743 8.76567 39.8413 8.85 39.812 8.938C39.79 9.026 39.768 9.125 39.746 9.235C39.6873 9.52833 39.6103 9.851 39.515 10.203C39.4197 10.5477 39.3023 10.907 39.163 11.281C39.031 11.6477 38.8733 12.007 38.69 12.359C38.514 12.7037 38.3197 13.0153 38.107 13.294C37.7697 13.7193 37.3957 14.119 36.985 14.493C36.5743 14.8597 36.105 15.1897 35.577 15.483C35.049 15.7763 34.4477 16.0293 33.773 16.242L33.025 15.417C33.7437 15.2337 34.3633 15.0137 34.884 14.757C35.412 14.493 35.874 14.1923 36.27 13.855C36.666 13.5177 37.0143 13.1547 37.315 12.766C37.579 12.436 37.8063 12.0583 37.997 11.633C38.195 11.2077 38.3563 10.7823 38.481 10.357C38.613 9.92433 38.7047 9.532 38.756 9.18C38.6533 9.18 38.459 9.18 38.173 9.18C37.887 9.18 37.5497 9.18 37.161 9.18C36.7723 9.18 36.3653 9.18 35.94 9.18C35.522 9.18 35.1187 9.18 34.73 9.18C34.3413 9.18 34.004 9.18 33.718 9.18C33.432 9.18 33.2377 9.18 33.135 9.18C32.915 9.18 32.7133 9.18367 32.53 9.191C32.3467 9.19833 32.1817 9.20567 32.035 9.213V8.245C32.1377 8.25233 32.2513 8.26333 32.376 8.278C32.5007 8.29267 32.629 8.30367 32.761 8.311C32.893 8.311 33.0177 8.311 33.135 8.311C33.223 8.311 33.3807 8.311 33.608 8.311C33.8353 8.311 34.103 8.311 34.411 8.311C34.7263 8.311 35.06 8.311 35.412 8.311C35.7713 8.311 36.1233 8.311 36.468 8.311C36.82 8.311 37.1463 8.311 37.447 8.311C37.755 8.311 38.0153 8.311 38.228 8.311C38.4407 8.311 38.5837 8.311 38.657 8.311C38.7377 8.311 38.8293 8.311 38.932 8.311C39.0347 8.30367 39.1373 8.28533 39.24 8.256L39.911 8.685ZM48.381 9.268C48.3663 9.38533 48.3553 9.51 48.348 9.642C48.3407 9.76667 48.337 9.89133 48.337 10.016C48.3443 10.1773 48.348 10.3973 48.348 10.676C48.3553 10.9547 48.3627 11.2737 48.37 11.633C48.3773 11.985 48.3847 12.3553 48.392 12.744C48.3993 13.1327 48.403 13.5213 48.403 13.91C48.4103 14.2913 48.4177 14.658 48.425 15.01C48.4323 15.3547 48.436 15.659 48.436 15.923C48.4433 16.1577 48.3663 16.341 48.205 16.473C48.051 16.6123 47.853 16.682 47.611 16.682C47.4717 16.682 47.303 16.6783 47.105 16.671C46.907 16.6637 46.7127 16.6527 46.522 16.638C46.3313 16.6307 46.1627 16.6233 46.016 16.616L45.972 15.813C46.192 15.8423 46.4303 15.868 46.687 15.89C46.9437 15.9047 47.1527 15.912 47.314 15.912C47.4167 15.912 47.49 15.8827 47.534 15.824C47.5853 15.7653 47.611 15.6883 47.611 15.593C47.611 15.373 47.6073 15.109 47.6 14.801C47.6 14.4857 47.5963 14.1483 47.589 13.789C47.589 13.4223 47.5853 13.052 47.578 12.678C47.5707 12.304 47.5633 11.9447 47.556 11.6C47.556 11.2553 47.5523 10.9473 47.545 10.676C47.5377 10.3973 47.5303 10.1773 47.523 10.016C47.523 9.91333 47.5157 9.796 47.501 9.664C47.4863 9.52467 47.468 9.39267 47.446 9.268H48.381ZM43.431 10.863C43.5557 10.8777 43.6877 10.8887 43.827 10.896C43.9737 10.9033 44.113 10.907 44.245 10.907C44.311 10.907 44.454 10.907 44.674 10.907C44.9013 10.907 45.1763 10.907 45.499 10.907C45.8217 10.907 46.1663 10.907 46.533 10.907C46.907 10.907 47.281 10.907 47.655 10.907C48.029 10.907 48.3737 10.907 48.689 10.907C49.0117 10.907 49.283 10.907 49.503 10.907C49.7303 10.907 49.877 10.907 49.943 10.907C50.053 10.907 50.1813 10.9033 50.328 10.896C50.482 10.8813 50.5993 10.8703 50.68 10.863V11.732C50.5847 11.7247 50.4673 11.7173 50.328 11.71C50.196 11.7027 50.075 11.699 49.965 11.699C49.9063 11.699 49.767 11.699 49.547 11.699C49.327 11.699 49.052 11.699 48.722 11.699C48.3993 11.699 48.051 11.699 47.677 11.699C47.303 11.699 46.9253 11.699 46.544 11.699C46.17 11.699 45.818 11.699 45.488 11.699C45.1653 11.699 44.894 11.699 44.674 11.699C44.454 11.699 44.3183 11.699 44.267 11.699C44.1203 11.699 43.9773 11.7027 43.838 11.71C43.6987 11.7173 43.563 11.7283 43.431 11.743V10.863ZM43.134 15.065C43.574 14.8523 44.0103 14.5993 44.443 14.306C44.883 14.0127 45.2937 13.701 45.675 13.371C46.0563 13.041 46.39 12.711 46.676 12.381C46.9693 12.051 47.1967 11.743 47.358 11.457H47.798L47.82 12.128C47.6733 12.392 47.457 12.689 47.171 13.019C46.8923 13.3417 46.566 13.6717 46.192 14.009C45.818 14.339 45.422 14.658 45.004 14.966C44.586 15.2667 44.168 15.527 43.75 15.747L43.134 15.065ZM53.606 8.465C53.826 8.47233 54.013 8.47967 54.167 8.487C54.321 8.487 54.4603 8.487 54.585 8.487C54.673 8.487 54.8343 8.487 55.069 8.487C55.3037 8.487 55.586 8.487 55.916 8.487C56.2533 8.487 56.6127 8.487 56.994 8.487C57.3753 8.487 57.753 8.487 58.127 8.487C58.5083 8.487 58.864 8.487 59.194 8.487C59.524 8.487 59.8027 8.487 60.03 8.487C60.2573 8.487 60.4113 8.487 60.492 8.487C60.6093 8.487 60.756 8.487 60.932 8.487C61.1153 8.47967 61.2913 8.47233 61.46 8.465C61.4527 8.597 61.4453 8.74 61.438 8.894C61.438 9.04067 61.438 9.18367 61.438 9.323C61.438 9.39633 61.438 9.543 61.438 9.763C61.438 9.97567 61.438 10.236 61.438 10.544C61.438 10.852 61.438 11.1857 61.438 11.545C61.438 11.897 61.438 12.249 61.438 12.601C61.438 12.953 61.438 13.2793 61.438 13.58C61.438 13.8807 61.438 14.1373 61.438 14.35C61.438 14.5553 61.438 14.6873 61.438 14.746C61.438 14.8267 61.438 14.9367 61.438 15.076C61.438 15.2153 61.438 15.3547 61.438 15.494C61.4453 15.6333 61.449 15.758 61.449 15.868C61.4563 15.9707 61.46 16.0403 61.46 16.077H60.514C60.514 16.033 60.514 15.945 60.514 15.813C60.5213 15.6737 60.525 15.5197 60.525 15.351C60.5323 15.175 60.536 15.01 60.536 14.856C60.536 14.8047 60.536 14.6653 60.536 14.438C60.536 14.2107 60.536 13.932 60.536 13.602C60.536 13.2647 60.536 12.9053 60.536 12.524C60.536 12.1353 60.536 11.7577 60.536 11.391C60.536 11.017 60.536 10.676 60.536 10.368C60.536 10.06 60.536 9.81433 60.536 9.631C60.536 9.44767 60.536 9.356 60.536 9.356H54.519C54.519 9.356 54.519 9.44767 54.519 9.631C54.519 9.807 54.519 10.049 54.519 10.357C54.519 10.665 54.519 11.006 54.519 11.38C54.519 11.7467 54.519 12.1207 54.519 12.502C54.519 12.8833 54.519 13.2427 54.519 13.58C54.519 13.91 54.519 14.1887 54.519 14.416C54.519 14.6433 54.519 14.79 54.519 14.856C54.519 14.9513 54.519 15.0613 54.519 15.186C54.519 15.3107 54.519 15.4353 54.519 15.56C54.5263 15.6773 54.53 15.7837 54.53 15.879C54.5373 15.9743 54.541 16.0403 54.541 16.077H53.595C53.595 16.0403 53.595 15.9707 53.595 15.868C53.6023 15.758 53.606 15.6333 53.606 15.494C53.6133 15.3547 53.617 15.219 53.617 15.087C53.617 14.9477 53.617 14.8303 53.617 14.735C53.617 14.6763 53.617 14.5407 53.617 14.328C53.617 14.1153 53.617 13.855 53.617 13.547C53.617 13.239 53.617 12.909 53.617 12.557C53.617 12.1977 53.617 11.842 53.617 11.49C53.617 11.1307 53.617 10.8007 53.617 10.5C53.617 10.192 53.617 9.93533 53.617 9.73C53.617 9.51733 53.617 9.38167 53.617 9.323C53.617 9.191 53.617 9.048 53.617 8.894C53.617 8.74 53.6133 8.597 53.606 8.465ZM60.888 14.581V15.439H54.09V14.581H60.888ZM63.902 11.237C64.012 11.2443 64.1477 11.2553 64.309 11.27C64.4703 11.2773 64.6463 11.2847 64.837 11.292C65.035 11.292 65.233 11.292 65.431 11.292C65.5483 11.292 65.728 11.292 65.97 11.292C66.2193 11.292 66.509 11.292 66.839 11.292C67.169 11.292 67.5173 11.292 67.884 11.292C68.258 11.292 68.6283 11.292 68.995 11.292C69.369 11.292 69.721 11.292 70.051 11.292C70.3883 11.292 70.678 11.292 70.92 11.292C71.162 11.292 71.3417 11.292 71.459 11.292C71.7377 11.292 71.976 11.2847 72.174 11.27C72.372 11.2553 72.5297 11.2443 72.647 11.237V12.315C72.537 12.3077 72.372 12.2967 72.152 12.282C71.9393 12.2673 71.712 12.26 71.47 12.26C71.3527 12.26 71.1693 12.26 70.92 12.26C70.6707 12.26 70.381 12.26 70.051 12.26C69.7283 12.26 69.38 12.26 69.006 12.26C68.632 12.26 68.258 12.26 67.884 12.26C67.5173 12.26 67.169 12.26 66.839 12.26C66.5163 12.26 66.2303 12.26 65.981 12.26C65.7317 12.26 65.5483 12.26 65.431 12.26C65.1303 12.26 64.8443 12.2673 64.573 12.282C64.3017 12.2893 64.078 12.3003 63.902 12.315V11.237ZM74.616 8.729H83.482V13.899H82.635V9.532H75.441V13.954H74.616V8.729ZM75.056 12.458H83.13V13.272H75.056V12.458ZM78.598 6.76H79.467V16.869H78.598V6.76Z" fill="#C4C4C4"/>
<path fill-rule="evenodd" clip-rule="evenodd" d="M11.6042 12C11.6042 14.9797 14.0198 17.3959 17.0001 17.3959C19.9797 17.3959 22.3959 14.9797 22.3959 12C22.3959 9.02035 19.9797 6.60419 17.0001 6.60419C14.0198 6.60419 11.6042 9.02035 11.6042 12Z" stroke="#C4C4C4" stroke-width="1.5" stroke-linecap="round" stroke-linejoin="round"/>
<path d="M14.9753 11.1586L17.0001 13.1921L19.0248 11.1586" stroke="#C4C4C4" stroke-width="1.5" stroke-linecap="round" stroke-linejoin="round"/>
</svg>
