<svg width="108" height="23" viewBox="0 0 108 23" fill="none" xmlns="http://www.w3.org/2000/svg">
<rect x="0.5" y="0.5" width="107" height="22" rx="9.5" fill="white" stroke="#1B6AAC"/>
<path d="M40.521 8.685C40.4843 8.76567 40.4513 8.85 40.422 8.938C40.4 9.026 40.378 9.125 40.356 9.235C40.2973 9.52833 40.2203 9.851 40.125 10.203C40.0297 10.5477 39.9123 10.907 39.773 11.281C39.641 11.6477 39.4833 12.007 39.3 12.359C39.124 12.7037 38.9297 13.0153 38.717 13.294C38.3797 13.7193 38.0057 14.119 37.595 14.493C37.1843 14.8597 36.715 15.1897 36.187 15.483C35.659 15.7763 35.0577 16.0293 34.383 16.242L33.635 15.417C34.3537 15.2337 34.9733 15.0137 35.494 14.757C36.022 14.493 36.484 14.1923 36.88 13.855C37.276 13.5177 37.6243 13.1547 37.925 12.766C38.189 12.436 38.4163 12.0583 38.607 11.633C38.805 11.2077 38.9663 10.7823 39.091 10.357C39.223 9.92433 39.3147 9.532 39.366 9.18C39.2633 9.18 39.069 9.18 38.783 9.18C38.497 9.18 38.1597 9.18 37.771 9.18C37.3823 9.18 36.9753 9.18 36.55 9.18C36.132 9.18 35.7287 9.18 35.34 9.18C34.9513 9.18 34.614 9.18 34.328 9.18C34.042 9.18 33.8477 9.18 33.745 9.18C33.525 9.18 33.3233 9.18367 33.14 9.191C32.9567 9.19833 32.7917 9.20567 32.645 9.213V8.245C32.7477 8.25233 32.8613 8.26333 32.986 8.278C33.1107 8.29267 33.239 8.30367 33.371 8.311C33.503 8.311 33.6277 8.311 33.745 8.311C33.833 8.311 33.9907 8.311 34.218 8.311C34.4453 8.311 34.713 8.311 35.021 8.311C35.3363 8.311 35.67 8.311 36.022 8.311C36.3813 8.311 36.7333 8.311 37.078 8.311C37.43 8.311 37.7563 8.311 38.057 8.311C38.365 8.311 38.6253 8.311 38.838 8.311C39.0507 8.311 39.1937 8.311 39.267 8.311C39.3477 8.311 39.4393 8.311 39.542 8.311C39.6447 8.30367 39.7473 8.28533 39.85 8.256L40.521 8.685ZM48.991 9.268C48.9763 9.38533 48.9653 9.51 48.958 9.642C48.9507 9.76667 48.947 9.89133 48.947 10.016C48.9543 10.1773 48.958 10.3973 48.958 10.676C48.9653 10.9547 48.9727 11.2737 48.98 11.633C48.9873 11.985 48.9947 12.3553 49.002 12.744C49.0093 13.1327 49.013 13.5213 49.013 13.91C49.0203 14.2913 49.0277 14.658 49.035 15.01C49.0423 15.3547 49.046 15.659 49.046 15.923C49.0533 16.1577 48.9763 16.341 48.815 16.473C48.661 16.6123 48.463 16.682 48.221 16.682C48.0817 16.682 47.913 16.6783 47.715 16.671C47.517 16.6637 47.3227 16.6527 47.132 16.638C46.9413 16.6307 46.7727 16.6233 46.626 16.616L46.582 15.813C46.802 15.8423 47.0403 15.868 47.297 15.89C47.5537 15.9047 47.7627 15.912 47.924 15.912C48.0267 15.912 48.1 15.8827 48.144 15.824C48.1953 15.7653 48.221 15.6883 48.221 15.593C48.221 15.373 48.2173 15.109 48.21 14.801C48.21 14.4857 48.2063 14.1483 48.199 13.789C48.199 13.4223 48.1953 13.052 48.188 12.678C48.1807 12.304 48.1733 11.9447 48.166 11.6C48.166 11.2553 48.1623 10.9473 48.155 10.676C48.1477 10.3973 48.1403 10.1773 48.133 10.016C48.133 9.91333 48.1257 9.796 48.111 9.664C48.0963 9.52467 48.078 9.39267 48.056 9.268H48.991ZM44.041 10.863C44.1657 10.8777 44.2977 10.8887 44.437 10.896C44.5837 10.9033 44.723 10.907 44.855 10.907C44.921 10.907 45.064 10.907 45.284 10.907C45.5113 10.907 45.7863 10.907 46.109 10.907C46.4317 10.907 46.7763 10.907 47.143 10.907C47.517 10.907 47.891 10.907 48.265 10.907C48.639 10.907 48.9837 10.907 49.299 10.907C49.6217 10.907 49.893 10.907 50.113 10.907C50.3403 10.907 50.487 10.907 50.553 10.907C50.663 10.907 50.7913 10.9033 50.938 10.896C51.092 10.8813 51.2093 10.8703 51.29 10.863V11.732C51.1947 11.7247 51.0773 11.7173 50.938 11.71C50.806 11.7027 50.685 11.699 50.575 11.699C50.5163 11.699 50.377 11.699 50.157 11.699C49.937 11.699 49.662 11.699 49.332 11.699C49.0093 11.699 48.661 11.699 48.287 11.699C47.913 11.699 47.5353 11.699 47.154 11.699C46.78 11.699 46.428 11.699 46.098 11.699C45.7753 11.699 45.504 11.699 45.284 11.699C45.064 11.699 44.9283 11.699 44.877 11.699C44.7303 11.699 44.5873 11.7027 44.448 11.71C44.3087 11.7173 44.173 11.7283 44.041 11.743V10.863ZM43.744 15.065C44.184 14.8523 44.6203 14.5993 45.053 14.306C45.493 14.0127 45.9037 13.701 46.285 13.371C46.6663 13.041 47 12.711 47.286 12.381C47.5793 12.051 47.8067 11.743 47.968 11.457H48.408L48.43 12.128C48.2833 12.392 48.067 12.689 47.781 13.019C47.5023 13.3417 47.176 13.6717 46.802 14.009C46.428 14.339 46.032 14.658 45.614 14.966C45.196 15.2667 44.778 15.527 44.36 15.747L43.744 15.065ZM54.216 8.465C54.436 8.47233 54.623 8.47967 54.777 8.487C54.931 8.487 55.0703 8.487 55.195 8.487C55.283 8.487 55.4443 8.487 55.679 8.487C55.9137 8.487 56.196 8.487 56.526 8.487C56.8633 8.487 57.2227 8.487 57.604 8.487C57.9853 8.487 58.363 8.487 58.737 8.487C59.1183 8.487 59.474 8.487 59.804 8.487C60.134 8.487 60.4127 8.487 60.64 8.487C60.8673 8.487 61.0213 8.487 61.102 8.487C61.2193 8.487 61.366 8.487 61.542 8.487C61.7253 8.47967 61.9013 8.47233 62.07 8.465C62.0627 8.597 62.0553 8.74 62.048 8.894C62.048 9.04067 62.048 9.18367 62.048 9.323C62.048 9.39633 62.048 9.543 62.048 9.763C62.048 9.97567 62.048 10.236 62.048 10.544C62.048 10.852 62.048 11.1857 62.048 11.545C62.048 11.897 62.048 12.249 62.048 12.601C62.048 12.953 62.048 13.2793 62.048 13.58C62.048 13.8807 62.048 14.1373 62.048 14.35C62.048 14.5553 62.048 14.6873 62.048 14.746C62.048 14.8267 62.048 14.9367 62.048 15.076C62.048 15.2153 62.048 15.3547 62.048 15.494C62.0553 15.6333 62.059 15.758 62.059 15.868C62.0663 15.9707 62.07 16.0403 62.07 16.077H61.124C61.124 16.033 61.124 15.945 61.124 15.813C61.1313 15.6737 61.135 15.5197 61.135 15.351C61.1423 15.175 61.146 15.01 61.146 14.856C61.146 14.8047 61.146 14.6653 61.146 14.438C61.146 14.2107 61.146 13.932 61.146 13.602C61.146 13.2647 61.146 12.9053 61.146 12.524C61.146 12.1353 61.146 11.7577 61.146 11.391C61.146 11.017 61.146 10.676 61.146 10.368C61.146 10.06 61.146 9.81433 61.146 9.631C61.146 9.44767 61.146 9.356 61.146 9.356H55.129C55.129 9.356 55.129 9.44767 55.129 9.631C55.129 9.807 55.129 10.049 55.129 10.357C55.129 10.665 55.129 11.006 55.129 11.38C55.129 11.7467 55.129 12.1207 55.129 12.502C55.129 12.8833 55.129 13.2427 55.129 13.58C55.129 13.91 55.129 14.1887 55.129 14.416C55.129 14.6433 55.129 14.79 55.129 14.856C55.129 14.9513 55.129 15.0613 55.129 15.186C55.129 15.3107 55.129 15.4353 55.129 15.56C55.1363 15.6773 55.14 15.7837 55.14 15.879C55.1473 15.9743 55.151 16.0403 55.151 16.077H54.205C54.205 16.0403 54.205 15.9707 54.205 15.868C54.2123 15.758 54.216 15.6333 54.216 15.494C54.2233 15.3547 54.227 15.219 54.227 15.087C54.227 14.9477 54.227 14.8303 54.227 14.735C54.227 14.6763 54.227 14.5407 54.227 14.328C54.227 14.1153 54.227 13.855 54.227 13.547C54.227 13.239 54.227 12.909 54.227 12.557C54.227 12.1977 54.227 11.842 54.227 11.49C54.227 11.1307 54.227 10.8007 54.227 10.5C54.227 10.192 54.227 9.93533 54.227 9.73C54.227 9.51733 54.227 9.38167 54.227 9.323C54.227 9.191 54.227 9.048 54.227 8.894C54.227 8.74 54.2233 8.597 54.216 8.465ZM61.498 14.581V15.439H54.7V14.581H61.498ZM64.512 11.237C64.622 11.2443 64.7577 11.2553 64.919 11.27C65.0803 11.2773 65.2563 11.2847 65.447 11.292C65.645 11.292 65.843 11.292 66.041 11.292C66.1583 11.292 66.338 11.292 66.58 11.292C66.8293 11.292 67.119 11.292 67.449 11.292C67.779 11.292 68.1273 11.292 68.494 11.292C68.868 11.292 69.2383 11.292 69.605 11.292C69.979 11.292 70.331 11.292 70.661 11.292C70.9983 11.292 71.288 11.292 71.53 11.292C71.772 11.292 71.9517 11.292 72.069 11.292C72.3477 11.292 72.586 11.2847 72.784 11.27C72.982 11.2553 73.1397 11.2443 73.257 11.237V12.315C73.147 12.3077 72.982 12.2967 72.762 12.282C72.5493 12.2673 72.322 12.26 72.08 12.26C71.9627 12.26 71.7793 12.26 71.53 12.26C71.2807 12.26 70.991 12.26 70.661 12.26C70.3383 12.26 69.99 12.26 69.616 12.26C69.242 12.26 68.868 12.26 68.494 12.26C68.1273 12.26 67.779 12.26 67.449 12.26C67.1263 12.26 66.8403 12.26 66.591 12.26C66.3417 12.26 66.1583 12.26 66.041 12.26C65.7403 12.26 65.4543 12.2673 65.183 12.282C64.9117 12.2893 64.688 12.3003 64.512 12.315V11.237ZM81.067 7.288C81.067 7.32467 81.0597 7.39067 81.045 7.486C81.0377 7.58133 81.0303 7.67667 81.023 7.772C81.023 7.86 81.0193 7.92967 81.012 7.981C81.0047 8.12033 81.001 8.311 81.001 8.553C81.001 8.795 81.001 9.059 81.001 9.345C81.001 9.631 81.001 9.92067 81.001 10.214C81.0083 10.5073 81.012 10.7823 81.012 11.039C81.0193 11.2957 81.023 11.512 81.023 11.688L80.176 11.27C80.176 11.1673 80.176 11.0133 80.176 10.808C80.176 10.5953 80.176 10.3533 80.176 10.082C80.176 9.80333 80.1723 9.52833 80.165 9.257C80.165 8.98567 80.1613 8.73633 80.154 8.509C80.1467 8.28167 80.1393 8.10567 80.132 7.981C80.1247 7.83433 80.1137 7.695 80.099 7.563C80.0843 7.42367 80.0733 7.332 80.066 7.288H81.067ZM75.226 8.817C75.5267 8.817 75.8677 8.81333 76.249 8.806C76.6303 8.79133 77.0337 8.77667 77.459 8.762C77.8917 8.74733 78.328 8.73633 78.768 8.729C79.208 8.72167 79.6297 8.71433 80.033 8.707C80.4437 8.69967 80.8213 8.696 81.166 8.696C81.496 8.696 81.826 8.696 82.156 8.696C82.486 8.696 82.794 8.696 83.08 8.696C83.3733 8.696 83.63 8.69967 83.85 8.707C84.0773 8.707 84.257 8.707 84.389 8.707L84.378 9.521C84.07 9.50633 83.6557 9.49533 83.135 9.488C82.6217 9.47333 81.9617 9.466 81.155 9.466C80.6783 9.466 80.1797 9.47333 79.659 9.488C79.1457 9.49533 78.6287 9.50633 78.108 9.521C77.5873 9.53567 77.0813 9.55767 76.59 9.587C76.106 9.609 75.6587 9.63467 75.248 9.664L75.226 8.817ZM81.001 12.018C81.001 12.502 80.9277 12.909 80.781 13.239C80.6417 13.569 80.4437 13.8147 80.187 13.976C79.9377 14.1373 79.6443 14.218 79.307 14.218C79.0797 14.218 78.856 14.1813 78.636 14.108C78.4233 14.0273 78.229 13.91 78.053 13.756C77.8843 13.5947 77.7487 13.4003 77.646 13.173C77.5507 12.9383 77.503 12.6743 77.503 12.381C77.503 12.0143 77.591 11.688 77.767 11.402C77.943 11.116 78.1777 10.8887 78.471 10.72C78.7717 10.5513 79.0943 10.467 79.439 10.467C79.8717 10.467 80.2273 10.566 80.506 10.764C80.792 10.9547 81.0083 11.2187 81.155 11.556C81.3017 11.886 81.375 12.2637 81.375 12.689C81.375 13.0557 81.32 13.4297 81.21 13.811C81.1073 14.1923 80.9313 14.559 80.682 14.911C80.44 15.263 80.1063 15.5857 79.681 15.879C79.263 16.165 78.7313 16.4033 78.086 16.594L77.349 15.868C77.8477 15.7507 78.295 15.6003 78.691 15.417C79.087 15.2337 79.4207 15.01 79.692 14.746C79.9633 14.482 80.1687 14.174 80.308 13.822C80.4547 13.47 80.528 13.0667 80.528 12.612C80.528 12.1133 80.4217 11.754 80.209 11.534C79.9963 11.314 79.7397 11.204 79.439 11.204C79.2483 11.204 79.0687 11.2517 78.9 11.347C78.7313 11.435 78.592 11.567 78.482 11.743C78.3793 11.919 78.328 12.128 78.328 12.37C78.328 12.7147 78.438 12.9823 78.658 13.173C78.8853 13.3637 79.1493 13.459 79.45 13.459C79.6773 13.459 79.8717 13.3967 80.033 13.272C80.1943 13.14 80.308 12.9457 80.374 12.689C80.4473 12.425 80.4547 12.0987 80.396 11.71L81.001 12.018ZM87.568 7.893C87.6927 7.90767 87.8247 7.91867 87.964 7.926C88.1107 7.93333 88.239 7.937 88.349 7.937C88.459 7.937 88.6387 7.93333 88.888 7.926C89.1447 7.91867 89.4307 7.91133 89.746 7.904C90.0687 7.88933 90.3877 7.87833 90.703 7.871C91.0257 7.85633 91.3117 7.84167 91.561 7.827C91.8177 7.81233 92.0047 7.80133 92.122 7.794C92.2833 7.77933 92.408 7.76467 92.496 7.75C92.584 7.73533 92.6573 7.72067 92.716 7.706L93.222 8.344C93.1267 8.41 93.024 8.47967 92.914 8.553C92.8113 8.62633 92.7087 8.707 92.606 8.795C92.4667 8.89767 92.2797 9.048 92.045 9.246C91.8103 9.43667 91.55 9.653 91.264 9.895C90.9853 10.1297 90.7103 10.3607 90.439 10.588C90.1677 10.8153 89.922 11.0207 89.702 11.204C89.9587 11.116 90.2153 11.0573 90.472 11.028C90.736 10.9913 90.989 10.973 91.231 10.973C91.8397 10.973 92.3787 11.0867 92.848 11.314C93.3247 11.534 93.695 11.8383 93.959 12.227C94.2303 12.6157 94.366 13.0593 94.366 13.558C94.366 14.1447 94.212 14.658 93.904 15.098C93.596 15.538 93.1597 15.8753 92.595 16.11C92.0303 16.352 91.3593 16.473 90.582 16.473C90.0833 16.473 89.6543 16.407 89.295 16.275C88.9357 16.143 88.657 15.9597 88.459 15.725C88.2683 15.4903 88.173 15.219 88.173 14.911C88.173 14.6617 88.2427 14.427 88.382 14.207C88.5213 13.987 88.7193 13.811 88.976 13.679C89.2327 13.547 89.5297 13.481 89.867 13.481C90.3583 13.481 90.7653 13.5837 91.088 13.789C91.4107 13.987 91.66 14.251 91.836 14.581C92.012 14.9037 92.111 15.252 92.133 15.626L91.341 15.758C91.3117 15.2887 91.165 14.9037 90.901 14.603C90.6443 14.295 90.296 14.141 89.856 14.141C89.6067 14.141 89.3977 14.2107 89.229 14.35C89.0603 14.4893 88.976 14.6543 88.976 14.845C88.976 15.109 89.1117 15.318 89.383 15.472C89.6543 15.626 90.0063 15.703 90.439 15.703C91.0623 15.703 91.6013 15.6187 92.056 15.45C92.518 15.2813 92.87 15.0357 93.112 14.713C93.3613 14.3903 93.486 14.0017 93.486 13.547C93.486 13.1877 93.3797 12.865 93.167 12.579C92.9543 12.293 92.661 12.0693 92.287 11.908C91.9203 11.7393 91.4987 11.655 91.022 11.655C90.56 11.655 90.1457 11.7063 89.779 11.809C89.4123 11.9043 89.0677 12.0437 88.745 12.227C88.4297 12.4103 88.1143 12.6413 87.799 12.92C87.491 13.1913 87.161 13.503 86.809 13.855L86.182 13.206C86.4093 13.0227 86.6587 12.8173 86.93 12.59C87.2087 12.3553 87.4873 12.1243 87.766 11.897C88.0447 11.6623 88.3013 11.446 88.536 11.248C88.778 11.0427 88.9797 10.874 89.141 10.742C89.295 10.6173 89.4857 10.4597 89.713 10.269C89.9477 10.071 90.1897 9.86567 90.439 9.653C90.6883 9.44033 90.923 9.23867 91.143 9.048C91.3703 8.85733 91.5537 8.70333 91.693 8.586C91.5757 8.586 91.4033 8.59333 91.176 8.608C90.9487 8.61533 90.6957 8.62633 90.417 8.641C90.1383 8.64833 89.8597 8.65933 89.581 8.674C89.3097 8.68867 89.0603 8.70333 88.833 8.718C88.613 8.72533 88.4443 8.73267 88.327 8.74C88.2097 8.74733 88.0887 8.75467 87.964 8.762C87.8393 8.76933 87.7183 8.784 87.601 8.806L87.568 7.893Z" fill="#1B6AAC"/>
<path fill-rule="evenodd" clip-rule="evenodd" d="M16.5843 14.1375C14.0217 14.1375 11.833 14.5248 11.833 16.0768C11.833 17.6288 14.0083 18.0301 16.5843 18.0301C19.1477 18.0301 21.3357 17.6421 21.3357 16.0908C21.3357 14.5395 19.161 14.1375 16.5843 14.1375Z" stroke="#1B6AAC" stroke-width="1.5" stroke-linecap="round" stroke-linejoin="round"/>
<path fill-rule="evenodd" clip-rule="evenodd" d="M16.5842 11.9239C18.2662 11.9239 19.6296 10.5606 19.6296 8.87858C19.6296 7.19659 18.2662 5.83325 16.5842 5.83325C14.9029 5.83325 13.5396 7.19659 13.5396 8.87858C13.5336 10.5546 14.8869 11.9179 16.5636 11.9239H16.5842Z" stroke="#1B6AAC" stroke-width="1.5" stroke-linecap="round" stroke-linejoin="round"/>
<path d="M22.8023 9.77936V12.4527" stroke="#1B6AAC" stroke-width="1.5" stroke-linecap="round" stroke-linejoin="round"/>
<path d="M24.1664 11.116H21.4397" stroke="#1B6AAC" stroke-width="1.5" stroke-linecap="round" stroke-linejoin="round"/>
</svg>
