<svg width="31" height="33" viewBox="0 0 31 33" fill="none" xmlns="http://www.w3.org/2000/svg">
<path d="M11.1175 30.0226V25.2947C11.1174 24.0922 12.0978 23.115 13.3125 23.107H17.7618C18.9823 23.107 19.9717 24.0865 19.9717 25.2947V25.2947V30.0373C19.9714 31.0583 20.7946 31.8927 21.8256 31.9167H24.7918C27.7488 31.9167 30.1459 29.5436 30.1459 26.6162V26.6162V13.1667C30.1301 12.015 29.5839 10.9336 28.6628 10.2301L18.5182 2.13985C16.741 0.731175 14.2146 0.731175 12.4374 2.13985L2.33737 10.2448C1.41273 10.9454 0.865636 12.0287 0.854248 13.1814V26.6162C0.854248 29.5436 3.25135 31.9167 6.20832 31.9167H9.17456C10.2312 31.9167 11.0878 31.0687 11.0878 30.0226V30.0226" stroke="white" stroke-width="1.5" stroke-linecap="round" stroke-linejoin="round"/>
</svg>
