<svg width="23" height="23" viewBox="0 0 23 23" fill="none" xmlns="http://www.w3.org/2000/svg">
<path d="M13.1441 18.3182L7.75351 3.94324C7.68288 3.75485 7.55644 3.5925 7.39107 3.4779C7.22571 3.36329 7.02931 3.30188 6.82811 3.30188C6.62692 3.30188 6.43052 3.36329 6.26516 3.4779C6.09979 3.5925 5.97335 3.75485 5.90272 3.94324L0.512099 18.3182C0.422941 18.563 0.434047 18.8331 0.543 19.0698C0.651953 19.3064 0.84994 19.4905 1.09389 19.5819C1.33785 19.6733 1.60803 19.6647 1.84568 19.558C2.08332 19.4512 2.2692 19.2549 2.36288 19.0118L3.98725 14.6805C3.99365 14.6633 4.00512 14.6486 4.02013 14.6381C4.03514 14.6277 4.05298 14.6221 4.07126 14.6221H9.58497C9.60325 14.6221 9.62109 14.6277 9.6361 14.6381C9.65111 14.6486 9.66258 14.6633 9.66897 14.6805L11.2933 19.0118C11.387 19.2549 11.5729 19.4512 11.8106 19.558C12.0482 19.6647 12.3184 19.6733 12.5623 19.5819C12.8063 19.4905 13.0043 19.3064 13.1132 19.0698C13.2222 18.8331 13.2333 18.563 13.1441 18.3182ZM4.79585 12.5233L6.74411 7.32811C6.75058 7.31106 6.76207 7.29638 6.77708 7.28603C6.79208 7.27567 6.80988 7.27013 6.82811 7.27013C6.84635 7.27013 6.86415 7.27567 6.87915 7.28603C6.89415 7.29638 6.90565 7.31106 6.91212 7.32811L8.86038 12.5242C8.86545 12.5378 8.86717 12.5524 8.86537 12.5668C8.86358 12.5812 8.85833 12.5949 8.85008 12.6068C8.84183 12.6187 8.83081 12.6285 8.81798 12.6352C8.80514 12.642 8.79087 12.6455 8.77638 12.6455H4.87985C4.86536 12.6455 4.85108 12.642 4.83825 12.6352C4.82542 12.6285 4.8144 12.6187 4.80615 12.6068C4.7979 12.5949 4.79265 12.5812 4.79086 12.5668C4.78906 12.5524 4.79078 12.5378 4.79585 12.5242V12.5233ZM18.0033 7.61426C16.1292 7.60078 14.4509 8.68654 13.7358 10.3725C13.6333 10.6137 13.6309 10.8858 13.729 11.1288C13.8272 11.3719 14.0178 11.566 14.2591 11.6685C14.5004 11.7709 14.7724 11.7733 15.0155 11.6752C15.2585 11.5771 15.4526 11.3864 15.5551 11.1451C15.954 10.2067 16.8924 9.59801 17.9503 9.59082C19.4022 9.58094 20.5742 10.7813 20.5742 12.2345C20.5742 12.252 20.5674 12.2688 20.5553 12.2813C20.5431 12.2939 20.5266 12.3013 20.5091 12.3019C19.5244 12.3293 18.3564 12.3948 17.3142 12.5175C14.8548 12.8068 13.3867 14.1477 13.3867 16.1045C13.3867 17.1462 13.7802 18.0811 14.4949 18.7405C15.1656 19.3582 16.082 19.6982 17.0703 19.6982C18.4629 19.6982 19.6618 19.3389 20.5715 18.6552H20.5742C20.5736 18.7849 20.5987 18.9136 20.6478 19.0337C20.697 19.1538 20.7693 19.2631 20.8607 19.3552C20.952 19.4474 21.0607 19.5207 21.1803 19.5708C21.3 19.621 21.4284 19.6471 21.5582 19.6477C21.688 19.6483 21.8166 19.6233 21.9367 19.5741C22.0569 19.525 22.1661 19.4526 22.2583 19.3613C22.3505 19.2699 22.4237 19.1613 22.4739 19.0416C22.5241 18.9219 22.5502 18.7935 22.5508 18.6637V12.2399C22.5508 9.71615 20.5293 7.63268 18.0033 7.61426ZM17.0703 17.7217C16.2828 17.7217 15.3633 17.2981 15.3633 16.1045C15.3633 15.6252 15.5353 15.2896 15.9216 15.016C16.2976 14.7496 16.874 14.5596 17.5451 14.4806C18.4939 14.3687 19.5585 14.3072 20.4713 14.2798C20.4835 14.2798 20.4956 14.2822 20.5068 14.287C20.518 14.2918 20.5281 14.2988 20.5365 14.3076C20.5449 14.3165 20.5514 14.3269 20.5557 14.3383C20.5599 14.3498 20.5618 14.3619 20.5612 14.3741C20.4394 16.6256 19.2921 17.7217 17.0703 17.7217Z" fill="#1B6AAC"/>
</svg>
