<svg width="14" height="14" viewBox="0 0 14 14" fill="none" xmlns="http://www.w3.org/2000/svg">
<g clip-path="url(#clip0_2_5994)">
<path d="M11.6667 5.10413C11.6608 4.27238 11.4327 3.4573 11.0061 2.74328C10.5794 2.02927 9.96969 1.44226 9.23999 1.04302C8.51029 0.64379 7.68714 0.446843 6.85576 0.47257C6.02438 0.498297 5.21499 0.745764 4.51136 1.18935C3.80774 1.63294 3.23547 2.25653 2.85378 2.99556C2.47209 3.73459 2.29487 4.56221 2.34045 5.39273C2.38603 6.22326 2.65276 7.02651 3.11303 7.71934C3.5733 8.41216 4.21038 8.96938 4.95832 9.3333V11.55C4.95832 11.7047 5.01978 11.853 5.12917 11.9624C5.23857 12.0718 5.38694 12.1333 5.54165 12.1333H8.45832C8.61303 12.1333 8.7614 12.0718 8.8708 11.9624C8.9802 11.853 9.04165 11.7047 9.04165 11.55V9.3333C9.83373 8.94796 10.5006 8.34631 10.9651 7.59792C11.4296 6.84953 11.6728 5.98495 11.6667 5.10413Z" stroke="#004098" stroke-width="1.5" stroke-linecap="round" stroke-linejoin="round"/>
<path d="M4.95831 10.3541H9.04165M5.54165 12.1041H8.45831V12.9791C8.45831 13.1338 8.39685 13.2822 8.28746 13.3916C8.17806 13.501 8.02969 13.5625 7.87498 13.5625H6.12498C5.97027 13.5625 5.8219 13.501 5.7125 13.3916C5.6031 13.2822 5.54165 13.1338 5.54165 12.9791V12.1041Z" stroke="#004098" stroke-width="1.5" stroke-linecap="round" stroke-linejoin="round"/>
</g>
<defs>
<clipPath id="clip0_2_5994">
<rect width="14" height="14" fill="white"/>
</clipPath>
</defs>
</svg>
