<svg width="22" height="22" viewBox="0 0 22 22" fill="none" xmlns="http://www.w3.org/2000/svg">
<g clip-path="url(#clip0_2_7252)">
<path d="M17.2857 8.64285C18.3277 8.64285 19.3269 8.22895 20.0637 7.4922C20.8004 6.75545 21.2143 5.7562 21.2143 4.71428C21.2143 3.67235 20.8004 2.67311 20.0637 1.93636C19.3269 1.19961 18.3277 0.785706 17.2857 0.785706C16.2438 0.785706 15.2446 1.19961 14.5078 1.93636C13.7711 2.67311 13.3572 3.67235 13.3572 4.71428C13.3572 5.7562 13.7711 6.75545 14.5078 7.4922C15.2446 8.22895 16.2438 8.64285 17.2857 8.64285Z" fill="#FA9289"/>
<path fill-rule="evenodd" clip-rule="evenodd" d="M18.0714 8.5643C17.8168 8.61668 17.5549 8.64287 17.2856 8.64287C16.703 8.64299 16.1277 8.51352 15.6013 8.26384C15.0749 8.01416 14.6106 7.65052 14.242 7.19926C13.8735 6.748 13.61 6.22042 13.4705 5.65474C13.331 5.08906 13.3191 4.49944 13.4356 3.92859H3.9285C3.09496 3.92859 2.29557 4.25971 1.70617 4.84911C1.11677 5.43851 0.785645 6.23791 0.785645 7.07145V18.0714C0.785645 18.905 1.11677 19.7044 1.70617 20.2938C2.29557 20.8832 3.09496 21.2143 3.9285 21.2143H14.9285C15.762 21.2143 16.5614 20.8832 17.1508 20.2938C17.7402 19.7044 18.0714 18.905 18.0714 18.0714V8.5643Z" fill="#D7E0FF"/>
<path d="M9.4285 3.92856H3.9285C3.09496 3.92856 2.29557 4.25968 1.70617 4.84908C1.11677 5.43848 0.785645 6.23788 0.785645 7.07142V18.0714C0.785645 18.905 1.11677 19.7044 1.70617 20.2938C2.29557 20.8832 3.09496 21.2143 3.9285 21.2143H14.9285C15.762 21.2143 16.5614 20.8832 17.1508 20.2938C17.7402 19.7044 18.0714 18.905 18.0714 18.0714V12.5714M17.2856 8.64285C18.3276 8.64285 19.3268 8.22895 20.0636 7.4922C20.8003 6.75545 21.2142 5.7562 21.2142 4.71428C21.2142 3.67235 20.8003 2.67311 20.0636 1.93636C19.3268 1.19961 18.3276 0.785706 17.2856 0.785706C16.2437 0.785706 15.2445 1.19961 14.5077 1.93636C13.771 2.67311 13.3571 3.67235 13.3571 4.71428C13.3571 5.7562 13.771 6.75545 14.5077 7.4922C15.2445 8.22895 16.2437 8.64285 17.2856 8.64285Z" stroke="#004098" stroke-linecap="round" stroke-linejoin="round"/>
</g>
<defs>
<clipPath id="clip0_2_7252">
<rect width="22" height="22" fill="white"/>
</clipPath>
</defs>
</svg>
