<svg width="65" height="22" viewBox="0 0 65 22" fill="none" xmlns="http://www.w3.org/2000/svg">
<rect width="65" height="22" rx="10" fill="#D9D9D9"/>
<path d="M25.75 7.61C25.75 7.79 25.81 7.94333 25.93 8.07C26.0567 8.19 26.2067 8.25 26.38 8.25C26.56 8.25 26.7133 8.19 26.84 8.07C26.9667 7.94333 27.03 7.79 27.03 7.61C27.03 7.43 26.9667 7.28 26.84 7.16C26.7133 7.03333 26.56 6.97 26.38 6.97C26.2067 6.97 26.0567 7.03333 25.93 7.16C25.81 7.28 25.75 7.43 25.75 7.61ZM25.29 7.61C25.29 7.41 25.34 7.22667 25.44 7.06C25.54 6.89333 25.67 6.76 25.83 6.66C25.9967 6.56 26.18 6.51 26.38 6.51C26.5867 6.51 26.7733 6.56 26.94 6.66C27.1067 6.76 27.2367 6.89333 27.33 7.06C27.43 7.22667 27.48 7.41 27.48 7.61C27.48 7.81 27.43 7.99333 27.33 8.16C27.2367 8.32667 27.1067 8.46 26.94 8.56C26.7733 8.65333 26.5867 8.7 26.38 8.7C26.18 8.7 25.9967 8.65333 25.83 8.56C25.67 8.46 25.54 8.32667 25.44 8.16C25.34 7.99333 25.29 7.81 25.29 7.61ZM23.62 7.29C23.6133 7.33667 23.6033 7.40333 23.59 7.49C23.5833 7.57667 23.5767 7.66667 23.57 7.76C23.5633 7.85333 23.56 7.93667 23.56 8.01C23.56 8.18333 23.56 8.38333 23.56 8.61C23.56 8.83667 23.56 9.06 23.56 9.28C23.56 9.5 23.56 9.69333 23.56 9.86C23.56 9.99333 23.56 10.1867 23.56 10.44C23.56 10.6933 23.56 10.98 23.56 11.3C23.56 11.62 23.56 11.95 23.56 12.29C23.56 12.6233 23.56 12.9467 23.56 13.26C23.56 13.5733 23.56 13.85 23.56 14.09C23.56 14.33 23.56 14.51 23.56 14.63C23.56 14.8967 23.4933 15.0967 23.36 15.23C23.2267 15.3633 23.0067 15.43 22.7 15.43C22.56 15.43 22.4033 15.4267 22.23 15.42C22.0633 15.4133 21.8967 15.4033 21.73 15.39C21.5633 15.3767 21.4133 15.3667 21.28 15.36L21.21 14.56C21.43 14.6 21.6433 14.63 21.85 14.65C22.0567 14.67 22.2267 14.68 22.36 14.68C22.4933 14.68 22.59 14.65 22.65 14.59C22.71 14.5233 22.7433 14.4267 22.75 14.3C22.75 14.2067 22.75 14.0467 22.75 13.82C22.75 13.5867 22.75 13.32 22.75 13.02C22.75 12.7133 22.75 12.3933 22.75 12.06C22.75 11.72 22.75 11.4 22.75 11.1C22.75 10.7933 22.75 10.53 22.75 10.31C22.75 10.09 22.75 9.94 22.75 9.86C22.75 9.74667 22.75 9.57667 22.75 9.35C22.75 9.12333 22.75 8.88667 22.75 8.64C22.75 8.38667 22.75 8.17333 22.75 8C22.75 7.89333 22.74 7.76667 22.72 7.62C22.7067 7.47333 22.6933 7.36333 22.68 7.29H23.62ZM19.12 8.98C19.26 8.99333 19.3967 9.00667 19.53 9.02C19.6633 9.02667 19.81 9.03 19.97 9.03C20.05 9.03 20.2133 9.03 20.46 9.03C20.7067 9.03 21.0033 9.03 21.35 9.03C21.7033 9.03 22.08 9.03 22.48 9.03C22.88 9.03 23.28 9.03 23.68 9.03C24.0867 9.03 24.4633 9.03 24.81 9.03C25.1633 9.03 25.46 9.03 25.7 9.03C25.9467 9.03 26.1133 9.03 26.2 9.03C26.32 9.03 26.4533 9.02667 26.6 9.02C26.7533 9.00667 26.8933 8.99333 27.02 8.98V9.81C26.8867 9.80333 26.7467 9.8 26.6 9.8C26.46 9.79333 26.33 9.79 26.21 9.79C26.1233 9.79 25.9567 9.79 25.71 9.79C25.47 9.79 25.1733 9.79 24.82 9.79C24.4733 9.79 24.1 9.79 23.7 9.79C23.3 9.79 22.9 9.79 22.5 9.79C22.1 9.79 21.7233 9.79 21.37 9.79C21.0167 9.79 20.7167 9.79 20.47 9.79C20.23 9.79 20.0633 9.79 19.97 9.79C19.8233 9.79 19.6767 9.79333 19.53 9.8C19.39 9.8 19.2533 9.80667 19.12 9.82V8.98ZM21.42 11.33C21.3133 11.5433 21.18 11.7767 21.02 12.03C20.8667 12.2833 20.6967 12.54 20.51 12.8C20.33 13.0533 20.15 13.29 19.97 13.51C19.7967 13.73 19.64 13.9167 19.5 14.07L18.81 13.61C18.9767 13.4567 19.15 13.2733 19.33 13.06C19.51 12.84 19.6867 12.61 19.86 12.37C20.04 12.13 20.2033 11.8933 20.35 11.66C20.4967 11.42 20.62 11.1967 20.72 10.99L21.42 11.33ZM25.6 11C25.7333 11.16 25.8767 11.35 26.03 11.57C26.19 11.79 26.35 12.0267 26.51 12.28C26.6767 12.5267 26.83 12.7667 26.97 13C27.11 13.2267 27.23 13.43 27.33 13.61L26.59 14.02C26.4967 13.82 26.38 13.6 26.24 13.36C26.1067 13.12 25.9633 12.8767 25.81 12.63C25.6567 12.3833 25.5 12.15 25.34 11.93C25.1867 11.71 25.0467 11.52 24.92 11.36L25.6 11ZM36 8.31C35.9667 8.35 35.9233 8.41667 35.87 8.51C35.8233 8.59667 35.7833 8.67667 35.75 8.75C35.6233 9.07667 35.4567 9.44 35.25 9.84C35.0433 10.2333 34.8133 10.6233 34.56 11.01C34.3067 11.3967 34.04 11.7467 33.76 12.06C33.3933 12.4733 32.99 12.8767 32.55 13.27C32.11 13.6567 31.6467 14.02 31.16 14.36C30.6733 14.6933 30.1667 14.98 29.64 15.22L29 14.55C29.54 14.3367 30.0567 14.0733 30.55 13.76C31.05 13.44 31.5167 13.0933 31.95 12.72C32.39 12.34 32.78 11.96 33.12 11.58C33.3467 11.32 33.57 11.03 33.79 10.71C34.0167 10.3833 34.2167 10.0533 34.39 9.72C34.57 9.38 34.7 9.07333 34.78 8.8C34.7267 8.8 34.6 8.8 34.4 8.8C34.2 8.8 33.9633 8.8 33.69 8.8C33.4167 8.8 33.13 8.8 32.83 8.8C32.53 8.8 32.2433 8.8 31.97 8.8C31.6967 8.8 31.46 8.8 31.26 8.8C31.0667 8.8 30.94 8.8 30.88 8.8C30.7667 8.8 30.6367 8.80333 30.49 8.81C30.35 8.81667 30.22 8.82333 30.1 8.83C29.9867 8.83667 29.91 8.84333 29.87 8.85V7.94C29.9167 7.94667 30 7.95667 30.12 7.97C30.2467 7.97667 30.38 7.98333 30.52 7.99C30.66 7.99667 30.78 8 30.88 8C30.9533 8 31.0867 8 31.28 8C31.4733 8 31.7033 8 31.97 8C32.2433 8 32.5267 8 32.82 8C33.1133 8 33.3933 8 33.66 8C33.9333 8 34.1667 8 34.36 8C34.5533 8 34.68 8 34.74 8C34.9067 8 35.0533 7.99333 35.18 7.98C35.3133 7.96667 35.4167 7.94667 35.49 7.92L36 8.31ZM33.89 11.53C34.1633 11.7567 34.4433 12.0067 34.73 12.28C35.0233 12.5533 35.31 12.8367 35.59 13.13C35.87 13.4167 36.13 13.6933 36.37 13.96C36.61 14.22 36.8167 14.4567 36.99 14.67L36.29 15.27C36.0567 14.95 35.7767 14.6067 35.45 14.24C35.1233 13.8667 34.7767 13.4967 34.41 13.13C34.05 12.7567 33.6867 12.4133 33.32 12.1L33.89 11.53ZM41.17 14.12C41.17 14.0267 41.17 13.84 41.17 13.56C41.17 13.2733 41.17 12.9367 41.17 12.55C41.17 12.1567 41.17 11.7467 41.17 11.32C41.17 10.8867 41.17 10.4667 41.17 10.06C41.17 9.65333 41.17 9.29333 41.17 8.98C41.17 8.66667 41.17 8.44 41.17 8.3C41.17 8.16 41.1633 7.99 41.15 7.79C41.1367 7.59 41.1167 7.41333 41.09 7.26H42.07C42.0567 7.40667 42.04 7.58 42.02 7.78C42.0067 7.98 42 8.15333 42 8.3C42 8.56 42 8.87333 42 9.24C42 9.6 42 9.98667 42 10.4C42 10.8067 42 11.2133 42 11.62C42.0067 12.02 42.01 12.3967 42.01 12.75C42.01 13.0967 42.01 13.3933 42.01 13.64C42.01 13.88 42.01 14.04 42.01 14.12C42.01 14.2267 42.01 14.35 42.01 14.49C42.0167 14.63 42.0267 14.7733 42.04 14.92C42.0533 15.06 42.0633 15.1867 42.07 15.3H41.1C41.1267 15.14 41.1433 14.95 41.15 14.73C41.1633 14.51 41.17 14.3067 41.17 14.12ZM41.83 9.88C42.1567 9.98 42.5167 10.1 42.91 10.24C43.31 10.3733 43.7167 10.5167 44.13 10.67C44.5433 10.8233 44.9333 10.98 45.3 11.14C45.6733 11.2933 45.9967 11.44 46.27 11.58L45.93 12.43C45.6433 12.27 45.32 12.1133 44.96 11.96C44.6 11.8 44.23 11.6433 43.85 11.49C43.4767 11.3367 43.1133 11.2 42.76 11.08C42.4133 10.9533 42.1033 10.85 41.83 10.77V9.88Z" fill="black"/>
</svg>
