<svg width="116" height="16" viewBox="0 0 116 16" fill="none" xmlns="http://www.w3.org/2000/svg">
<rect x="0.5" y="0.5" width="115" height="15" rx="4.5" fill="white" stroke="#FA9289"/>
<path d="M13.209 4.529C13.209 4.673 13.26 4.796 13.362 4.898C13.464 4.994 13.587 5.042 13.731 5.042C13.875 5.042 13.998 4.994 14.1 4.898C14.202 4.796 14.253 4.673 14.253 4.529C14.253 4.385 14.202 4.262 14.1 4.16C13.998 4.058 13.875 4.007 13.731 4.007C13.587 4.007 13.464 4.058 13.362 4.16C13.26 4.262 13.209 4.385 13.209 4.529ZM12.651 4.529C12.651 4.331 12.699 4.151 12.795 3.989C12.897 3.821 13.029 3.689 13.191 3.593C13.353 3.497 13.533 3.449 13.731 3.449C13.929 3.449 14.109 3.497 14.271 3.593C14.433 3.689 14.562 3.821 14.658 3.989C14.76 4.151 14.811 4.331 14.811 4.529C14.811 4.721 14.76 4.898 14.658 5.06C14.562 5.222 14.433 5.354 14.271 5.456C14.109 5.552 13.929 5.6 13.731 5.6C13.533 5.6 13.353 5.552 13.191 5.456C13.029 5.354 12.897 5.222 12.795 5.06C12.699 4.898 12.651 4.721 12.651 4.529ZM7.728 8.201C7.83 7.949 7.926 7.685 8.016 7.409C8.112 7.127 8.196 6.839 8.268 6.545C8.34 6.245 8.403 5.948 8.457 5.654C8.517 5.36 8.559 5.069 8.583 4.781L9.897 5.051C9.873 5.135 9.846 5.234 9.816 5.348C9.786 5.462 9.759 5.573 9.735 5.681C9.711 5.789 9.693 5.879 9.681 5.951C9.651 6.107 9.609 6.296 9.555 6.518C9.501 6.74 9.438 6.977 9.366 7.229C9.294 7.475 9.219 7.724 9.141 7.976C9.069 8.222 8.994 8.45 8.916 8.66C8.808 8.948 8.679 9.248 8.529 9.56C8.385 9.872 8.229 10.172 8.061 10.46C7.899 10.748 7.74 11.006 7.584 11.234L6.324 10.703C6.612 10.331 6.879 9.92 7.125 9.47C7.377 9.02 7.578 8.597 7.728 8.201ZM12.174 8.012C12.084 7.772 11.985 7.517 11.877 7.247C11.769 6.977 11.655 6.707 11.535 6.437C11.415 6.167 11.298 5.912 11.184 5.672C11.07 5.432 10.965 5.225 10.869 5.051L12.066 4.664C12.156 4.838 12.261 5.048 12.381 5.294C12.501 5.54 12.621 5.801 12.741 6.077C12.861 6.347 12.978 6.617 13.092 6.887C13.206 7.157 13.308 7.4 13.398 7.616C13.476 7.814 13.56 8.048 13.65 8.318C13.746 8.588 13.842 8.87 13.938 9.164C14.04 9.452 14.133 9.734 14.217 10.01C14.307 10.286 14.382 10.535 14.442 10.757L13.11 11.189C13.032 10.835 12.942 10.475 12.84 10.109C12.738 9.743 12.63 9.383 12.516 9.029C12.408 8.675 12.294 8.336 12.174 8.012ZM19.365 5.654C19.407 5.75 19.461 5.888 19.527 6.068C19.599 6.242 19.674 6.431 19.752 6.635C19.83 6.833 19.899 7.022 19.959 7.202C20.019 7.382 20.067 7.523 20.103 7.625L19.023 8.003C18.999 7.889 18.957 7.745 18.897 7.571C18.837 7.397 18.771 7.214 18.699 7.022C18.627 6.824 18.555 6.635 18.483 6.455C18.411 6.275 18.348 6.125 18.294 6.005L19.365 5.654ZM22.686 6.311C22.638 6.455 22.596 6.578 22.56 6.68C22.53 6.782 22.5 6.878 22.47 6.968C22.356 7.424 22.2 7.88 22.002 8.336C21.804 8.786 21.552 9.209 21.246 9.605C20.826 10.145 20.349 10.604 19.815 10.982C19.287 11.354 18.759 11.639 18.231 11.837L17.286 10.874C17.616 10.784 17.964 10.652 18.33 10.478C18.696 10.298 19.05 10.082 19.392 9.83C19.734 9.578 20.028 9.299 20.274 8.993C20.478 8.735 20.658 8.441 20.814 8.111C20.976 7.775 21.108 7.418 21.21 7.04C21.318 6.656 21.39 6.278 21.426 5.906L22.686 6.311ZM17.277 6.131C17.337 6.245 17.403 6.392 17.475 6.572C17.553 6.752 17.631 6.941 17.709 7.139C17.787 7.337 17.862 7.529 17.934 7.715C18.012 7.901 18.072 8.057 18.114 8.183L17.016 8.597C16.98 8.477 16.926 8.321 16.854 8.129C16.788 7.937 16.713 7.736 16.629 7.526C16.545 7.31 16.464 7.112 16.386 6.932C16.314 6.752 16.251 6.614 16.197 6.518L17.277 6.131ZM25.017 4.538C25.245 4.538 25.536 4.538 25.89 4.538C26.244 4.532 26.616 4.52 27.006 4.502C27.396 4.478 27.756 4.442 28.086 4.394C28.314 4.364 28.536 4.328 28.752 4.286C28.974 4.244 29.184 4.202 29.382 4.16C29.586 4.112 29.769 4.061 29.931 4.007C30.099 3.953 30.24 3.902 30.354 3.854L31.092 4.844C30.936 4.88 30.801 4.913 30.687 4.943C30.573 4.973 30.477 4.997 30.399 5.015C30.213 5.063 30.012 5.111 29.796 5.159C29.58 5.201 29.358 5.24 29.13 5.276C28.902 5.312 28.671 5.348 28.437 5.384C28.095 5.432 27.732 5.468 27.348 5.492C26.964 5.516 26.592 5.537 26.232 5.555C25.872 5.567 25.56 5.576 25.296 5.582L25.017 4.538ZM25.404 10.739C25.932 10.499 26.364 10.208 26.7 9.866C27.042 9.518 27.294 9.119 27.456 8.669C27.624 8.213 27.708 7.703 27.708 7.139C27.708 7.139 27.708 7.073 27.708 6.941C27.708 6.803 27.708 6.599 27.708 6.329C27.708 6.053 27.708 5.705 27.708 5.285L28.887 5.15C28.887 5.306 28.887 5.474 28.887 5.654C28.887 5.828 28.887 6.002 28.887 6.176C28.887 6.35 28.887 6.509 28.887 6.653C28.887 6.791 28.887 6.905 28.887 6.995C28.887 7.079 28.887 7.121 28.887 7.121C28.887 7.721 28.812 8.291 28.662 8.831C28.518 9.371 28.275 9.869 27.933 10.325C27.591 10.775 27.129 11.174 26.547 11.522L25.404 10.739ZM24.342 6.689C24.468 6.701 24.603 6.713 24.747 6.725C24.891 6.737 25.032 6.743 25.17 6.743C25.254 6.743 25.413 6.743 25.647 6.743C25.881 6.743 26.163 6.743 26.493 6.743C26.829 6.743 27.189 6.743 27.573 6.743C27.957 6.743 28.341 6.743 28.725 6.743C29.109 6.743 29.469 6.743 29.805 6.743C30.141 6.743 30.429 6.743 30.669 6.743C30.909 6.743 31.071 6.743 31.155 6.743C31.221 6.743 31.305 6.74 31.407 6.734C31.509 6.728 31.611 6.722 31.713 6.716C31.821 6.704 31.908 6.695 31.974 6.689V7.85C31.854 7.838 31.722 7.829 31.578 7.823C31.44 7.817 31.308 7.814 31.182 7.814C31.098 7.814 30.936 7.814 30.696 7.814C30.462 7.814 30.174 7.814 29.832 7.814C29.496 7.814 29.133 7.814 28.743 7.814C28.359 7.814 27.972 7.814 27.582 7.814C27.198 7.814 26.838 7.814 26.502 7.814C26.166 7.814 25.881 7.814 25.647 7.814C25.413 7.814 25.26 7.814 25.188 7.814C25.05 7.814 24.903 7.817 24.747 7.823C24.591 7.829 24.456 7.838 24.342 7.85V6.689ZM34.377 5.915C34.455 5.921 34.56 5.93 34.692 5.942C34.824 5.948 34.962 5.954 35.106 5.96C35.25 5.96 35.379 5.96 35.493 5.96C35.637 5.96 35.823 5.96 36.051 5.96C36.279 5.96 36.525 5.96 36.789 5.96C37.059 5.96 37.326 5.96 37.59 5.96C37.854 5.96 38.1 5.96 38.328 5.96C38.556 5.96 38.745 5.96 38.895 5.96C39.003 5.96 39.126 5.96 39.264 5.96C39.408 5.954 39.516 5.948 39.588 5.942C39.582 6.002 39.579 6.095 39.579 6.221C39.579 6.341 39.579 6.449 39.579 6.545C39.579 6.611 39.579 6.749 39.579 6.959C39.579 7.163 39.579 7.415 39.579 7.715C39.579 8.015 39.579 8.333 39.579 8.669C39.579 9.005 39.579 9.335 39.579 9.659C39.579 9.977 39.579 10.262 39.579 10.514C39.579 10.76 39.579 10.943 39.579 11.063C39.579 11.135 39.579 11.234 39.579 11.36C39.585 11.492 39.588 11.597 39.588 11.675H38.454C38.46 11.597 38.463 11.489 38.463 11.351C38.463 11.213 38.463 11.099 38.463 11.009C38.463 10.853 38.463 10.655 38.463 10.415C38.463 10.169 38.463 9.905 38.463 9.623C38.463 9.335 38.463 9.047 38.463 8.759C38.463 8.465 38.463 8.192 38.463 7.94C38.463 7.688 38.463 7.478 38.463 7.31C38.463 7.136 38.463 7.022 38.463 6.968C38.409 6.968 38.313 6.968 38.175 6.968C38.037 6.968 37.878 6.968 37.698 6.968C37.518 6.968 37.323 6.968 37.113 6.968C36.909 6.968 36.705 6.968 36.501 6.968C36.303 6.968 36.114 6.968 35.934 6.968C35.76 6.968 35.613 6.968 35.493 6.968C35.379 6.968 35.25 6.971 35.106 6.977C34.962 6.977 34.821 6.98 34.683 6.986C34.551 6.992 34.449 6.998 34.377 7.004V5.915ZM34.611 8.03C34.731 8.036 34.881 8.042 35.061 8.048C35.247 8.054 35.424 8.057 35.592 8.057C35.664 8.057 35.79 8.057 35.97 8.057C36.156 8.057 36.369 8.057 36.609 8.057C36.855 8.057 37.107 8.057 37.365 8.057C37.623 8.057 37.866 8.057 38.094 8.057C38.328 8.057 38.526 8.057 38.688 8.057C38.85 8.057 38.949 8.057 38.985 8.057V9.074C38.943 9.074 38.841 9.074 38.679 9.074C38.523 9.074 38.328 9.074 38.094 9.074C37.866 9.074 37.623 9.074 37.365 9.074C37.107 9.074 36.855 9.074 36.609 9.074C36.369 9.074 36.159 9.074 35.979 9.074C35.799 9.074 35.67 9.074 35.592 9.074C35.424 9.074 35.244 9.077 35.052 9.083C34.866 9.083 34.719 9.086 34.611 9.092V8.03ZM34.278 10.235C34.356 10.241 34.464 10.25 34.602 10.262C34.74 10.268 34.893 10.271 35.061 10.271C35.151 10.271 35.301 10.271 35.511 10.271C35.721 10.271 35.961 10.271 36.231 10.271C36.507 10.271 36.792 10.271 37.086 10.271C37.38 10.271 37.659 10.271 37.923 10.271C38.193 10.271 38.424 10.271 38.616 10.271C38.808 10.271 38.934 10.271 38.994 10.271V11.315C38.916 11.315 38.778 11.315 38.58 11.315C38.382 11.315 38.148 11.315 37.878 11.315C37.614 11.315 37.338 11.315 37.05 11.315C36.762 11.315 36.483 11.315 36.213 11.315C35.943 11.315 35.703 11.315 35.493 11.315C35.289 11.315 35.142 11.315 35.052 11.315C34.926 11.315 34.785 11.318 34.629 11.324C34.473 11.33 34.356 11.336 34.278 11.342V10.235ZM48.255 4.25C48.255 4.388 48.303 4.505 48.399 4.601C48.495 4.691 48.612 4.736 48.75 4.736C48.882 4.736 48.996 4.691 49.092 4.601C49.188 4.505 49.236 4.388 49.236 4.25C49.236 4.118 49.188 4.004 49.092 3.908C48.996 3.812 48.882 3.764 48.75 3.764C48.612 3.764 48.495 3.812 48.399 3.908C48.303 4.004 48.255 4.118 48.255 4.25ZM47.706 4.25C47.706 4.058 47.751 3.884 47.841 3.728C47.937 3.572 48.063 3.446 48.219 3.35C48.381 3.254 48.558 3.206 48.75 3.206C48.942 3.206 49.116 3.254 49.272 3.35C49.428 3.446 49.551 3.572 49.641 3.728C49.737 3.884 49.785 4.058 49.785 4.25C49.785 4.442 49.737 4.619 49.641 4.781C49.551 4.937 49.428 5.063 49.272 5.159C49.116 5.249 48.942 5.294 48.75 5.294C48.558 5.294 48.381 5.249 48.219 5.159C48.063 5.063 47.937 4.937 47.841 4.781C47.751 4.619 47.706 4.442 47.706 4.25ZM46.464 3.899C46.458 3.941 46.449 4.01 46.437 4.106C46.425 4.202 46.413 4.304 46.401 4.412C46.389 4.514 46.383 4.604 46.383 4.682C46.383 4.862 46.383 5.06 46.383 5.276C46.383 5.492 46.383 5.708 46.383 5.924C46.383 6.134 46.383 6.326 46.383 6.5C46.383 6.62 46.383 6.788 46.383 7.004C46.383 7.22 46.383 7.463 46.383 7.733C46.383 8.003 46.383 8.285 46.383 8.579C46.383 8.867 46.383 9.149 46.383 9.425C46.383 9.695 46.383 9.941 46.383 10.163C46.383 10.379 46.383 10.55 46.383 10.676C46.383 10.934 46.305 11.138 46.149 11.288C45.999 11.444 45.765 11.522 45.447 11.522C45.285 11.522 45.12 11.519 44.952 11.513C44.784 11.507 44.619 11.498 44.457 11.486C44.295 11.474 44.136 11.459 43.98 11.441L43.872 10.325C44.064 10.361 44.25 10.388 44.43 10.406C44.616 10.424 44.763 10.433 44.871 10.433C44.991 10.433 45.075 10.409 45.123 10.361C45.171 10.307 45.198 10.223 45.204 10.109C45.204 10.055 45.204 9.938 45.204 9.758C45.21 9.578 45.213 9.365 45.213 9.119C45.213 8.873 45.213 8.612 45.213 8.336C45.213 8.06 45.213 7.796 45.213 7.544C45.213 7.292 45.213 7.073 45.213 6.887C45.213 6.701 45.213 6.572 45.213 6.5C45.213 6.392 45.213 6.23 45.213 6.014C45.213 5.792 45.213 5.558 45.213 5.312C45.213 5.066 45.213 4.856 45.213 4.682C45.213 4.562 45.204 4.421 45.186 4.259C45.168 4.091 45.15 3.971 45.132 3.899H46.464ZM42.054 5.33C42.192 5.348 42.336 5.366 42.486 5.384C42.636 5.396 42.783 5.402 42.927 5.402C42.999 5.402 43.143 5.402 43.359 5.402C43.581 5.402 43.845 5.402 44.151 5.402C44.457 5.402 44.784 5.402 45.132 5.402C45.486 5.402 45.84 5.402 46.194 5.402C46.554 5.402 46.887 5.402 47.193 5.402C47.505 5.402 47.775 5.402 48.003 5.402C48.231 5.402 48.39 5.402 48.48 5.402C48.606 5.402 48.753 5.396 48.921 5.384C49.095 5.372 49.245 5.357 49.371 5.339V6.518C49.233 6.506 49.083 6.5 48.921 6.5C48.759 6.494 48.615 6.491 48.489 6.491C48.399 6.491 48.24 6.491 48.012 6.491C47.79 6.491 47.523 6.491 47.211 6.491C46.905 6.491 46.575 6.491 46.221 6.491C45.867 6.491 45.513 6.491 45.159 6.491C44.805 6.491 44.475 6.491 44.169 6.491C43.863 6.491 43.599 6.491 43.377 6.491C43.161 6.491 43.011 6.491 42.927 6.491C42.795 6.491 42.648 6.494 42.486 6.5C42.33 6.506 42.186 6.515 42.054 6.527V5.33ZM44.349 7.769C44.247 7.973 44.124 8.192 43.98 8.426C43.836 8.66 43.68 8.894 43.512 9.128C43.35 9.362 43.191 9.581 43.035 9.785C42.879 9.983 42.738 10.148 42.612 10.28L41.64 9.614C41.79 9.476 41.943 9.314 42.099 9.128C42.261 8.936 42.417 8.735 42.567 8.525C42.723 8.315 42.864 8.105 42.99 7.895C43.122 7.685 43.236 7.484 43.332 7.292L44.349 7.769ZM48.219 7.265C48.333 7.409 48.459 7.58 48.597 7.778C48.741 7.976 48.885 8.189 49.029 8.417C49.173 8.639 49.308 8.858 49.434 9.074C49.56 9.284 49.668 9.47 49.758 9.632L48.696 10.208C48.6 10.016 48.489 9.809 48.363 9.587C48.243 9.365 48.117 9.143 47.985 8.921C47.853 8.699 47.721 8.492 47.589 8.3C47.463 8.102 47.346 7.934 47.238 7.796L48.219 7.265ZM50.658 7.499C51.468 7.289 52.2 7.046 52.854 6.77C53.514 6.488 54.093 6.194 54.591 5.888C54.903 5.696 55.215 5.477 55.527 5.231C55.845 4.979 56.142 4.721 56.418 4.457C56.7 4.193 56.937 3.941 57.129 3.701L58.101 4.628C57.825 4.898 57.522 5.171 57.192 5.447C56.868 5.723 56.529 5.987 56.175 6.239C55.821 6.491 55.47 6.722 55.122 6.932C54.78 7.13 54.396 7.334 53.97 7.544C53.55 7.754 53.106 7.952 52.638 8.138C52.17 8.324 51.699 8.489 51.225 8.633L50.658 7.499ZM54.402 6.464L55.68 6.167V10.217C55.68 10.349 55.683 10.493 55.689 10.649C55.695 10.805 55.704 10.949 55.716 11.081C55.728 11.219 55.743 11.324 55.761 11.396H54.339C54.351 11.324 54.36 11.219 54.366 11.081C54.378 10.949 54.387 10.805 54.393 10.649C54.399 10.493 54.402 10.349 54.402 10.217V6.464ZM61.089 4.16C61.245 4.268 61.428 4.4 61.638 4.556C61.848 4.712 62.064 4.883 62.286 5.069C62.514 5.249 62.727 5.426 62.925 5.6C63.123 5.774 63.285 5.93 63.411 6.068L62.493 7.004C62.379 6.878 62.229 6.728 62.043 6.554C61.857 6.38 61.656 6.2 61.44 6.014C61.224 5.828 61.011 5.651 60.801 5.483C60.591 5.315 60.405 5.174 60.243 5.06L61.089 4.16ZM59.964 10.154C60.432 10.088 60.873 9.995 61.287 9.875C61.701 9.755 62.085 9.617 62.439 9.461C62.793 9.305 63.117 9.143 63.411 8.975C63.921 8.669 64.389 8.321 64.815 7.931C65.241 7.541 65.613 7.136 65.931 6.716C66.249 6.29 66.501 5.876 66.687 5.474L67.389 6.743C67.161 7.145 66.879 7.547 66.543 7.949C66.213 8.351 65.838 8.735 65.418 9.101C64.998 9.461 64.545 9.785 64.059 10.073C63.753 10.259 63.423 10.436 63.069 10.604C62.715 10.766 62.34 10.91 61.944 11.036C61.554 11.168 61.146 11.27 60.72 11.342L59.964 10.154ZM70.566 10.136C70.566 10.022 70.566 9.836 70.566 9.578C70.566 9.314 70.566 9.011 70.566 8.669C70.566 8.321 70.566 7.958 70.566 7.58C70.566 7.202 70.566 6.839 70.566 6.491C70.566 6.137 70.566 5.825 70.566 5.555C70.566 5.285 70.566 5.087 70.566 4.961C70.566 4.805 70.557 4.625 70.539 4.421C70.527 4.217 70.506 4.037 70.476 3.881H71.88C71.862 4.037 71.844 4.211 71.826 4.403C71.808 4.589 71.799 4.775 71.799 4.961C71.799 5.129 71.799 5.357 71.799 5.645C71.799 5.933 71.799 6.254 71.799 6.608C71.799 6.956 71.799 7.313 71.799 7.679C71.799 8.039 71.799 8.387 71.799 8.723C71.799 9.059 71.799 9.353 71.799 9.605C71.799 9.851 71.799 10.028 71.799 10.136C71.799 10.22 71.802 10.34 71.808 10.496C71.814 10.646 71.826 10.802 71.844 10.964C71.862 11.126 71.874 11.27 71.88 11.396H70.476C70.5 11.216 70.521 11.006 70.539 10.766C70.557 10.526 70.566 10.316 70.566 10.136ZM71.529 6.212C71.829 6.29 72.165 6.392 72.537 6.518C72.909 6.638 73.284 6.767 73.662 6.905C74.04 7.043 74.394 7.181 74.724 7.319C75.06 7.451 75.339 7.574 75.561 7.688L75.048 8.93C74.796 8.798 74.517 8.666 74.211 8.534C73.905 8.396 73.593 8.264 73.275 8.138C72.963 8.012 72.654 7.895 72.348 7.787C72.048 7.679 71.775 7.583 71.529 7.499V6.212ZM81.06 6.356C80.82 6.356 80.616 6.275 80.448 6.113C80.286 5.951 80.205 5.753 80.205 5.519C80.205 5.267 80.286 5.063 80.448 4.907C80.616 4.745 80.82 4.664 81.06 4.664C81.3 4.664 81.501 4.745 81.663 4.907C81.831 5.063 81.915 5.267 81.915 5.519C81.915 5.753 81.831 5.951 81.663 6.113C81.501 6.275 81.3 6.356 81.06 6.356ZM81.06 10.649C80.82 10.649 80.616 10.568 80.448 10.406C80.286 10.244 80.205 10.046 80.205 9.812C80.205 9.56 80.286 9.356 80.448 9.2C80.616 9.038 80.82 8.957 81.06 8.957C81.3 8.957 81.501 9.038 81.663 9.2C81.831 9.356 81.915 9.56 81.915 9.812C81.915 10.046 81.831 10.244 81.663 10.406C81.501 10.568 81.3 10.649 81.06 10.649ZM89.07 11H87.603V7.283C87.603 7.181 87.603 7.055 87.603 6.905C87.609 6.755 87.612 6.599 87.612 6.437C87.618 6.275 87.624 6.131 87.63 6.005C87.582 6.041 87.519 6.107 87.441 6.203C87.369 6.299 87.294 6.38 87.216 6.446L86.541 7.04L85.803 6.221L87.81 4.574H89.07V11ZM94.6855 7.787C94.6855 8.303 94.6465 8.765 94.5685 9.173C94.4965 9.581 94.3735 9.929 94.1995 10.217C94.0255 10.499 93.8035 10.715 93.5335 10.865C93.2635 11.015 92.9305 11.09 92.5345 11.09C92.0425 11.09 91.6375 10.958 91.3195 10.694C91.0015 10.43 90.7675 10.052 90.6175 9.56C90.4675 9.068 90.3925 8.477 90.3925 7.787C90.3925 7.091 90.4615 6.497 90.5995 6.005C90.7375 5.513 90.9625 5.135 91.2745 4.871C91.5925 4.607 92.0125 4.475 92.5345 4.475C93.0265 4.475 93.4315 4.607 93.7495 4.871C94.0675 5.129 94.3015 5.507 94.4515 6.005C94.6075 6.497 94.6855 7.091 94.6855 7.787ZM91.8415 7.787C91.8415 8.273 91.8595 8.681 91.8955 9.011C91.9375 9.335 92.0095 9.581 92.1115 9.749C92.2135 9.911 92.3545 9.992 92.5345 9.992C92.7145 9.992 92.8525 9.911 92.9485 9.749C93.0505 9.587 93.1225 9.344 93.1645 9.02C93.2125 8.69 93.2365 8.279 93.2365 7.787C93.2365 7.295 93.2125 6.887 93.1645 6.563C93.1225 6.233 93.0505 5.987 92.9485 5.825C92.8525 5.657 92.7145 5.573 92.5345 5.573C92.3545 5.573 92.2135 5.657 92.1115 5.825C92.0095 5.987 91.9375 6.233 91.8955 6.563C91.8595 6.887 91.8415 7.295 91.8415 7.787ZM99.401 7.787C99.401 8.303 99.362 8.765 99.284 9.173C99.212 9.581 99.089 9.929 98.915 10.217C98.741 10.499 98.519 10.715 98.249 10.865C97.979 11.015 97.646 11.09 97.25 11.09C96.758 11.09 96.353 10.958 96.035 10.694C95.717 10.43 95.483 10.052 95.333 9.56C95.183 9.068 95.108 8.477 95.108 7.787C95.108 7.091 95.177 6.497 95.315 6.005C95.453 5.513 95.678 5.135 95.99 4.871C96.308 4.607 96.728 4.475 97.25 4.475C97.742 4.475 98.147 4.607 98.465 4.871C98.783 5.129 99.017 5.507 99.167 6.005C99.323 6.497 99.401 7.091 99.401 7.787ZM96.557 7.787C96.557 8.273 96.575 8.681 96.611 9.011C96.653 9.335 96.725 9.581 96.827 9.749C96.929 9.911 97.07 9.992 97.25 9.992C97.43 9.992 97.568 9.911 97.664 9.749C97.766 9.587 97.838 9.344 97.88 9.02C97.928 8.69 97.952 8.279 97.952 7.787C97.952 7.295 97.928 6.887 97.88 6.563C97.838 6.233 97.766 5.987 97.664 5.825C97.568 5.657 97.43 5.573 97.25 5.573C97.07 5.573 96.929 5.657 96.827 5.825C96.725 5.987 96.653 6.233 96.611 6.563C96.575 6.887 96.557 7.295 96.557 7.787ZM102.857 5.996C103.373 5.996 103.784 6.212 104.09 6.644C104.402 7.07 104.558 7.7 104.558 8.534C104.558 9.092 104.483 9.563 104.333 9.947C104.183 10.325 103.976 10.61 103.712 10.802C103.448 10.994 103.145 11.09 102.803 11.09C102.587 11.09 102.401 11.06 102.245 11C102.089 10.94 101.957 10.862 101.849 10.766C101.747 10.67 101.657 10.568 101.579 10.46H101.516C101.534 10.574 101.549 10.694 101.561 10.82C101.573 10.94 101.579 11.06 101.579 11.18V13.16H100.139V6.086H101.309L101.516 6.725H101.579C101.657 6.593 101.753 6.473 101.867 6.365C101.981 6.251 102.119 6.161 102.281 6.095C102.443 6.029 102.635 5.996 102.857 5.996ZM102.344 7.067C102.158 7.067 102.008 7.115 101.894 7.211C101.78 7.307 101.699 7.454 101.651 7.652C101.603 7.844 101.579 8.087 101.579 8.381V8.525C101.579 8.843 101.603 9.113 101.651 9.335C101.699 9.551 101.78 9.716 101.894 9.83C102.008 9.944 102.164 10.001 102.362 10.001C102.524 10.001 102.659 9.944 102.767 9.83C102.875 9.716 102.956 9.548 103.01 9.326C103.064 9.104 103.091 8.834 103.091 8.516C103.091 8.036 103.028 7.676 102.902 7.436C102.782 7.19 102.596 7.067 102.344 7.067ZM107.47 10.019C107.614 10.019 107.746 10.004 107.866 9.974C107.992 9.944 108.121 9.908 108.253 9.866V10.865C108.103 10.925 107.926 10.976 107.722 11.018C107.524 11.066 107.29 11.09 107.02 11.09C106.732 11.09 106.474 11.042 106.246 10.946C106.024 10.85 105.85 10.685 105.724 10.451C105.598 10.211 105.535 9.881 105.535 9.461V7.094H104.95V6.527L105.652 6.077L106.048 5.042H106.975V6.086H108.199V7.094H106.975V9.461C106.975 9.647 107.02 9.788 107.11 9.884C107.2 9.974 107.32 10.019 107.47 10.019Z" fill="#FA9289"/>
</svg>
