<svg width="154" height="25" viewBox="0 0 154 25" fill="none" xmlns="http://www.w3.org/2000/svg">
<rect x="0.5" y="0.5" width="152.923" height="23.5385" rx="9.5" fill="white" stroke="#1B6AAC"/>
<path d="M31.9987 15.945L32.2957 13.514H30.5137V12.81H32.3837L32.6587 10.555H30.8107V9.851H32.7247L33.0107 7.673H33.6597L33.3847 9.851H35.4637L35.7497 7.673H36.3877L36.1127 9.851H37.9057V10.555H36.0467L35.7717 12.81H37.6197V13.514H35.6837L35.3977 15.945H34.7377L35.0237 13.514H32.9557L32.6587 15.945H31.9987ZM33.0327 12.81H35.1117L35.3867 10.555H33.3077L33.0327 12.81ZM43.9887 7.211C43.974 7.277 43.963 7.354 43.9557 7.442C43.9484 7.52267 43.941 7.61067 43.9337 7.706C43.9264 7.80133 43.919 7.88933 43.9117 7.97C43.9044 8.13867 43.8934 8.35867 43.8787 8.63C43.8714 8.90133 43.864 9.202 43.8567 9.532C43.8494 9.85467 43.842 10.1847 43.8347 10.522C43.8274 10.852 43.8237 11.16 43.8237 11.446C43.8237 11.732 43.8237 12.0473 43.8237 12.392C43.831 12.7293 43.8384 13.0667 43.8457 13.404C43.8604 13.734 43.8677 14.042 43.8677 14.328C43.875 14.6067 43.8787 14.8303 43.8787 14.999C43.8787 15.3363 43.8384 15.604 43.7577 15.802C43.677 16 43.5634 16.1393 43.4167 16.22C43.2774 16.308 43.1087 16.352 42.9107 16.352C42.698 16.352 42.4597 16.3007 42.1957 16.198C41.9317 16.1027 41.6787 15.9707 41.4367 15.802C41.202 15.6333 41.0077 15.439 40.8537 15.219C40.6997 14.999 40.6227 14.768 40.6227 14.526C40.6227 14.196 40.7474 13.8733 40.9967 13.558C41.2534 13.2427 41.5834 12.9493 41.9867 12.678C42.3974 12.4067 42.83 12.1867 43.2847 12.018C43.7834 11.82 44.293 11.6733 44.8137 11.578C45.3344 11.4753 45.811 11.424 46.2437 11.424C46.779 11.424 47.252 11.5157 47.6627 11.699C48.0807 11.8823 48.407 12.139 48.6417 12.469C48.8837 12.7917 49.0047 13.173 49.0047 13.613C49.0047 14.053 48.913 14.4417 48.7297 14.779C48.5537 15.1163 48.2897 15.3987 47.9377 15.626C47.593 15.8533 47.1677 16.0293 46.6617 16.154C46.4197 16.2053 46.1777 16.2383 45.9357 16.253C45.701 16.275 45.4884 16.2933 45.2977 16.308L44.9897 15.417C45.195 15.4243 45.4077 15.4243 45.6277 15.417C45.855 15.4097 46.0714 15.384 46.2767 15.34C46.5994 15.2813 46.9 15.1823 47.1787 15.043C47.4647 14.8963 47.692 14.7057 47.8607 14.471C48.0367 14.2363 48.1247 13.954 48.1247 13.624C48.1247 13.3087 48.0404 13.0447 47.8717 12.832C47.703 12.6193 47.4757 12.458 47.1897 12.348C46.9037 12.238 46.5847 12.183 46.2327 12.183C45.7487 12.183 45.2757 12.2343 44.8137 12.337C44.3517 12.4397 43.8824 12.5863 43.4057 12.777C43.0537 12.909 42.731 13.074 42.4377 13.272C42.1444 13.4627 41.9097 13.6643 41.7337 13.877C41.565 14.0897 41.4807 14.2913 41.4807 14.482C41.4807 14.6067 41.521 14.7277 41.6017 14.845C41.6897 14.955 41.796 15.054 41.9207 15.142C42.0454 15.23 42.1774 15.2997 42.3167 15.351C42.456 15.395 42.577 15.417 42.6797 15.417C42.8044 15.417 42.8997 15.373 42.9657 15.285C43.039 15.197 43.0757 15.0613 43.0757 14.878C43.0757 14.6653 43.072 14.372 43.0647 13.998C43.0574 13.6167 43.05 13.206 43.0427 12.766C43.0354 12.3187 43.0317 11.8933 43.0317 11.49C43.0317 11.1747 43.0317 10.8373 43.0317 10.478C43.039 10.1187 43.0427 9.77033 43.0427 9.433C43.05 9.09567 43.0537 8.79867 43.0537 8.542C43.061 8.28533 43.0647 8.102 43.0647 7.992C43.0647 7.91867 43.061 7.83433 43.0537 7.739C43.0537 7.63633 43.05 7.53733 43.0427 7.442C43.0354 7.34667 43.0244 7.26967 43.0097 7.211H43.9887ZM47.3987 8.432C47.6627 8.57133 47.956 8.74 48.2787 8.938C48.6014 9.12867 48.9094 9.323 49.2027 9.521C49.5034 9.719 49.7417 9.89133 49.9177 10.038L49.4667 10.742C49.3347 10.61 49.166 10.4707 48.9607 10.324C48.7554 10.17 48.5354 10.0197 48.3007 9.873C48.066 9.719 47.835 9.576 47.6077 9.444C47.3804 9.30467 47.1787 9.18733 47.0027 9.092L47.3987 8.432ZM40.7987 9.191C41.0994 9.22767 41.356 9.25333 41.5687 9.268C41.7887 9.27533 42.0014 9.279 42.2067 9.279C42.478 9.279 42.7824 9.26433 43.1197 9.235C43.457 9.20567 43.8054 9.169 44.1647 9.125C44.524 9.07367 44.8724 9.015 45.2097 8.949C45.5544 8.87567 45.8624 8.79867 46.1337 8.718L46.1557 9.576C45.8697 9.642 45.5507 9.708 45.1987 9.774C44.8467 9.83267 44.4874 9.884 44.1207 9.928C43.7614 9.972 43.4167 10.0087 43.0867 10.038C42.7567 10.0673 42.4707 10.082 42.2287 10.082C41.9134 10.082 41.6457 10.0783 41.4257 10.071C41.213 10.0637 41.0114 10.049 40.8207 10.027L40.7987 9.191ZM57.1447 7.288C57.1447 7.32467 57.1374 7.39067 57.1227 7.486C57.1154 7.58133 57.108 7.67667 57.1007 7.772C57.1007 7.86 57.097 7.92967 57.0897 7.981C57.0824 8.12033 57.0787 8.311 57.0787 8.553C57.0787 8.795 57.0787 9.059 57.0787 9.345C57.0787 9.631 57.0787 9.92067 57.0787 10.214C57.086 10.5073 57.0897 10.7823 57.0897 11.039C57.097 11.2957 57.1007 11.512 57.1007 11.688L56.2537 11.27C56.2537 11.1673 56.2537 11.0133 56.2537 10.808C56.2537 10.5953 56.2537 10.3533 56.2537 10.082C56.2537 9.80333 56.25 9.52833 56.2427 9.257C56.2427 8.98567 56.239 8.73633 56.2317 8.509C56.2244 8.28167 56.217 8.10567 56.2097 7.981C56.2024 7.83433 56.1914 7.695 56.1767 7.563C56.162 7.42367 56.151 7.332 56.1437 7.288H57.1447ZM51.3037 8.817C51.6044 8.817 51.9454 8.81333 52.3267 8.806C52.708 8.79133 53.1114 8.77667 53.5367 8.762C53.9694 8.74733 54.4057 8.73633 54.8457 8.729C55.2857 8.72167 55.7074 8.71433 56.1107 8.707C56.5214 8.69967 56.899 8.696 57.2437 8.696C57.5737 8.696 57.9037 8.696 58.2337 8.696C58.5637 8.696 58.8717 8.696 59.1577 8.696C59.451 8.696 59.7077 8.69967 59.9277 8.707C60.155 8.707 60.3347 8.707 60.4667 8.707L60.4557 9.521C60.1477 9.50633 59.7334 9.49533 59.2127 9.488C58.6994 9.47333 58.0394 9.466 57.2327 9.466C56.756 9.466 56.2574 9.47333 55.7367 9.488C55.2234 9.49533 54.7064 9.50633 54.1857 9.521C53.665 9.53567 53.159 9.55767 52.6677 9.587C52.1837 9.609 51.7364 9.63467 51.3257 9.664L51.3037 8.817ZM57.0787 12.018C57.0787 12.502 57.0054 12.909 56.8587 13.239C56.7194 13.569 56.5214 13.8147 56.2647 13.976C56.0154 14.1373 55.722 14.218 55.3847 14.218C55.1574 14.218 54.9337 14.1813 54.7137 14.108C54.501 14.0273 54.3067 13.91 54.1307 13.756C53.962 13.5947 53.8264 13.4003 53.7237 13.173C53.6284 12.9383 53.5807 12.6743 53.5807 12.381C53.5807 12.0143 53.6687 11.688 53.8447 11.402C54.0207 11.116 54.2554 10.8887 54.5487 10.72C54.8494 10.5513 55.172 10.467 55.5167 10.467C55.9494 10.467 56.305 10.566 56.5837 10.764C56.8697 10.9547 57.086 11.2187 57.2327 11.556C57.3794 11.886 57.4527 12.2637 57.4527 12.689C57.4527 13.0557 57.3977 13.4297 57.2877 13.811C57.185 14.1923 57.009 14.559 56.7597 14.911C56.5177 15.263 56.184 15.5857 55.7587 15.879C55.3407 16.165 54.809 16.4033 54.1637 16.594L53.4267 15.868C53.9254 15.7507 54.3727 15.6003 54.7687 15.417C55.1647 15.2337 55.4984 15.01 55.7697 14.746C56.041 14.482 56.2464 14.174 56.3857 13.822C56.5324 13.47 56.6057 13.0667 56.6057 12.612C56.6057 12.1133 56.4994 11.754 56.2867 11.534C56.074 11.314 55.8174 11.204 55.5167 11.204C55.326 11.204 55.1464 11.2517 54.9777 11.347C54.809 11.435 54.6697 11.567 54.5597 11.743C54.457 11.919 54.4057 12.128 54.4057 12.37C54.4057 12.7147 54.5157 12.9823 54.7357 13.173C54.963 13.3637 55.227 13.459 55.5277 13.459C55.755 13.459 55.9494 13.3967 56.1107 13.272C56.272 13.14 56.3857 12.9457 56.4517 12.689C56.525 12.425 56.5324 12.0987 56.4737 11.71L57.0787 12.018ZM67.9247 7.288C67.9247 7.32467 67.9174 7.39067 67.9027 7.486C67.8954 7.58133 67.888 7.67667 67.8807 7.772C67.8807 7.86 67.877 7.92967 67.8697 7.981C67.8624 8.12033 67.8587 8.311 67.8587 8.553C67.8587 8.795 67.8587 9.059 67.8587 9.345C67.8587 9.631 67.8587 9.92067 67.8587 10.214C67.866 10.5073 67.8697 10.7823 67.8697 11.039C67.877 11.2957 67.8807 11.512 67.8807 11.688L67.0337 11.27C67.0337 11.1673 67.0337 11.0133 67.0337 10.808C67.0337 10.5953 67.0337 10.3533 67.0337 10.082C67.0337 9.80333 67.03 9.52833 67.0227 9.257C67.0227 8.98567 67.019 8.73633 67.0117 8.509C67.0044 8.28167 66.997 8.10567 66.9897 7.981C66.9824 7.83433 66.9714 7.695 66.9567 7.563C66.942 7.42367 66.931 7.332 66.9237 7.288H67.9247ZM62.0837 8.817C62.3844 8.817 62.7254 8.81333 63.1067 8.806C63.488 8.79133 63.8914 8.77667 64.3167 8.762C64.7494 8.74733 65.1857 8.73633 65.6257 8.729C66.0657 8.72167 66.4874 8.71433 66.8907 8.707C67.3014 8.69967 67.679 8.696 68.0237 8.696C68.3537 8.696 68.6837 8.696 69.0137 8.696C69.3437 8.696 69.6517 8.696 69.9377 8.696C70.231 8.696 70.4877 8.69967 70.7077 8.707C70.935 8.707 71.1147 8.707 71.2467 8.707L71.2357 9.521C70.9277 9.50633 70.5134 9.49533 69.9927 9.488C69.4794 9.47333 68.8194 9.466 68.0127 9.466C67.536 9.466 67.0374 9.47333 66.5167 9.488C66.0034 9.49533 65.4864 9.50633 64.9657 9.521C64.445 9.53567 63.939 9.55767 63.4477 9.587C62.9637 9.609 62.5164 9.63467 62.1057 9.664L62.0837 8.817ZM67.8587 12.018C67.8587 12.502 67.7854 12.909 67.6387 13.239C67.4994 13.569 67.3014 13.8147 67.0447 13.976C66.7954 14.1373 66.502 14.218 66.1647 14.218C65.9374 14.218 65.7137 14.1813 65.4937 14.108C65.281 14.0273 65.0867 13.91 64.9107 13.756C64.742 13.5947 64.6064 13.4003 64.5037 13.173C64.4084 12.9383 64.3607 12.6743 64.3607 12.381C64.3607 12.0143 64.4487 11.688 64.6247 11.402C64.8007 11.116 65.0354 10.8887 65.3287 10.72C65.6294 10.5513 65.952 10.467 66.2967 10.467C66.7294 10.467 67.085 10.566 67.3637 10.764C67.6497 10.9547 67.866 11.2187 68.0127 11.556C68.1594 11.886 68.2327 12.2637 68.2327 12.689C68.2327 13.0557 68.1777 13.4297 68.0677 13.811C67.965 14.1923 67.789 14.559 67.5397 14.911C67.2977 15.263 66.964 15.5857 66.5387 15.879C66.1207 16.165 65.589 16.4033 64.9437 16.594L64.2067 15.868C64.7054 15.7507 65.1527 15.6003 65.5487 15.417C65.9447 15.2337 66.2784 15.01 66.5497 14.746C66.821 14.482 67.0264 14.174 67.1657 13.822C67.3124 13.47 67.3857 13.0667 67.3857 12.612C67.3857 12.1133 67.2794 11.754 67.0667 11.534C66.854 11.314 66.5974 11.204 66.2967 11.204C66.106 11.204 65.9264 11.2517 65.7577 11.347C65.589 11.435 65.4497 11.567 65.3397 11.743C65.237 11.919 65.1857 12.128 65.1857 12.37C65.1857 12.7147 65.2957 12.9823 65.5157 13.173C65.743 13.3637 66.007 13.459 66.3077 13.459C66.535 13.459 66.7294 13.3967 66.8907 13.272C67.052 13.14 67.1657 12.9457 67.2317 12.689C67.305 12.425 67.3124 12.0987 67.2537 11.71L67.8587 12.018ZM79.1667 7.486C79.1447 7.574 79.1227 7.673 79.1007 7.783C79.0787 7.88567 79.0567 7.98833 79.0347 8.091C79.02 8.19367 79.0017 8.278 78.9797 8.344C78.877 8.806 78.7524 9.28267 78.6057 9.774C78.4664 10.2653 78.3087 10.753 78.1327 11.237C77.9567 11.721 77.766 12.172 77.5607 12.59C77.3627 13.008 77.1537 13.371 76.9337 13.679C76.655 14.0603 76.3727 14.405 76.0867 14.713C75.808 15.0137 75.522 15.2483 75.2287 15.417C74.9354 15.5857 74.62 15.67 74.2827 15.67C74.0114 15.67 73.7584 15.593 73.5237 15.439C73.289 15.285 73.102 15.0613 72.9627 14.768C72.8234 14.4747 72.7537 14.1153 72.7537 13.69C72.7537 13.228 72.838 12.766 73.0067 12.304C73.1827 11.842 73.421 11.4167 73.7217 11.028C74.0297 10.6393 74.3744 10.3167 74.7557 10.06C75.2984 9.686 75.8447 9.422 76.3947 9.268C76.9447 9.114 77.4984 9.037 78.0557 9.037C78.7744 9.037 79.4124 9.18733 79.9697 9.488C80.5344 9.78867 80.9744 10.2103 81.2897 10.753C81.6124 11.2883 81.7737 11.9153 81.7737 12.634C81.7737 13.36 81.6087 13.9943 81.2787 14.537C80.956 15.0723 80.4977 15.505 79.9037 15.835C79.317 16.1577 78.6314 16.374 77.8467 16.484L77.3297 15.703C77.909 15.6517 78.4187 15.5417 78.8587 15.373C79.306 15.2043 79.68 14.9843 79.9807 14.713C80.2814 14.4417 80.5087 14.1263 80.6627 13.767C80.824 13.4077 80.9047 13.019 80.9047 12.601C80.9047 12.0583 80.7837 11.578 80.5417 11.16C80.2997 10.7347 79.955 10.401 79.5077 10.159C79.0677 9.917 78.5544 9.796 77.9677 9.796C77.4324 9.796 76.9227 9.884 76.4387 10.06C75.962 10.2287 75.5074 10.4707 75.0747 10.786C74.7667 11.006 74.499 11.2773 74.2717 11.6C74.0444 11.9227 73.8647 12.26 73.7327 12.612C73.608 12.9567 73.5457 13.294 73.5457 13.624C73.5457 13.9907 73.619 14.2803 73.7657 14.493C73.9197 14.6983 74.1214 14.801 74.3707 14.801C74.5467 14.801 74.7264 14.7497 74.9097 14.647C75.093 14.537 75.2727 14.394 75.4487 14.218C75.6247 14.042 75.7934 13.8477 75.9547 13.635C76.1234 13.415 76.2737 13.195 76.4057 12.975C76.589 12.689 76.7687 12.359 76.9447 11.985C77.1207 11.611 77.2857 11.2113 77.4397 10.786C77.601 10.3533 77.7404 9.92067 77.8577 9.488C77.9824 9.048 78.0814 8.63 78.1547 8.234C78.1767 8.124 78.1914 7.98833 78.1987 7.827C78.2134 7.66567 78.2207 7.52267 78.2207 7.398L79.1667 7.486ZM74.6677 7.981C74.697 8.135 74.73 8.3 74.7667 8.476C74.8107 8.64467 74.851 8.806 74.8877 8.96C74.961 9.224 75.0527 9.521 75.1627 9.851C75.2727 10.181 75.3864 10.511 75.5037 10.841C75.6284 11.171 75.7567 11.4827 75.8887 11.776C76.0207 12.062 76.1454 12.3003 76.2627 12.491C76.4534 12.8137 76.6697 13.1437 76.9117 13.481C77.1537 13.8183 77.4067 14.1117 77.6707 14.361L76.9777 14.933C76.7577 14.6837 76.545 14.4197 76.3397 14.141C76.1344 13.8623 75.929 13.5433 75.7237 13.184C75.5844 12.9713 75.445 12.7147 75.3057 12.414C75.1664 12.106 75.0234 11.776 74.8767 11.424C74.7374 11.072 74.6017 10.7127 74.4697 10.346C74.3377 9.972 74.2204 9.61267 74.1177 9.268C74.0664 9.092 74.0077 8.91967 73.9417 8.751C73.883 8.575 73.8207 8.41733 73.7547 8.278L74.6677 7.981ZM88.4727 8.3H93.0817V9.059H88.4727V8.3ZM90.0567 9.477H90.7717V15.021H90.0567V9.477ZM88.7477 6.749L89.5507 6.914C89.3674 7.684 89.1217 8.41367 88.8137 9.103C88.5057 9.785 88.15 10.3643 87.7467 10.841C87.71 10.7897 87.6514 10.731 87.5707 10.665C87.49 10.5917 87.4094 10.5183 87.3287 10.445C87.248 10.3717 87.1747 10.3167 87.1087 10.28C87.49 9.85467 87.82 9.33033 88.0987 8.707C88.3774 8.08367 88.5937 7.431 88.7477 6.749ZM87.2957 12.524L92.1247 10.247L92.4217 10.929L87.5927 13.195L87.2957 12.524ZM88.2637 10.335H89.0117V15.604C89.0117 15.8167 89.052 15.956 89.1327 16.022C89.2207 16.088 89.415 16.121 89.7157 16.121C89.789 16.121 89.921 16.121 90.1117 16.121C90.3097 16.121 90.526 16.121 90.7607 16.121C90.9954 16.121 91.2154 16.121 91.4207 16.121C91.626 16.121 91.7764 16.121 91.8717 16.121C92.033 16.121 92.154 16.088 92.2347 16.022C92.3154 15.956 92.374 15.8313 92.4107 15.648C92.4474 15.4647 92.473 15.197 92.4877 14.845C92.5757 14.911 92.6857 14.9733 92.8177 15.032C92.957 15.0833 93.0817 15.12 93.1917 15.142C93.1624 15.5747 93.1037 15.912 93.0157 16.154C92.935 16.4033 92.8104 16.5793 92.6417 16.682C92.473 16.7847 92.231 16.836 91.9157 16.836C91.8644 16.836 91.7617 16.836 91.6077 16.836C91.4537 16.836 91.2777 16.836 91.0797 16.836C90.8817 16.836 90.6837 16.836 90.4857 16.836C90.2877 16.836 90.1117 16.836 89.9577 16.836C89.811 16.836 89.7157 16.836 89.6717 16.836C89.305 16.836 89.019 16.7993 88.8137 16.726C88.6084 16.66 88.4654 16.5353 88.3847 16.352C88.304 16.176 88.2637 15.923 88.2637 15.593V10.335ZM91.9377 10.434H91.8387L92.0257 10.269L92.1687 10.159L92.6967 10.368L92.6527 10.489C92.6527 10.885 92.649 11.2627 92.6417 11.622C92.6417 11.9813 92.638 12.3113 92.6307 12.612C92.6307 12.9053 92.627 13.1547 92.6197 13.36C92.6124 13.558 92.6014 13.6937 92.5867 13.767C92.572 13.943 92.5207 14.0787 92.4327 14.174C92.3447 14.2693 92.231 14.3353 92.0917 14.372C91.9744 14.4013 91.835 14.4233 91.6737 14.438C91.5197 14.4453 91.3804 14.4453 91.2557 14.438C91.2484 14.3353 91.23 14.2253 91.2007 14.108C91.1714 13.9833 91.1347 13.877 91.0907 13.789C91.1934 13.7963 91.2997 13.8 91.4097 13.8C91.527 13.8 91.6114 13.8 91.6627 13.8C91.7214 13.8 91.769 13.789 91.8057 13.767C91.8497 13.745 91.879 13.69 91.8937 13.602C91.901 13.5507 91.9084 13.437 91.9157 13.261C91.923 13.0777 91.9267 12.8467 91.9267 12.568C91.9267 12.282 91.9267 11.9593 91.9267 11.6C91.934 11.2333 91.9377 10.8447 91.9377 10.434ZM83.0717 8.553H87.7247V9.334H83.0717V8.553ZM84.6557 10.841H86.5917V11.611H84.6557V10.841ZM85.0077 6.782H85.7997V8.828H85.0077V6.782ZM84.2707 8.993H85.0627C85.048 9.763 85.0224 10.522 84.9857 11.27C84.949 12.018 84.883 12.7367 84.7877 13.426C84.6924 14.1153 84.5457 14.7533 84.3477 15.34C84.157 15.9267 83.9004 16.44 83.5777 16.88C83.5044 16.7847 83.4054 16.682 83.2807 16.572C83.1634 16.4693 83.0534 16.3887 82.9507 16.33C83.244 15.934 83.475 15.4647 83.6437 14.922C83.8197 14.372 83.9517 13.778 84.0397 13.14C84.1277 12.4947 84.1864 11.82 84.2157 11.116C84.245 10.412 84.2634 9.70433 84.2707 8.993ZM86.3167 10.841H87.0757C87.0757 10.841 87.0757 10.8667 87.0757 10.918C87.0757 10.962 87.0757 11.0133 87.0757 11.072C87.0757 11.1307 87.0757 11.1783 87.0757 11.215C87.0537 12.139 87.0317 12.9163 87.0097 13.547C86.995 14.1777 86.9694 14.6947 86.9327 15.098C86.9034 15.5013 86.8667 15.813 86.8227 16.033C86.7787 16.253 86.72 16.4107 86.6467 16.506C86.5587 16.6233 86.467 16.704 86.3717 16.748C86.2764 16.7993 86.1517 16.836 85.9977 16.858C85.873 16.8727 85.7044 16.88 85.4917 16.88C85.279 16.88 85.059 16.8727 84.8317 16.858C84.8244 16.748 84.8024 16.6197 84.7657 16.473C84.729 16.3337 84.6814 16.2163 84.6227 16.121C84.8427 16.1357 85.048 16.143 85.2387 16.143C85.4294 16.1503 85.565 16.154 85.6457 16.154C85.719 16.1613 85.7814 16.154 85.8327 16.132C85.8914 16.1173 85.9427 16.077 85.9867 16.011C86.0454 15.923 86.0967 15.714 86.1407 15.384C86.1847 15.0467 86.2177 14.526 86.2397 13.822C86.269 13.118 86.2947 12.1793 86.3167 11.006V10.841ZM98.8347 7.112H99.6157V8.454C99.6157 8.762 99.579 9.092 99.5057 9.444C99.4324 9.796 99.2967 10.137 99.0987 10.467C98.9007 10.797 98.6037 11.094 98.2077 11.358C98.171 11.2993 98.1124 11.237 98.0317 11.171C97.9584 11.0977 97.8814 11.028 97.8007 10.962C97.7274 10.8887 97.6614 10.8373 97.6027 10.808C97.9547 10.5733 98.2187 10.324 98.3947 10.06C98.5707 9.78867 98.688 9.51367 98.7467 9.235C98.8054 8.95633 98.8347 8.68867 98.8347 8.432V7.112ZM101.508 7.112H102.3V9.807C102.3 9.93167 102.311 10.0123 102.333 10.049C102.362 10.0783 102.421 10.093 102.509 10.093C102.538 10.093 102.589 10.093 102.663 10.093C102.736 10.093 102.813 10.093 102.894 10.093C102.974 10.093 103.033 10.093 103.07 10.093C103.128 10.093 103.172 10.0673 103.202 10.016C103.238 9.96467 103.264 9.85467 103.279 9.686C103.301 9.51 103.312 9.246 103.312 8.894C103.392 8.96 103.502 9.01867 103.642 9.07C103.781 9.12133 103.906 9.16167 104.016 9.191C103.994 9.62367 103.95 9.95733 103.884 10.192C103.825 10.4267 103.737 10.5917 103.62 10.687C103.51 10.775 103.356 10.819 103.158 10.819C103.106 10.819 103.029 10.819 102.927 10.819C102.824 10.819 102.718 10.819 102.608 10.819C102.505 10.819 102.432 10.819 102.388 10.819C102.16 10.819 101.981 10.7897 101.849 10.731C101.724 10.6723 101.636 10.5733 101.585 10.434C101.533 10.2873 101.508 10.082 101.508 9.818V7.112ZM99.4287 12.293C99.8027 13.2463 100.386 14.0603 101.178 14.735C101.977 15.4097 102.93 15.8863 104.038 16.165C103.979 16.2163 103.913 16.286 103.84 16.374C103.774 16.462 103.708 16.55 103.642 16.638C103.583 16.726 103.532 16.803 103.488 16.869C102.351 16.539 101.376 16.0037 100.562 15.263C99.755 14.515 99.1317 13.6057 98.6917 12.535L99.4287 12.293ZM102.509 11.523H102.663L102.806 11.49L103.345 11.699C103.154 12.425 102.883 13.0703 102.531 13.635C102.186 14.1923 101.783 14.6837 101.321 15.109C100.859 15.5343 100.353 15.89 99.8027 16.176C99.26 16.4693 98.6844 16.704 98.0757 16.88C98.0537 16.8067 98.017 16.7223 97.9657 16.627C97.9144 16.539 97.8594 16.451 97.8007 16.363C97.742 16.275 97.6834 16.2053 97.6247 16.154C98.182 16.0073 98.7174 15.8057 99.2307 15.549C99.744 15.2923 100.217 14.9807 100.65 14.614C101.09 14.24 101.467 13.8073 101.783 13.316C102.098 12.8247 102.34 12.2747 102.509 11.666V11.523ZM98.1197 11.523H102.828V12.282H98.1197V11.523ZM99.1647 7.112H101.915V7.849H99.1647V7.112ZM94.3137 10.093H97.5917V10.742H94.3137V10.093ZM94.3577 7.145H97.5697V7.805H94.3577V7.145ZM94.3137 11.556H97.5917V12.216H94.3137V11.556ZM93.7857 8.586H97.9767V9.279H93.7857V8.586ZM94.6987 13.041H97.5807V16.253H94.6987V15.571H96.8547V13.734H94.6987V13.041ZM94.2917 13.041H95.0177V16.759H94.2917V13.041ZM108.845 13.063H113.234V13.69H108.845V13.063ZM107.822 7.618H114.356V8.256H107.822V7.618ZM108.086 8.96H114.081V9.565H108.086V8.96ZM107.492 10.324H114.686V10.962H107.492V10.324ZM108.856 14.526H113.267V15.153H108.856V14.526ZM108.284 11.6H113.223V12.238H109.054V16.869H108.284V11.6ZM113.036 11.6H113.817V15.956C113.817 16.1613 113.787 16.3227 113.729 16.44C113.677 16.5573 113.575 16.6453 113.421 16.704C113.267 16.77 113.061 16.8067 112.805 16.814C112.548 16.8287 112.225 16.836 111.837 16.836C111.822 16.7333 111.789 16.6123 111.738 16.473C111.694 16.341 111.646 16.2237 111.595 16.121C111.873 16.1283 112.13 16.132 112.365 16.132C112.607 16.1393 112.764 16.1393 112.838 16.132C112.97 16.1247 113.036 16.0623 113.036 15.945V11.6ZM110.638 6.76H111.452V10.522H110.638V6.76ZM105.82 6.76H106.568V16.869H105.82V6.76ZM104.951 8.883L105.567 8.96C105.552 9.246 105.523 9.56867 105.479 9.928C105.442 10.28 105.391 10.632 105.325 10.984C105.259 11.336 105.182 11.6513 105.094 11.93L104.445 11.71C104.533 11.4607 104.61 11.171 104.676 10.841C104.742 10.511 104.797 10.1737 104.841 9.829C104.892 9.48433 104.929 9.169 104.951 8.883ZM106.667 8.586L107.217 8.366C107.341 8.61533 107.462 8.89033 107.58 9.191C107.697 9.48433 107.781 9.73 107.833 9.928L107.25 10.214C107.198 10.0013 107.118 9.741 107.008 9.433C106.898 9.125 106.784 8.84267 106.667 8.586ZM121.044 11.006H124.652V11.688H121.044V11.006ZM120.637 7.266H124.564V8.014H121.396V16.891H120.637V7.266ZM124.168 7.266H124.938V9.389C124.938 9.59433 124.908 9.75567 124.85 9.873C124.798 9.99033 124.688 10.082 124.52 10.148C124.351 10.2067 124.124 10.2433 123.838 10.258C123.559 10.2653 123.203 10.269 122.771 10.269C122.756 10.159 122.723 10.038 122.672 9.906C122.628 9.76667 122.576 9.64567 122.518 9.543C122.752 9.55033 122.965 9.55767 123.156 9.565C123.354 9.565 123.522 9.565 123.662 9.565C123.801 9.565 123.896 9.56133 123.948 9.554C124.043 9.54667 124.102 9.532 124.124 9.51C124.153 9.488 124.168 9.44767 124.168 9.389V7.266ZM122.122 11.457C122.32 12.1463 122.587 12.8027 122.925 13.426C123.262 14.042 123.654 14.592 124.102 15.076C124.556 15.56 125.062 15.9377 125.62 16.209C125.524 16.2823 125.422 16.385 125.312 16.517C125.202 16.6563 125.114 16.7773 125.048 16.88C124.483 16.5573 123.97 16.132 123.508 15.604C123.053 15.076 122.653 14.471 122.309 13.789C121.971 13.107 121.693 12.3883 121.473 11.633L122.122 11.457ZM124.399 11.006H124.542L124.685 10.973L125.202 11.16C125.055 11.952 124.835 12.711 124.542 13.437C124.256 14.163 123.893 14.823 123.453 15.417C123.02 16.0037 122.51 16.4987 121.924 16.902C121.858 16.8067 121.77 16.704 121.66 16.594C121.557 16.4913 121.458 16.407 121.363 16.341C121.92 15.9743 122.404 15.5197 122.815 14.977C123.225 14.427 123.563 13.8257 123.827 13.173C124.098 12.5203 124.289 11.8603 124.399 11.193V11.006ZM115.775 7.893H119.856V8.597H115.775V7.893ZM115.654 13.899H119.999V14.614H115.654V13.899ZM115.39 9.708H120.285V10.423H115.39V9.708ZM115.544 11.985H120.142V12.7H115.544V11.985ZM117.469 6.771H118.239V9.961H117.469V6.771ZM117.469 12.293H118.239V16.858H117.469V12.293ZM118.954 10.379L119.669 10.555C119.559 10.819 119.449 11.0867 119.339 11.358C119.236 11.622 119.13 11.8493 119.02 12.04L118.415 11.864C118.473 11.7247 118.536 11.567 118.602 11.391C118.675 11.215 118.741 11.039 118.8 10.863C118.866 10.6797 118.917 10.5183 118.954 10.379ZM116.149 10.555L116.776 10.39C116.908 10.6247 117.021 10.8813 117.117 11.16C117.212 11.4387 117.271 11.6733 117.293 11.864L116.633 12.062C116.611 11.864 116.552 11.6257 116.457 11.347C116.369 11.061 116.266 10.797 116.149 10.555Z" fill="#1B6AAC"/>
</svg>
