<svg width="104" height="16" viewBox="0 0 104 16" fill="none" xmlns="http://www.w3.org/2000/svg">
<rect width="104" height="16" rx="5" fill="#D7E0FF"/>
<path d="M11.4189 6.086C11.9649 6.086 12.3729 6.227 12.6429 6.509C12.9129 6.785 13.0479 7.235 13.0479 7.859V11H12.2649V7.895C12.2649 7.517 12.1839 7.232 12.0219 7.04C11.8659 6.848 11.6199 6.752 11.2839 6.752C10.8159 6.752 10.4799 6.887 10.2759 7.157C10.0779 7.427 9.9789 7.82 9.9789 8.336V11H9.1959V7.895C9.1959 7.643 9.1599 7.433 9.0879 7.265C9.0159 7.091 8.9079 6.962 8.7639 6.878C8.6199 6.794 8.4339 6.752 8.2059 6.752C7.8819 6.752 7.6269 6.821 7.4409 6.959C7.2549 7.091 7.1199 7.286 7.0359 7.544C6.9579 7.802 6.9189 8.12 6.9189 8.498V11H6.1269V6.176H6.7659L6.8829 6.833H6.9279C7.0299 6.665 7.1529 6.527 7.2969 6.419C7.4469 6.305 7.6119 6.221 7.7919 6.167C7.9719 6.113 8.1579 6.086 8.3499 6.086C8.7219 6.086 9.0309 6.152 9.2769 6.284C9.5289 6.416 9.7119 6.62 9.8259 6.896H9.8709C10.0329 6.62 10.2519 6.416 10.5279 6.284C10.8099 6.152 11.1069 6.086 11.4189 6.086ZM13.602 6.176H14.448L15.492 8.921C15.552 9.083 15.606 9.239 15.654 9.389C15.708 9.539 15.756 9.686 15.798 9.83C15.84 9.968 15.873 10.103 15.897 10.235H15.933C15.969 10.085 16.026 9.89 16.104 9.65C16.182 9.404 16.263 9.158 16.347 8.912L17.328 6.176H18.183L16.104 11.666C15.99 11.966 15.855 12.227 15.699 12.449C15.549 12.677 15.363 12.851 15.141 12.971C14.925 13.097 14.661 13.16 14.349 13.16C14.205 13.16 14.079 13.151 13.971 13.133C13.863 13.121 13.77 13.106 13.692 13.088V12.458C13.758 12.47 13.836 12.482 13.926 12.494C14.022 12.506 14.121 12.512 14.223 12.512C14.409 12.512 14.568 12.476 14.7 12.404C14.838 12.338 14.955 12.239 15.051 12.107C15.147 11.981 15.228 11.831 15.294 11.657L15.546 11.018L13.602 6.176ZM20.9079 11H20.0979V5.285H18.0909V4.574H22.9059V5.285H20.9079V11ZM29.1261 7.778C29.1261 8.276 29.0631 8.729 28.9371 9.137C28.8111 9.539 28.6221 9.887 28.3701 10.181C28.1241 10.475 27.8151 10.7 27.4431 10.856C27.0771 11.012 26.6511 11.09 26.1651 11.09C25.6611 11.09 25.2231 11.012 24.8511 10.856C24.4791 10.694 24.1701 10.469 23.9241 10.181C23.6781 9.887 23.4951 9.536 23.3751 9.128C23.2551 8.72 23.1951 8.267 23.1951 7.769C23.1951 7.109 23.3031 6.533 23.5191 6.041C23.7351 5.549 24.0621 5.165 24.5001 4.889C24.9441 4.613 25.5021 4.475 26.1741 4.475C26.8161 4.475 27.3561 4.613 27.7941 4.889C28.2321 5.159 28.5621 5.543 28.7841 6.041C29.0121 6.533 29.1261 7.112 29.1261 7.778ZM24.0501 7.778C24.0501 8.318 24.1251 8.783 24.2751 9.173C24.4251 9.563 24.6561 9.863 24.9681 10.073C25.2861 10.283 25.6851 10.388 26.1651 10.388C26.6511 10.388 27.0471 10.283 27.3531 10.073C27.6651 9.863 27.8961 9.563 28.0461 9.173C28.1961 8.783 28.2711 8.318 28.2711 7.778C28.2711 6.968 28.1031 6.335 27.7671 5.879C27.4311 5.417 26.9001 5.186 26.1741 5.186C25.6881 5.186 25.2861 5.291 24.9681 5.501C24.6561 5.705 24.4251 6.002 24.2751 6.392C24.1251 6.776 24.0501 7.238 24.0501 7.778ZM35.0684 11H34.1144L31.8374 7.931L31.1804 8.507V11H30.3704V4.574H31.1804V7.742C31.3604 7.538 31.5434 7.334 31.7294 7.13C31.9154 6.926 32.1014 6.722 32.2874 6.518L34.0244 4.574H34.9694L32.4224 7.373L35.0684 11ZM37.4366 7.733L39.1106 4.574H39.9836L37.8416 8.507V11H37.0316V8.543L34.8896 4.574H35.7716L37.4366 7.733ZM46.1115 7.778C46.1115 8.276 46.0485 8.729 45.9225 9.137C45.7965 9.539 45.6075 9.887 45.3555 10.181C45.1095 10.475 44.8005 10.7 44.4285 10.856C44.0625 11.012 43.6365 11.09 43.1505 11.09C42.6465 11.09 42.2085 11.012 41.8365 10.856C41.4645 10.694 41.1555 10.469 40.9095 10.181C40.6635 9.887 40.4805 9.536 40.3605 9.128C40.2405 8.72 40.1805 8.267 40.1805 7.769C40.1805 7.109 40.2885 6.533 40.5045 6.041C40.7205 5.549 41.0475 5.165 41.4855 4.889C41.9295 4.613 42.4875 4.475 43.1595 4.475C43.8015 4.475 44.3415 4.613 44.7795 4.889C45.2175 5.159 45.5475 5.543 45.7695 6.041C45.9975 6.533 46.1115 7.112 46.1115 7.778ZM41.0355 7.778C41.0355 8.318 41.1105 8.783 41.2605 9.173C41.4105 9.563 41.6415 9.863 41.9535 10.073C42.2715 10.283 42.6705 10.388 43.1505 10.388C43.6365 10.388 44.0325 10.283 44.3385 10.073C44.6505 9.863 44.8815 9.563 45.0315 9.173C45.1815 8.783 45.2565 8.318 45.2565 7.778C45.2565 6.968 45.0885 6.335 44.7525 5.879C44.4165 5.417 43.8855 5.186 43.1595 5.186C42.6735 5.186 42.2715 5.291 41.9535 5.501C41.6415 5.705 41.4105 6.002 41.2605 6.392C41.1105 6.776 41.0355 7.238 41.0355 7.778ZM50.1458 7.607H52.3688V10.757C52.0208 10.871 51.6698 10.955 51.3158 11.009C50.9618 11.063 50.5598 11.09 50.1098 11.09C49.4438 11.09 48.8828 10.958 48.4268 10.694C47.9708 10.424 47.6228 10.043 47.3828 9.551C47.1488 9.053 47.0318 8.465 47.0318 7.787C47.0318 7.115 47.1638 6.533 47.4278 6.041C47.6918 5.549 48.0698 5.168 48.5618 4.898C49.0598 4.622 49.6598 4.484 50.3618 4.484C50.7218 4.484 51.0608 4.517 51.3788 4.583C51.7028 4.649 52.0028 4.742 52.2788 4.862L51.9728 5.564C51.7448 5.462 51.4868 5.375 51.1988 5.303C50.9168 5.231 50.6228 5.195 50.3168 5.195C49.8068 5.195 49.3688 5.3 49.0028 5.51C48.6368 5.72 48.3578 6.02 48.1658 6.41C47.9738 6.794 47.8778 7.253 47.8778 7.787C47.8778 8.297 47.9588 8.75 48.1208 9.146C48.2888 9.536 48.5498 9.842 48.9038 10.064C49.2578 10.28 49.7228 10.388 50.2988 10.388C50.4908 10.388 50.6588 10.382 50.8028 10.37C50.9528 10.352 51.0878 10.331 51.2078 10.307C51.3338 10.283 51.4508 10.259 51.5588 10.235V8.327H50.1458V7.607ZM57.7556 11L56.9816 9.011H54.4346L53.6696 11H52.8506L55.3616 4.547H56.0906L58.5926 11H57.7556ZM56.0186 6.347C56.0006 6.299 55.9706 6.212 55.9286 6.086C55.8866 5.96 55.8446 5.831 55.8026 5.699C55.7666 5.561 55.7366 5.456 55.7126 5.384C55.6826 5.504 55.6496 5.627 55.6136 5.753C55.5836 5.873 55.5506 5.984 55.5146 6.086C55.4846 6.188 55.4576 6.275 55.4336 6.347L54.7046 8.291H56.7386L56.0186 6.347ZM62.9367 9.281C62.9367 9.665 62.8437 9.992 62.6577 10.262C62.4717 10.526 62.2047 10.73 61.8567 10.874C61.5147 11.018 61.1097 11.09 60.6417 11.09C60.4017 11.09 60.1707 11.078 59.9487 11.054C59.7327 11.03 59.5347 10.997 59.3547 10.955C59.1747 10.907 59.0157 10.85 58.8777 10.784V10.01C59.0937 10.106 59.3607 10.193 59.6787 10.271C60.0027 10.349 60.3357 10.388 60.6777 10.388C60.9957 10.388 61.2627 10.346 61.4787 10.262C61.6947 10.178 61.8567 10.058 61.9647 9.902C62.0727 9.746 62.1267 9.563 62.1267 9.353C62.1267 9.143 62.0817 8.966 61.9917 8.822C61.9017 8.678 61.7457 8.546 61.5237 8.426C61.3077 8.3 61.0047 8.168 60.6147 8.03C60.3387 7.928 60.0957 7.82 59.8857 7.706C59.6817 7.586 59.5107 7.451 59.3727 7.301C59.2347 7.151 59.1297 6.98 59.0577 6.788C58.9917 6.596 58.9587 6.374 58.9587 6.122C58.9587 5.78 59.0457 5.489 59.2197 5.249C59.3937 5.003 59.6337 4.814 59.9397 4.682C60.2517 4.55 60.6087 4.484 61.0107 4.484C61.3647 4.484 61.6887 4.517 61.9827 4.583C62.2767 4.649 62.5437 4.736 62.7837 4.844L62.5317 5.537C62.3097 5.441 62.0667 5.36 61.8027 5.294C61.5447 5.228 61.2747 5.195 60.9927 5.195C60.7227 5.195 60.4977 5.234 60.3177 5.312C60.1377 5.39 60.0027 5.501 59.9127 5.645C59.8227 5.783 59.7777 5.945 59.7777 6.131C59.7777 6.347 59.8227 6.527 59.9127 6.671C60.0027 6.815 60.1497 6.944 60.3537 7.058C60.5577 7.172 60.8337 7.295 61.1817 7.427C61.5597 7.565 61.8777 7.715 62.1357 7.877C62.3997 8.033 62.5977 8.222 62.7297 8.444C62.8677 8.666 62.9367 8.945 62.9367 9.281ZM64.0511 10.739C64.5791 10.721 65.1911 10.703 65.8871 10.685C66.5891 10.661 67.3331 10.634 68.1191 10.604C68.9051 10.574 69.6881 10.541 70.4681 10.505L70.4501 11.126C69.6941 11.162 68.9321 11.198 68.1641 11.234C67.3961 11.27 66.6671 11.3 65.9771 11.324C65.2871 11.354 64.6751 11.381 64.1411 11.405L64.0511 10.739ZM63.9791 7.958H71.4401V8.597H63.9791V7.958ZM65.5181 6.23H69.8111V6.86H65.5181V6.23ZM66.4451 8.363L67.2011 8.579C67.0631 8.861 66.9131 9.161 66.7511 9.479C66.5951 9.791 66.4361 10.094 66.2741 10.388C66.1181 10.682 65.9651 10.943 65.8151 11.171L65.2211 10.964C65.3651 10.73 65.5121 10.46 65.6621 10.154C65.8181 9.848 65.9651 9.539 66.1031 9.227C66.2411 8.909 66.3551 8.621 66.4451 8.363ZM68.5781 9.317L69.1541 9.002C69.4361 9.236 69.7121 9.494 69.9821 9.776C70.2581 10.058 70.5101 10.337 70.7381 10.613C70.9661 10.889 71.1491 11.141 71.2871 11.369L70.6841 11.747C70.5461 11.519 70.3631 11.264 70.1351 10.982C69.9071 10.694 69.6581 10.403 69.3881 10.109C69.1241 9.815 68.8541 9.551 68.5781 9.317ZM67.6421 4.106C67.4021 4.466 67.0841 4.838 66.6881 5.222C66.2981 5.6 65.8631 5.96 65.3831 6.302C64.9091 6.644 64.4171 6.944 63.9071 7.202C63.8771 7.142 63.8381 7.079 63.7901 7.013C63.7481 6.947 63.7001 6.881 63.6461 6.815C63.5981 6.749 63.5501 6.692 63.5021 6.644C64.0241 6.398 64.5251 6.101 65.0051 5.753C65.4911 5.399 65.9291 5.024 66.3191 4.628C66.7151 4.226 67.0271 3.833 67.2551 3.449H67.9571C68.1971 3.785 68.4701 4.109 68.7761 4.421C69.0821 4.727 69.4091 5.015 69.7571 5.285C70.1051 5.555 70.4591 5.798 70.8191 6.014C71.1851 6.224 71.5481 6.401 71.9081 6.545C71.8301 6.629 71.7521 6.728 71.6741 6.842C71.6021 6.95 71.5331 7.052 71.4671 7.148C71.0051 6.926 70.5311 6.653 70.0451 6.329C69.5651 5.999 69.1151 5.642 68.6951 5.258C68.2751 4.874 67.9241 4.49 67.6421 4.106ZM74.3831 4.34V5.267H78.6581V4.34H74.3831ZM73.7081 3.791H79.3691V5.825H73.7081V3.791ZM73.9871 7.949V8.588H79.0271V7.949H73.9871ZM73.9871 9.065V9.713H79.0271V9.065H73.9871ZM73.9871 6.842V7.472H79.0271V6.842H73.9871ZM73.3211 6.338H79.7201V10.217H73.3211V6.338ZM75.0311 10.199L75.6611 10.613C75.4211 10.757 75.1391 10.901 74.8151 11.045C74.4971 11.189 74.1671 11.318 73.8251 11.432C73.4891 11.552 73.1621 11.651 72.8441 11.729C72.7901 11.657 72.7121 11.57 72.6101 11.468C72.5141 11.372 72.4271 11.294 72.3491 11.234C72.6671 11.156 72.9971 11.06 73.3391 10.946C73.6811 10.832 74.0021 10.712 74.3021 10.586C74.6021 10.454 74.8451 10.325 75.0311 10.199ZM77.2361 10.676L77.8121 10.235C78.1301 10.325 78.4631 10.43 78.8111 10.55C79.1591 10.67 79.4951 10.793 79.8191 10.919C80.1491 11.039 80.4281 11.15 80.6561 11.252L80.0801 11.738C79.8581 11.63 79.5821 11.51 79.2521 11.378C78.9281 11.252 78.5891 11.126 78.2351 11C77.8811 10.874 77.5481 10.766 77.2361 10.676ZM85.2011 5.537H88.5581V6.113H85.2011V5.537ZM83.7971 10.937C84.0791 10.883 84.4031 10.823 84.7691 10.757C85.1351 10.685 85.5251 10.61 85.9391 10.532C86.3531 10.448 86.7701 10.364 87.1901 10.28L87.2441 10.865C86.6741 10.997 86.1041 11.126 85.5341 11.252C84.9701 11.378 84.4661 11.492 84.0221 11.594L83.7971 10.937ZM84.8141 3.836H85.4711V10.991H84.8141V3.836ZM85.2011 3.836H88.8821V7.832H85.2011V7.238H88.2161V4.43H85.2011V3.836ZM86.9471 7.454C87.0731 8.012 87.2501 8.534 87.4781 9.02C87.7061 9.5 87.9881 9.923 88.3241 10.289C88.6601 10.655 89.0501 10.937 89.4941 11.135C89.4461 11.177 89.3921 11.231 89.3321 11.297C89.2721 11.363 89.2181 11.432 89.1701 11.504C89.1221 11.576 89.0801 11.639 89.0441 11.693C88.5701 11.453 88.1591 11.132 87.8111 10.73C87.4691 10.322 87.1811 9.851 86.9471 9.317C86.7131 8.777 86.5241 8.189 86.3801 7.553L86.9471 7.454ZM88.7381 8.039L89.2601 8.426C89.0141 8.66 88.7411 8.897 88.4411 9.137C88.1411 9.371 87.8651 9.572 87.6131 9.74L87.1901 9.389C87.3521 9.275 87.5261 9.143 87.7121 8.993C87.9041 8.837 88.0901 8.675 88.2701 8.507C88.4561 8.339 88.6121 8.183 88.7381 8.039ZM81.5561 3.827H83.8601V4.439H82.1951V11.72H81.5561V3.827ZM83.6621 3.827H83.7791L83.8871 3.8L84.3371 4.079C84.2471 4.325 84.1451 4.589 84.0311 4.871C83.9171 5.147 83.8001 5.423 83.6801 5.699C83.5661 5.975 83.4521 6.23 83.3381 6.464C83.7041 6.836 83.9441 7.184 84.0581 7.508C84.1781 7.832 84.2381 8.132 84.2381 8.408C84.2441 8.66 84.2141 8.876 84.1481 9.056C84.0881 9.23 83.9921 9.365 83.8601 9.461C83.7941 9.509 83.7161 9.545 83.6261 9.569C83.5421 9.593 83.4521 9.614 83.3561 9.632C83.2601 9.644 83.1521 9.65 83.0321 9.65C82.9121 9.65 82.7951 9.647 82.6811 9.641C82.6751 9.557 82.6571 9.455 82.6271 9.335C82.5971 9.215 82.5551 9.11 82.5011 9.02C82.6211 9.038 82.7291 9.047 82.8251 9.047C82.9271 9.047 83.0171 9.047 83.0951 9.047C83.1551 9.035 83.2121 9.023 83.2661 9.011C83.3201 8.999 83.3711 8.978 83.4191 8.948C83.4911 8.9 83.5421 8.822 83.5721 8.714C83.6021 8.606 83.6171 8.483 83.6171 8.345C83.6171 8.099 83.5571 7.826 83.4371 7.526C83.3171 7.226 83.0771 6.899 82.7171 6.545C82.8071 6.341 82.8971 6.125 82.9871 5.897C83.0771 5.669 83.1611 5.441 83.2391 5.213C83.3231 4.985 83.4011 4.769 83.4731 4.565C83.5451 4.361 83.6081 4.178 83.6621 4.016V3.827ZM91.5371 6.194H96.7931V6.842H91.5371V6.194ZM94.1291 8.345H97.1621V8.975H94.1291V8.345ZM93.7781 6.518H94.4801V11.081L93.7781 10.982V6.518ZM91.6361 7.607L92.3381 7.688C92.2121 8.594 92.0021 9.389 91.7081 10.073C91.4141 10.757 91.0151 11.321 90.5111 11.765C90.4751 11.723 90.4211 11.672 90.3491 11.612C90.2831 11.558 90.2141 11.501 90.1421 11.441C90.0701 11.387 90.0071 11.342 89.9531 11.306C90.4511 10.916 90.8321 10.406 91.0961 9.776C91.3661 9.146 91.5461 8.423 91.6361 7.607ZM92.0681 8.768C92.2241 9.23 92.4281 9.602 92.6801 9.884C92.9321 10.166 93.2231 10.382 93.5531 10.532C93.8831 10.682 94.2461 10.784 94.6421 10.838C95.0441 10.892 95.4761 10.919 95.9381 10.919C96.0041 10.919 96.1121 10.919 96.2621 10.919C96.4121 10.919 96.5801 10.919 96.7661 10.919C96.9581 10.919 97.1531 10.919 97.3511 10.919C97.5491 10.919 97.7291 10.919 97.8911 10.919C98.0531 10.919 98.1761 10.916 98.2601 10.91C98.2301 10.964 98.1971 11.033 98.1611 11.117C98.1251 11.201 98.0921 11.285 98.0621 11.369C98.0381 11.453 98.0201 11.528 98.0081 11.594H97.5581H95.9021C95.3681 11.594 94.8731 11.558 94.4171 11.486C93.9671 11.42 93.5591 11.294 93.1931 11.108C92.8331 10.922 92.5121 10.658 92.2301 10.316C91.9481 9.974 91.7111 9.53 91.5191 8.984L92.0681 8.768ZM93.7691 3.44H94.4801V4.898H93.7691V3.44ZM90.3761 4.475H97.9001V6.437H97.2071V5.123H91.0421V6.437H90.3761V4.475Z" fill="#1B6AAC"/>
</svg>
