<svg width="154" height="26" viewBox="0 0 154 26" fill="none" xmlns="http://www.w3.org/2000/svg">
<rect x="0.5" y="1.03845" width="152.923" height="23.5385" rx="9.5" fill="#1B6AAC" stroke="#1B6AAC"/>
<path d="M31.9987 16.4835L32.2957 14.0525H30.5137V13.3485H32.3837L32.6587 11.0935H30.8107V10.3895H32.7247L33.0107 8.21145H33.6597L33.3847 10.3895H35.4637L35.7497 8.21145H36.3877L36.1127 10.3895H37.9057V11.0935H36.0467L35.7717 13.3485H37.6197V14.0525H35.6837L35.3977 16.4835H34.7377L35.0237 14.0525H32.9557L32.6587 16.4835H31.9987ZM33.0327 13.3485H35.1117L35.3867 11.0935H33.3077L33.0327 13.3485ZM43.9887 7.74945C43.974 7.81545 43.963 7.89245 43.9557 7.98045C43.9484 8.06112 43.941 8.14912 43.9337 8.24445C43.9264 8.33979 43.919 8.42778 43.9117 8.50845C43.9044 8.67712 43.8934 8.89712 43.8787 9.16845C43.8714 9.43979 43.864 9.74045 43.8567 10.0705C43.8494 10.3931 43.842 10.7231 43.8347 11.0605C43.8274 11.3905 43.8237 11.6985 43.8237 11.9845C43.8237 12.2705 43.8237 12.5858 43.8237 12.9305C43.831 13.2678 43.8384 13.6051 43.8457 13.9425C43.8604 14.2725 43.8677 14.5805 43.8677 14.8665C43.875 15.1451 43.8787 15.3688 43.8787 15.5375C43.8787 15.8748 43.8384 16.1425 43.7577 16.3405C43.677 16.5385 43.5634 16.6778 43.4167 16.7585C43.2774 16.8465 43.1087 16.8905 42.9107 16.8905C42.698 16.8905 42.4597 16.8391 42.1957 16.7365C41.9317 16.6411 41.6787 16.5091 41.4367 16.3405C41.202 16.1718 41.0077 15.9775 40.8537 15.7575C40.6997 15.5375 40.6227 15.3065 40.6227 15.0645C40.6227 14.7345 40.7474 14.4118 40.9967 14.0965C41.2534 13.7811 41.5834 13.4878 41.9867 13.2165C42.3974 12.9451 42.83 12.7251 43.2847 12.5565C43.7834 12.3585 44.293 12.2118 44.8137 12.1165C45.3344 12.0138 45.811 11.9625 46.2437 11.9625C46.779 11.9625 47.252 12.0541 47.6627 12.2375C48.0807 12.4208 48.407 12.6775 48.6417 13.0075C48.8837 13.3301 49.0047 13.7115 49.0047 14.1515C49.0047 14.5915 48.913 14.9801 48.7297 15.3175C48.5537 15.6548 48.2897 15.9371 47.9377 16.1645C47.593 16.3918 47.1677 16.5678 46.6617 16.6925C46.4197 16.7438 46.1777 16.7768 45.9357 16.7915C45.701 16.8135 45.4884 16.8318 45.2977 16.8465L44.9897 15.9555C45.195 15.9628 45.4077 15.9628 45.6277 15.9555C45.855 15.9481 46.0714 15.9225 46.2767 15.8785C46.5994 15.8198 46.9 15.7208 47.1787 15.5815C47.4647 15.4348 47.692 15.2441 47.8607 15.0095C48.0367 14.7748 48.1247 14.4925 48.1247 14.1625C48.1247 13.8471 48.0404 13.5831 47.8717 13.3705C47.703 13.1578 47.4757 12.9965 47.1897 12.8865C46.9037 12.7765 46.5847 12.7215 46.2327 12.7215C45.7487 12.7215 45.2757 12.7728 44.8137 12.8755C44.3517 12.9781 43.8824 13.1248 43.4057 13.3155C43.0537 13.4475 42.731 13.6125 42.4377 13.8105C42.1444 14.0011 41.9097 14.2028 41.7337 14.4155C41.565 14.6281 41.4807 14.8298 41.4807 15.0205C41.4807 15.1451 41.521 15.2661 41.6017 15.3835C41.6897 15.4935 41.796 15.5925 41.9207 15.6805C42.0454 15.7685 42.1774 15.8381 42.3167 15.8895C42.456 15.9335 42.577 15.9555 42.6797 15.9555C42.8044 15.9555 42.8997 15.9115 42.9657 15.8235C43.039 15.7355 43.0757 15.5998 43.0757 15.4165C43.0757 15.2038 43.072 14.9105 43.0647 14.5365C43.0574 14.1551 43.05 13.7445 43.0427 13.3045C43.0354 12.8571 43.0317 12.4318 43.0317 12.0285C43.0317 11.7131 43.0317 11.3758 43.0317 11.0165C43.039 10.6571 43.0427 10.3088 43.0427 9.97145C43.05 9.63412 43.0537 9.33712 43.0537 9.08045C43.061 8.82378 43.0647 8.64045 43.0647 8.53045C43.0647 8.45712 43.061 8.37279 43.0537 8.27745C43.0537 8.17478 43.05 8.07578 43.0427 7.98045C43.0354 7.88512 43.0244 7.80812 43.0097 7.74945H43.9887ZM47.3987 8.97045C47.6627 9.10979 47.956 9.27845 48.2787 9.47645C48.6014 9.66712 48.9094 9.86145 49.2027 10.0595C49.5034 10.2575 49.7417 10.4298 49.9177 10.5765L49.4667 11.2805C49.3347 11.1485 49.166 11.0091 48.9607 10.8625C48.7554 10.7085 48.5354 10.5581 48.3007 10.4115C48.066 10.2575 47.835 10.1145 47.6077 9.98245C47.3804 9.84312 47.1787 9.72579 47.0027 9.63045L47.3987 8.97045ZM40.7987 9.72945C41.0994 9.76612 41.356 9.79179 41.5687 9.80645C41.7887 9.81379 42.0014 9.81745 42.2067 9.81745C42.478 9.81745 42.7824 9.80279 43.1197 9.77345C43.457 9.74412 43.8054 9.70745 44.1647 9.66345C44.524 9.61212 44.8724 9.55345 45.2097 9.48745C45.5544 9.41412 45.8624 9.33712 46.1337 9.25645L46.1557 10.1145C45.8697 10.1805 45.5507 10.2465 45.1987 10.3125C44.8467 10.3711 44.4874 10.4225 44.1207 10.4665C43.7614 10.5105 43.4167 10.5471 43.0867 10.5765C42.7567 10.6058 42.4707 10.6205 42.2287 10.6205C41.9134 10.6205 41.6457 10.6168 41.4257 10.6095C41.213 10.6021 41.0114 10.5875 40.8207 10.5655L40.7987 9.72945ZM57.1447 7.82645C57.1447 7.86312 57.1374 7.92912 57.1227 8.02445C57.1154 8.11979 57.108 8.21512 57.1007 8.31045C57.1007 8.39845 57.097 8.46812 57.0897 8.51945C57.0824 8.65879 57.0787 8.84945 57.0787 9.09145C57.0787 9.33345 57.0787 9.59745 57.0787 9.88345C57.0787 10.1695 57.0787 10.4591 57.0787 10.7525C57.086 11.0458 57.0897 11.3208 57.0897 11.5775C57.097 11.8341 57.1007 12.0505 57.1007 12.2265L56.2537 11.8085C56.2537 11.7058 56.2537 11.5518 56.2537 11.3465C56.2537 11.1338 56.2537 10.8918 56.2537 10.6205C56.2537 10.3418 56.25 10.0668 56.2427 9.79545C56.2427 9.52412 56.239 9.27479 56.2317 9.04745C56.2244 8.82012 56.217 8.64412 56.2097 8.51945C56.2024 8.37279 56.1914 8.23345 56.1767 8.10145C56.162 7.96212 56.151 7.87045 56.1437 7.82645H57.1447ZM51.3037 9.35545C51.6044 9.35545 51.9454 9.35178 52.3267 9.34445C52.708 9.32979 53.1114 9.31512 53.5367 9.30045C53.9694 9.28579 54.4057 9.27479 54.8457 9.26745C55.2857 9.26012 55.7074 9.25278 56.1107 9.24545C56.5214 9.23812 56.899 9.23445 57.2437 9.23445C57.5737 9.23445 57.9037 9.23445 58.2337 9.23445C58.5637 9.23445 58.8717 9.23445 59.1577 9.23445C59.451 9.23445 59.7077 9.23812 59.9277 9.24545C60.155 9.24545 60.3347 9.24545 60.4667 9.24545L60.4557 10.0595C60.1477 10.0448 59.7334 10.0338 59.2127 10.0265C58.6994 10.0118 58.0394 10.0045 57.2327 10.0045C56.756 10.0045 56.2574 10.0118 55.7367 10.0265C55.2234 10.0338 54.7064 10.0448 54.1857 10.0595C53.665 10.0741 53.159 10.0961 52.6677 10.1255C52.1837 10.1475 51.7364 10.1731 51.3257 10.2025L51.3037 9.35545ZM57.0787 12.5565C57.0787 13.0405 57.0054 13.4475 56.8587 13.7775C56.7194 14.1075 56.5214 14.3531 56.2647 14.5145C56.0154 14.6758 55.722 14.7565 55.3847 14.7565C55.1574 14.7565 54.9337 14.7198 54.7137 14.6465C54.501 14.5658 54.3067 14.4485 54.1307 14.2945C53.962 14.1331 53.8264 13.9388 53.7237 13.7115C53.6284 13.4768 53.5807 13.2128 53.5807 12.9195C53.5807 12.5528 53.6687 12.2265 53.8447 11.9405C54.0207 11.6545 54.2554 11.4271 54.5487 11.2585C54.8494 11.0898 55.172 11.0055 55.5167 11.0055C55.9494 11.0055 56.305 11.1045 56.5837 11.3025C56.8697 11.4931 57.086 11.7571 57.2327 12.0945C57.3794 12.4245 57.4527 12.8021 57.4527 13.2275C57.4527 13.5941 57.3977 13.9681 57.2877 14.3495C57.185 14.7308 57.009 15.0975 56.7597 15.4495C56.5177 15.8015 56.184 16.1241 55.7587 16.4175C55.3407 16.7035 54.809 16.9418 54.1637 17.1325L53.4267 16.4065C53.9254 16.2891 54.3727 16.1388 54.7687 15.9555C55.1647 15.7721 55.4984 15.5485 55.7697 15.2845C56.041 15.0205 56.2464 14.7125 56.3857 14.3605C56.5324 14.0085 56.6057 13.6051 56.6057 13.1505C56.6057 12.6518 56.4994 12.2925 56.2867 12.0725C56.074 11.8525 55.8174 11.7425 55.5167 11.7425C55.326 11.7425 55.1464 11.7901 54.9777 11.8855C54.809 11.9735 54.6697 12.1055 54.5597 12.2815C54.457 12.4575 54.4057 12.6665 54.4057 12.9085C54.4057 13.2531 54.5157 13.5208 54.7357 13.7115C54.963 13.9021 55.227 13.9975 55.5277 13.9975C55.755 13.9975 55.9494 13.9351 56.1107 13.8105C56.272 13.6785 56.3857 13.4841 56.4517 13.2275C56.525 12.9635 56.5324 12.6371 56.4737 12.2485L57.0787 12.5565ZM67.9247 7.82645C67.9247 7.86312 67.9174 7.92912 67.9027 8.02445C67.8954 8.11979 67.888 8.21512 67.8807 8.31045C67.8807 8.39845 67.877 8.46812 67.8697 8.51945C67.8624 8.65879 67.8587 8.84945 67.8587 9.09145C67.8587 9.33345 67.8587 9.59745 67.8587 9.88345C67.8587 10.1695 67.8587 10.4591 67.8587 10.7525C67.866 11.0458 67.8697 11.3208 67.8697 11.5775C67.877 11.8341 67.8807 12.0505 67.8807 12.2265L67.0337 11.8085C67.0337 11.7058 67.0337 11.5518 67.0337 11.3465C67.0337 11.1338 67.0337 10.8918 67.0337 10.6205C67.0337 10.3418 67.03 10.0668 67.0227 9.79545C67.0227 9.52412 67.019 9.27479 67.0117 9.04745C67.0044 8.82012 66.997 8.64412 66.9897 8.51945C66.9824 8.37279 66.9714 8.23345 66.9567 8.10145C66.942 7.96212 66.931 7.87045 66.9237 7.82645H67.9247ZM62.0837 9.35545C62.3844 9.35545 62.7254 9.35178 63.1067 9.34445C63.488 9.32979 63.8914 9.31512 64.3167 9.30045C64.7494 9.28579 65.1857 9.27479 65.6257 9.26745C66.0657 9.26012 66.4874 9.25278 66.8907 9.24545C67.3014 9.23812 67.679 9.23445 68.0237 9.23445C68.3537 9.23445 68.6837 9.23445 69.0137 9.23445C69.3437 9.23445 69.6517 9.23445 69.9377 9.23445C70.231 9.23445 70.4877 9.23812 70.7077 9.24545C70.935 9.24545 71.1147 9.24545 71.2467 9.24545L71.2357 10.0595C70.9277 10.0448 70.5134 10.0338 69.9927 10.0265C69.4794 10.0118 68.8194 10.0045 68.0127 10.0045C67.536 10.0045 67.0374 10.0118 66.5167 10.0265C66.0034 10.0338 65.4864 10.0448 64.9657 10.0595C64.445 10.0741 63.939 10.0961 63.4477 10.1255C62.9637 10.1475 62.5164 10.1731 62.1057 10.2025L62.0837 9.35545ZM67.8587 12.5565C67.8587 13.0405 67.7854 13.4475 67.6387 13.7775C67.4994 14.1075 67.3014 14.3531 67.0447 14.5145C66.7954 14.6758 66.502 14.7565 66.1647 14.7565C65.9374 14.7565 65.7137 14.7198 65.4937 14.6465C65.281 14.5658 65.0867 14.4485 64.9107 14.2945C64.742 14.1331 64.6064 13.9388 64.5037 13.7115C64.4084 13.4768 64.3607 13.2128 64.3607 12.9195C64.3607 12.5528 64.4487 12.2265 64.6247 11.9405C64.8007 11.6545 65.0354 11.4271 65.3287 11.2585C65.6294 11.0898 65.952 11.0055 66.2967 11.0055C66.7294 11.0055 67.085 11.1045 67.3637 11.3025C67.6497 11.4931 67.866 11.7571 68.0127 12.0945C68.1594 12.4245 68.2327 12.8021 68.2327 13.2275C68.2327 13.5941 68.1777 13.9681 68.0677 14.3495C67.965 14.7308 67.789 15.0975 67.5397 15.4495C67.2977 15.8015 66.964 16.1241 66.5387 16.4175C66.1207 16.7035 65.589 16.9418 64.9437 17.1325L64.2067 16.4065C64.7054 16.2891 65.1527 16.1388 65.5487 15.9555C65.9447 15.7721 66.2784 15.5485 66.5497 15.2845C66.821 15.0205 67.0264 14.7125 67.1657 14.3605C67.3124 14.0085 67.3857 13.6051 67.3857 13.1505C67.3857 12.6518 67.2794 12.2925 67.0667 12.0725C66.854 11.8525 66.5974 11.7425 66.2967 11.7425C66.106 11.7425 65.9264 11.7901 65.7577 11.8855C65.589 11.9735 65.4497 12.1055 65.3397 12.2815C65.237 12.4575 65.1857 12.6665 65.1857 12.9085C65.1857 13.2531 65.2957 13.5208 65.5157 13.7115C65.743 13.9021 66.007 13.9975 66.3077 13.9975C66.535 13.9975 66.7294 13.9351 66.8907 13.8105C67.052 13.6785 67.1657 13.4841 67.2317 13.2275C67.305 12.9635 67.3124 12.6371 67.2537 12.2485L67.8587 12.5565ZM79.1667 8.02445C79.1447 8.11245 79.1227 8.21145 79.1007 8.32145C79.0787 8.42412 79.0567 8.52679 79.0347 8.62945C79.02 8.73212 79.0017 8.81645 78.9797 8.88245C78.877 9.34445 78.7524 9.82112 78.6057 10.3125C78.4664 10.8038 78.3087 11.2915 78.1327 11.7755C77.9567 12.2595 77.766 12.7105 77.5607 13.1285C77.3627 13.5465 77.1537 13.9095 76.9337 14.2175C76.655 14.5988 76.3727 14.9435 76.0867 15.2515C75.808 15.5521 75.522 15.7868 75.2287 15.9555C74.9354 16.1241 74.62 16.2085 74.2827 16.2085C74.0114 16.2085 73.7584 16.1315 73.5237 15.9775C73.289 15.8235 73.102 15.5998 72.9627 15.3065C72.8234 15.0131 72.7537 14.6538 72.7537 14.2285C72.7537 13.7665 72.838 13.3045 73.0067 12.8425C73.1827 12.3805 73.421 11.9551 73.7217 11.5665C74.0297 11.1778 74.3744 10.8551 74.7557 10.5985C75.2984 10.2245 75.8447 9.96045 76.3947 9.80645C76.9447 9.65245 77.4984 9.57545 78.0557 9.57545C78.7744 9.57545 79.4124 9.72579 79.9697 10.0265C80.5344 10.3271 80.9744 10.7488 81.2897 11.2915C81.6124 11.8268 81.7737 12.4538 81.7737 13.1725C81.7737 13.8985 81.6087 14.5328 81.2787 15.0755C80.956 15.6108 80.4977 16.0435 79.9037 16.3735C79.317 16.6961 78.6314 16.9125 77.8467 17.0225L77.3297 16.2415C77.909 16.1901 78.4187 16.0801 78.8587 15.9115C79.306 15.7428 79.68 15.5228 79.9807 15.2515C80.2814 14.9801 80.5087 14.6648 80.6627 14.3055C80.824 13.9461 80.9047 13.5575 80.9047 13.1395C80.9047 12.5968 80.7837 12.1165 80.5417 11.6985C80.2997 11.2731 79.955 10.9395 79.5077 10.6975C79.0677 10.4555 78.5544 10.3345 77.9677 10.3345C77.4324 10.3345 76.9227 10.4225 76.4387 10.5985C75.962 10.7671 75.5074 11.0091 75.0747 11.3245C74.7667 11.5445 74.499 11.8158 74.2717 12.1385C74.0444 12.4611 73.8647 12.7985 73.7327 13.1505C73.608 13.4951 73.5457 13.8325 73.5457 14.1625C73.5457 14.5291 73.619 14.8188 73.7657 15.0315C73.9197 15.2368 74.1214 15.3395 74.3707 15.3395C74.5467 15.3395 74.7264 15.2881 74.9097 15.1855C75.093 15.0755 75.2727 14.9325 75.4487 14.7565C75.6247 14.5805 75.7934 14.3861 75.9547 14.1735C76.1234 13.9535 76.2737 13.7335 76.4057 13.5135C76.589 13.2275 76.7687 12.8975 76.9447 12.5235C77.1207 12.1495 77.2857 11.7498 77.4397 11.3245C77.601 10.8918 77.7404 10.4591 77.8577 10.0265C77.9824 9.58645 78.0814 9.16845 78.1547 8.77245C78.1767 8.66245 78.1914 8.52679 78.1987 8.36545C78.2134 8.20412 78.2207 8.06112 78.2207 7.93645L79.1667 8.02445ZM74.6677 8.51945C74.697 8.67345 74.73 8.83845 74.7667 9.01445C74.8107 9.18312 74.851 9.34445 74.8877 9.49845C74.961 9.76245 75.0527 10.0595 75.1627 10.3895C75.2727 10.7195 75.3864 11.0495 75.5037 11.3795C75.6284 11.7095 75.7567 12.0211 75.8887 12.3145C76.0207 12.6005 76.1454 12.8388 76.2627 13.0295C76.4534 13.3521 76.6697 13.6821 76.9117 14.0195C77.1537 14.3568 77.4067 14.6501 77.6707 14.8995L76.9777 15.4715C76.7577 15.2221 76.545 14.9581 76.3397 14.6795C76.1344 14.4008 75.929 14.0818 75.7237 13.7225C75.5844 13.5098 75.445 13.2531 75.3057 12.9525C75.1664 12.6445 75.0234 12.3145 74.8767 11.9625C74.7374 11.6105 74.6017 11.2511 74.4697 10.8845C74.3377 10.5105 74.2204 10.1511 74.1177 9.80645C74.0664 9.63045 74.0077 9.45812 73.9417 9.28945C73.883 9.11345 73.8207 8.95579 73.7547 8.81645L74.6677 8.51945ZM88.4727 8.83845H93.0817V9.59745H88.4727V8.83845ZM90.0567 10.0155H90.7717V15.5595H90.0567V10.0155ZM88.7477 7.28745L89.5507 7.45245C89.3674 8.22245 89.1217 8.95212 88.8137 9.64145C88.5057 10.3235 88.15 10.9028 87.7467 11.3795C87.71 11.3281 87.6514 11.2695 87.5707 11.2035C87.49 11.1301 87.4094 11.0568 87.3287 10.9835C87.248 10.9101 87.1747 10.8551 87.1087 10.8185C87.49 10.3931 87.82 9.86879 88.0987 9.24545C88.3774 8.62212 88.5937 7.96945 88.7477 7.28745ZM87.2957 13.0625L92.1247 10.7855L92.4217 11.4675L87.5927 13.7335L87.2957 13.0625ZM88.2637 10.8735H89.0117V16.1425C89.0117 16.3551 89.052 16.4945 89.1327 16.5605C89.2207 16.6265 89.415 16.6595 89.7157 16.6595C89.789 16.6595 89.921 16.6595 90.1117 16.6595C90.3097 16.6595 90.526 16.6595 90.7607 16.6595C90.9954 16.6595 91.2154 16.6595 91.4207 16.6595C91.626 16.6595 91.7764 16.6595 91.8717 16.6595C92.033 16.6595 92.154 16.6265 92.2347 16.5605C92.3154 16.4945 92.374 16.3698 92.4107 16.1865C92.4474 16.0031 92.473 15.7355 92.4877 15.3835C92.5757 15.4495 92.6857 15.5118 92.8177 15.5705C92.957 15.6218 93.0817 15.6585 93.1917 15.6805C93.1624 16.1131 93.1037 16.4505 93.0157 16.6925C92.935 16.9418 92.8104 17.1178 92.6417 17.2205C92.473 17.3231 92.231 17.3745 91.9157 17.3745C91.8644 17.3745 91.7617 17.3745 91.6077 17.3745C91.4537 17.3745 91.2777 17.3745 91.0797 17.3745C90.8817 17.3745 90.6837 17.3745 90.4857 17.3745C90.2877 17.3745 90.1117 17.3745 89.9577 17.3745C89.811 17.3745 89.7157 17.3745 89.6717 17.3745C89.305 17.3745 89.019 17.3378 88.8137 17.2645C88.6084 17.1985 88.4654 17.0738 88.3847 16.8905C88.304 16.7145 88.2637 16.4615 88.2637 16.1315V10.8735ZM91.9377 10.9725H91.8387L92.0257 10.8075L92.1687 10.6975L92.6967 10.9065L92.6527 11.0275C92.6527 11.4235 92.649 11.8011 92.6417 12.1605C92.6417 12.5198 92.638 12.8498 92.6307 13.1505C92.6307 13.4438 92.627 13.6931 92.6197 13.8985C92.6124 14.0965 92.6014 14.2321 92.5867 14.3055C92.572 14.4815 92.5207 14.6171 92.4327 14.7125C92.3447 14.8078 92.231 14.8738 92.0917 14.9105C91.9744 14.9398 91.835 14.9618 91.6737 14.9765C91.5197 14.9838 91.3804 14.9838 91.2557 14.9765C91.2484 14.8738 91.23 14.7638 91.2007 14.6465C91.1714 14.5218 91.1347 14.4155 91.0907 14.3275C91.1934 14.3348 91.2997 14.3385 91.4097 14.3385C91.527 14.3385 91.6114 14.3385 91.6627 14.3385C91.7214 14.3385 91.769 14.3275 91.8057 14.3055C91.8497 14.2835 91.879 14.2285 91.8937 14.1405C91.901 14.0891 91.9084 13.9755 91.9157 13.7995C91.923 13.6161 91.9267 13.3851 91.9267 13.1065C91.9267 12.8205 91.9267 12.4978 91.9267 12.1385C91.934 11.7718 91.9377 11.3831 91.9377 10.9725ZM83.0717 9.09145H87.7247V9.87245H83.0717V9.09145ZM84.6557 11.3795H86.5917V12.1495H84.6557V11.3795ZM85.0077 7.32045H85.7997V9.36645H85.0077V7.32045ZM84.2707 9.53145H85.0627C85.048 10.3015 85.0224 11.0605 84.9857 11.8085C84.949 12.5565 84.883 13.2751 84.7877 13.9645C84.6924 14.6538 84.5457 15.2918 84.3477 15.8785C84.157 16.4651 83.9004 16.9785 83.5777 17.4185C83.5044 17.3231 83.4054 17.2205 83.2807 17.1105C83.1634 17.0078 83.0534 16.9271 82.9507 16.8685C83.244 16.4725 83.475 16.0031 83.6437 15.4605C83.8197 14.9105 83.9517 14.3165 84.0397 13.6785C84.1277 13.0331 84.1864 12.3585 84.2157 11.6545C84.245 10.9505 84.2634 10.2428 84.2707 9.53145ZM86.3167 11.3795H87.0757C87.0757 11.3795 87.0757 11.4051 87.0757 11.4565C87.0757 11.5005 87.0757 11.5518 87.0757 11.6105C87.0757 11.6691 87.0757 11.7168 87.0757 11.7535C87.0537 12.6775 87.0317 13.4548 87.0097 14.0855C86.995 14.7161 86.9694 15.2331 86.9327 15.6365C86.9034 16.0398 86.8667 16.3515 86.8227 16.5715C86.7787 16.7915 86.72 16.9491 86.6467 17.0445C86.5587 17.1618 86.467 17.2425 86.3717 17.2865C86.2764 17.3378 86.1517 17.3745 85.9977 17.3965C85.873 17.4111 85.7044 17.4185 85.4917 17.4185C85.279 17.4185 85.059 17.4111 84.8317 17.3965C84.8244 17.2865 84.8024 17.1581 84.7657 17.0115C84.729 16.8721 84.6814 16.7548 84.6227 16.6595C84.8427 16.6741 85.048 16.6815 85.2387 16.6815C85.4294 16.6888 85.565 16.6925 85.6457 16.6925C85.719 16.6998 85.7814 16.6925 85.8327 16.6705C85.8914 16.6558 85.9427 16.6155 85.9867 16.5495C86.0454 16.4615 86.0967 16.2525 86.1407 15.9225C86.1847 15.5851 86.2177 15.0645 86.2397 14.3605C86.269 13.6565 86.2947 12.7178 86.3167 11.5445V11.3795ZM98.8347 7.65045H99.6157V8.99245C99.6157 9.30045 99.579 9.63045 99.5057 9.98245C99.4324 10.3345 99.2967 10.6755 99.0987 11.0055C98.9007 11.3355 98.6037 11.6325 98.2077 11.8965C98.171 11.8378 98.1124 11.7755 98.0317 11.7095C97.9584 11.6361 97.8814 11.5665 97.8007 11.5005C97.7274 11.4271 97.6614 11.3758 97.6027 11.3465C97.9547 11.1118 98.2187 10.8625 98.3947 10.5985C98.5707 10.3271 98.688 10.0521 98.7467 9.77345C98.8054 9.49479 98.8347 9.22712 98.8347 8.97045V7.65045ZM101.508 7.65045H102.3V10.3455C102.3 10.4701 102.311 10.5508 102.333 10.5875C102.362 10.6168 102.421 10.6315 102.509 10.6315C102.538 10.6315 102.589 10.6315 102.663 10.6315C102.736 10.6315 102.813 10.6315 102.894 10.6315C102.974 10.6315 103.033 10.6315 103.07 10.6315C103.128 10.6315 103.172 10.6058 103.202 10.5545C103.238 10.5031 103.264 10.3931 103.279 10.2245C103.301 10.0485 103.312 9.78445 103.312 9.43245C103.392 9.49845 103.502 9.55712 103.642 9.60845C103.781 9.65979 103.906 9.70012 104.016 9.72945C103.994 10.1621 103.95 10.4958 103.884 10.7305C103.825 10.9651 103.737 11.1301 103.62 11.2255C103.51 11.3135 103.356 11.3575 103.158 11.3575C103.106 11.3575 103.029 11.3575 102.927 11.3575C102.824 11.3575 102.718 11.3575 102.608 11.3575C102.505 11.3575 102.432 11.3575 102.388 11.3575C102.16 11.3575 101.981 11.3281 101.849 11.2695C101.724 11.2108 101.636 11.1118 101.585 10.9725C101.533 10.8258 101.508 10.6205 101.508 10.3565V7.65045ZM99.4287 12.8315C99.8027 13.7848 100.386 14.5988 101.178 15.2735C101.977 15.9481 102.93 16.4248 104.038 16.7035C103.979 16.7548 103.913 16.8245 103.84 16.9125C103.774 17.0005 103.708 17.0885 103.642 17.1765C103.583 17.2645 103.532 17.3415 103.488 17.4075C102.351 17.0775 101.376 16.5421 100.562 15.8015C99.755 15.0535 99.1317 14.1441 98.6917 13.0735L99.4287 12.8315ZM102.509 12.0615H102.663L102.806 12.0285L103.345 12.2375C103.154 12.9635 102.883 13.6088 102.531 14.1735C102.186 14.7308 101.783 15.2221 101.321 15.6475C100.859 16.0728 100.353 16.4285 99.8027 16.7145C99.26 17.0078 98.6844 17.2425 98.0757 17.4185C98.0537 17.3451 98.017 17.2608 97.9657 17.1655C97.9144 17.0775 97.8594 16.9895 97.8007 16.9015C97.742 16.8135 97.6834 16.7438 97.6247 16.6925C98.182 16.5458 98.7174 16.3441 99.2307 16.0875C99.744 15.8308 100.217 15.5191 100.65 15.1525C101.09 14.7785 101.467 14.3458 101.783 13.8545C102.098 13.3631 102.34 12.8131 102.509 12.2045V12.0615ZM98.1197 12.0615H102.828V12.8205H98.1197V12.0615ZM99.1647 7.65045H101.915V8.38745H99.1647V7.65045ZM94.3137 10.6315H97.5917V11.2805H94.3137V10.6315ZM94.3577 7.68345H97.5697V8.34345H94.3577V7.68345ZM94.3137 12.0945H97.5917V12.7545H94.3137V12.0945ZM93.7857 9.12445H97.9767V9.81745H93.7857V9.12445ZM94.6987 13.5795H97.5807V16.7915H94.6987V16.1095H96.8547V14.2725H94.6987V13.5795ZM94.2917 13.5795H95.0177V17.2975H94.2917V13.5795ZM108.845 13.6015H113.234V14.2285H108.845V13.6015ZM107.822 8.15645H114.356V8.79445H107.822V8.15645ZM108.086 9.49845H114.081V10.1035H108.086V9.49845ZM107.492 10.8625H114.686V11.5005H107.492V10.8625ZM108.856 15.0645H113.267V15.6915H108.856V15.0645ZM108.284 12.1385H113.223V12.7765H109.054V17.4075H108.284V12.1385ZM113.036 12.1385H113.817V16.4945C113.817 16.6998 113.787 16.8611 113.729 16.9785C113.677 17.0958 113.575 17.1838 113.421 17.2425C113.267 17.3085 113.061 17.3451 112.805 17.3525C112.548 17.3671 112.225 17.3745 111.837 17.3745C111.822 17.2718 111.789 17.1508 111.738 17.0115C111.694 16.8795 111.646 16.7621 111.595 16.6595C111.873 16.6668 112.13 16.6705 112.365 16.6705C112.607 16.6778 112.764 16.6778 112.838 16.6705C112.97 16.6631 113.036 16.6008 113.036 16.4835V12.1385ZM110.638 7.29845H111.452V11.0605H110.638V7.29845ZM105.82 7.29845H106.568V17.4075H105.82V7.29845ZM104.951 9.42145L105.567 9.49845C105.552 9.78445 105.523 10.1071 105.479 10.4665C105.442 10.8185 105.391 11.1705 105.325 11.5225C105.259 11.8745 105.182 12.1898 105.094 12.4685L104.445 12.2485C104.533 11.9991 104.61 11.7095 104.676 11.3795C104.742 11.0495 104.797 10.7121 104.841 10.3675C104.892 10.0228 104.929 9.70745 104.951 9.42145ZM106.667 9.12445L107.217 8.90445C107.341 9.15379 107.462 9.42879 107.58 9.72945C107.697 10.0228 107.781 10.2685 107.833 10.4665L107.25 10.7525C107.198 10.5398 107.118 10.2795 107.008 9.97145C106.898 9.66345 106.784 9.38112 106.667 9.12445ZM121.044 11.5445H124.652V12.2265H121.044V11.5445ZM120.637 7.80445H124.564V8.55245H121.396V17.4295H120.637V7.80445ZM124.168 7.80445H124.938V9.92745C124.938 10.1328 124.908 10.2941 124.85 10.4115C124.798 10.5288 124.688 10.6205 124.52 10.6865C124.351 10.7451 124.124 10.7818 123.838 10.7965C123.559 10.8038 123.203 10.8075 122.771 10.8075C122.756 10.6975 122.723 10.5765 122.672 10.4445C122.628 10.3051 122.576 10.1841 122.518 10.0815C122.752 10.0888 122.965 10.0961 123.156 10.1035C123.354 10.1035 123.522 10.1035 123.662 10.1035C123.801 10.1035 123.896 10.0998 123.948 10.0925C124.043 10.0851 124.102 10.0705 124.124 10.0485C124.153 10.0265 124.168 9.98612 124.168 9.92745V7.80445ZM122.122 11.9955C122.32 12.6848 122.587 13.3411 122.925 13.9645C123.262 14.5805 123.654 15.1305 124.102 15.6145C124.556 16.0985 125.062 16.4761 125.62 16.7475C125.524 16.8208 125.422 16.9235 125.312 17.0555C125.202 17.1948 125.114 17.3158 125.048 17.4185C124.483 17.0958 123.97 16.6705 123.508 16.1425C123.053 15.6145 122.653 15.0095 122.309 14.3275C121.971 13.6455 121.693 12.9268 121.473 12.1715L122.122 11.9955ZM124.399 11.5445H124.542L124.685 11.5115L125.202 11.6985C125.055 12.4905 124.835 13.2495 124.542 13.9755C124.256 14.7015 123.893 15.3615 123.453 15.9555C123.02 16.5421 122.51 17.0371 121.924 17.4405C121.858 17.3451 121.77 17.2425 121.66 17.1325C121.557 17.0298 121.458 16.9455 121.363 16.8795C121.92 16.5128 122.404 16.0581 122.815 15.5155C123.225 14.9655 123.563 14.3641 123.827 13.7115C124.098 13.0588 124.289 12.3988 124.399 11.7315V11.5445ZM115.775 8.43145H119.856V9.13545H115.775V8.43145ZM115.654 14.4375H119.999V15.1525H115.654V14.4375ZM115.39 10.2465H120.285V10.9615H115.39V10.2465ZM115.544 12.5235H120.142V13.2385H115.544V12.5235ZM117.469 7.30945H118.239V10.4995H117.469V7.30945ZM117.469 12.8315H118.239V17.3965H117.469V12.8315ZM118.954 10.9175L119.669 11.0935C119.559 11.3575 119.449 11.6251 119.339 11.8965C119.236 12.1605 119.13 12.3878 119.02 12.5785L118.415 12.4025C118.473 12.2631 118.536 12.1055 118.602 11.9295C118.675 11.7535 118.741 11.5775 118.8 11.4015C118.866 11.2181 118.917 11.0568 118.954 10.9175ZM116.149 11.0935L116.776 10.9285C116.908 11.1631 117.021 11.4198 117.117 11.6985C117.212 11.9771 117.271 12.2118 117.293 12.4025L116.633 12.6005C116.611 12.4025 116.552 12.1641 116.457 11.8855C116.369 11.5995 116.266 11.3355 116.149 11.0935Z" fill="white"/>
</svg>
