<svg width="50" height="16" viewBox="0 0 50 16" fill="none" xmlns="http://www.w3.org/2000/svg">
<rect width="50" height="16" rx="5" fill="#F2F8EB"/>
<path d="M16.986 7.121H25.23V7.859H16.986V7.121ZM30.558 3.8H32.565V4.394H30.558V3.8ZM29.775 7.373H33.087V7.985H29.775V7.373ZM32.259 3.8H32.88V5.879C32.88 5.963 32.88 6.032 32.88 6.086C32.886 6.134 32.898 6.164 32.916 6.176C32.946 6.2 32.994 6.212 33.06 6.212C33.09 6.212 33.129 6.212 33.177 6.212C33.231 6.212 33.276 6.212 33.312 6.212C33.354 6.212 33.393 6.209 33.429 6.203C33.465 6.197 33.492 6.188 33.51 6.176C33.552 6.152 33.582 6.092 33.6 5.996C33.606 5.93 33.612 5.834 33.618 5.708C33.624 5.582 33.63 5.432 33.636 5.258C33.696 5.306 33.774 5.357 33.87 5.411C33.966 5.459 34.056 5.495 34.14 5.519C34.134 5.681 34.122 5.849 34.104 6.023C34.092 6.191 34.071 6.308 34.041 6.374C33.993 6.512 33.909 6.608 33.789 6.662C33.735 6.692 33.669 6.713 33.591 6.725C33.519 6.737 33.447 6.743 33.375 6.743C33.315 6.743 33.234 6.743 33.132 6.743C33.036 6.743 32.967 6.743 32.925 6.743C32.841 6.743 32.754 6.731 32.664 6.707C32.574 6.683 32.496 6.644 32.43 6.59C32.37 6.536 32.325 6.458 32.295 6.356C32.271 6.254 32.259 6.08 32.259 5.834V3.8ZM32.97 7.373H33.096L33.213 7.355L33.636 7.499C33.444 8.267 33.153 8.93 32.763 9.488C32.373 10.04 31.917 10.502 31.395 10.874C30.873 11.24 30.312 11.528 29.712 11.738C29.67 11.648 29.613 11.546 29.541 11.432C29.469 11.324 29.4 11.237 29.334 11.171C29.892 11.003 30.414 10.754 30.9 10.424C31.392 10.088 31.818 9.677 32.178 9.191C32.544 8.699 32.808 8.132 32.97 7.49V7.373ZM30.666 7.967C30.858 8.477 31.119 8.948 31.449 9.38C31.779 9.806 32.175 10.172 32.637 10.478C33.099 10.778 33.615 11.006 34.185 11.162C34.113 11.228 34.035 11.315 33.951 11.423C33.873 11.537 33.81 11.636 33.762 11.72C33.168 11.54 32.634 11.279 32.16 10.937C31.692 10.595 31.287 10.184 30.945 9.704C30.603 9.224 30.327 8.69 30.117 8.102L30.666 7.967ZM30.261 3.8H30.864V4.979C30.864 5.213 30.84 5.459 30.792 5.717C30.75 5.975 30.666 6.227 30.54 6.473C30.42 6.719 30.237 6.941 29.991 7.139C29.961 7.097 29.916 7.049 29.856 6.995C29.796 6.941 29.733 6.89 29.667 6.842C29.607 6.794 29.553 6.758 29.505 6.734C29.733 6.56 29.898 6.374 30 6.176C30.108 5.978 30.177 5.774 30.207 5.564C30.243 5.354 30.261 5.153 30.261 4.961V3.8ZM27.48 8.201H27.93V10.325H27.48V8.201ZM26.67 4.682H28.74V5.231H26.67V4.682ZM28.56 4.682H29.127V11.027C29.127 11.189 29.106 11.315 29.064 11.405C29.028 11.495 28.962 11.567 28.866 11.621C28.758 11.663 28.62 11.69 28.452 11.702C28.284 11.714 28.071 11.72 27.813 11.72C27.801 11.648 27.774 11.558 27.732 11.45C27.696 11.342 27.66 11.249 27.624 11.171C27.81 11.177 27.975 11.18 28.119 11.18C28.269 11.18 28.368 11.177 28.416 11.171C28.512 11.171 28.56 11.123 28.56 11.027V4.682ZM26.391 4.682H26.94V7.949C26.94 8.237 26.931 8.549 26.913 8.885C26.895 9.215 26.862 9.551 26.814 9.893C26.766 10.229 26.691 10.553 26.589 10.865C26.493 11.177 26.364 11.462 26.202 11.72C26.166 11.684 26.118 11.645 26.058 11.603C26.004 11.567 25.944 11.531 25.878 11.495C25.818 11.459 25.764 11.429 25.716 11.405C25.926 11.081 26.076 10.721 26.166 10.325C26.262 9.923 26.322 9.518 26.346 9.11C26.376 8.696 26.391 8.309 26.391 7.949V4.682ZM25.734 7.553C26.052 7.523 26.415 7.49 26.823 7.454C27.237 7.412 27.675 7.367 28.137 7.319C28.605 7.265 29.073 7.211 29.541 7.157L29.55 7.706C29.1 7.76 28.65 7.811 28.2 7.859C27.75 7.907 27.318 7.955 26.904 8.003C26.496 8.045 26.13 8.087 25.806 8.129L25.734 7.553ZM27.264 5.771L27.687 5.6C27.813 5.786 27.924 5.993 28.02 6.221C28.116 6.443 28.179 6.638 28.209 6.806L27.75 6.995C27.72 6.827 27.66 6.629 27.57 6.401C27.48 6.173 27.378 5.963 27.264 5.771ZM27.507 3.44L28.227 3.584C28.143 3.83 28.05 4.076 27.948 4.322C27.852 4.568 27.765 4.778 27.687 4.952L27.129 4.808C27.201 4.616 27.273 4.391 27.345 4.133C27.417 3.869 27.471 3.638 27.507 3.44Z" fill="#859879"/>
</svg>
