<svg width="154" height="25" viewBox="0 0 154 25" fill="none" xmlns="http://www.w3.org/2000/svg">
<rect x="0.5" y="0.576904" width="152.923" height="23.5385" rx="9.5" fill="#DCEBFF" stroke="#DCEBFF"/>
<path d="M31.9987 16.0219L32.2957 13.5909H30.5137V12.8869H32.3837L32.6587 10.6319H30.8107V9.9279H32.7247L33.0107 7.7499H33.6597L33.3847 9.9279H35.4637L35.7497 7.7499H36.3877L36.1127 9.9279H37.9057V10.6319H36.0467L35.7717 12.8869H37.6197V13.5909H35.6837L35.3977 16.0219H34.7377L35.0237 13.5909H32.9557L32.6587 16.0219H31.9987ZM33.0327 12.8869H35.1117L35.3867 10.6319H33.3077L33.0327 12.8869ZM43.9887 7.2879C43.974 7.3539 43.963 7.4309 43.9557 7.5189C43.9484 7.59957 43.941 7.68757 43.9337 7.7829C43.9264 7.87824 43.919 7.96624 43.9117 8.0469C43.9044 8.21557 43.8934 8.43557 43.8787 8.7069C43.8714 8.97824 43.864 9.2789 43.8567 9.6089C43.8494 9.93157 43.842 10.2616 43.8347 10.5989C43.8274 10.9289 43.8237 11.2369 43.8237 11.5229C43.8237 11.8089 43.8237 12.1242 43.8237 12.4689C43.831 12.8062 43.8384 13.1436 43.8457 13.4809C43.8604 13.8109 43.8677 14.1189 43.8677 14.4049C43.875 14.6836 43.8787 14.9072 43.8787 15.0759C43.8787 15.4132 43.8384 15.6809 43.7577 15.8789C43.677 16.0769 43.5634 16.2162 43.4167 16.2969C43.2774 16.3849 43.1087 16.4289 42.9107 16.4289C42.698 16.4289 42.4597 16.3776 42.1957 16.2749C41.9317 16.1796 41.6787 16.0476 41.4367 15.8789C41.202 15.7102 41.0077 15.5159 40.8537 15.2959C40.6997 15.0759 40.6227 14.8449 40.6227 14.6029C40.6227 14.2729 40.7474 13.9502 40.9967 13.6349C41.2534 13.3196 41.5834 13.0262 41.9867 12.7549C42.3974 12.4836 42.83 12.2636 43.2847 12.0949C43.7834 11.8969 44.293 11.7502 44.8137 11.6549C45.3344 11.5522 45.811 11.5009 46.2437 11.5009C46.779 11.5009 47.252 11.5926 47.6627 11.7759C48.0807 11.9592 48.407 12.2159 48.6417 12.5459C48.8837 12.8686 49.0047 13.2499 49.0047 13.6899C49.0047 14.1299 48.913 14.5186 48.7297 14.8559C48.5537 15.1932 48.2897 15.4756 47.9377 15.7029C47.593 15.9302 47.1677 16.1062 46.6617 16.2309C46.4197 16.2822 46.1777 16.3152 45.9357 16.3299C45.701 16.3519 45.4884 16.3702 45.2977 16.3849L44.9897 15.4939C45.195 15.5012 45.4077 15.5012 45.6277 15.4939C45.855 15.4866 46.0714 15.4609 46.2767 15.4169C46.5994 15.3582 46.9 15.2592 47.1787 15.1199C47.4647 14.9732 47.692 14.7826 47.8607 14.5479C48.0367 14.3132 48.1247 14.0309 48.1247 13.7009C48.1247 13.3856 48.0404 13.1216 47.8717 12.9089C47.703 12.6962 47.4757 12.5349 47.1897 12.4249C46.9037 12.3149 46.5847 12.2599 46.2327 12.2599C45.7487 12.2599 45.2757 12.3112 44.8137 12.4139C44.3517 12.5166 43.8824 12.6632 43.4057 12.8539C43.0537 12.9859 42.731 13.1509 42.4377 13.3489C42.1444 13.5396 41.9097 13.7412 41.7337 13.9539C41.565 14.1666 41.4807 14.3682 41.4807 14.5589C41.4807 14.6836 41.521 14.8046 41.6017 14.9219C41.6897 15.0319 41.796 15.1309 41.9207 15.2189C42.0454 15.3069 42.1774 15.3766 42.3167 15.4279C42.456 15.4719 42.577 15.4939 42.6797 15.4939C42.8044 15.4939 42.8997 15.4499 42.9657 15.3619C43.039 15.2739 43.0757 15.1382 43.0757 14.9549C43.0757 14.7422 43.072 14.4489 43.0647 14.0749C43.0574 13.6936 43.05 13.2829 43.0427 12.8429C43.0354 12.3956 43.0317 11.9702 43.0317 11.5669C43.0317 11.2516 43.0317 10.9142 43.0317 10.5549C43.039 10.1956 43.0427 9.84724 43.0427 9.5099C43.05 9.17257 43.0537 8.87557 43.0537 8.6189C43.061 8.36224 43.0647 8.1789 43.0647 8.0689C43.0647 7.99557 43.061 7.91124 43.0537 7.8159C43.0537 7.71324 43.05 7.61424 43.0427 7.5189C43.0354 7.42357 43.0244 7.34657 43.0097 7.2879H43.9887ZM47.3987 8.5089C47.6627 8.64824 47.956 8.8169 48.2787 9.0149C48.6014 9.20557 48.9094 9.3999 49.2027 9.5979C49.5034 9.7959 49.7417 9.96824 49.9177 10.1149L49.4667 10.8189C49.3347 10.6869 49.166 10.5476 48.9607 10.4009C48.7554 10.2469 48.5354 10.0966 48.3007 9.9499C48.066 9.7959 47.835 9.6529 47.6077 9.5209C47.3804 9.38157 47.1787 9.26424 47.0027 9.1689L47.3987 8.5089ZM40.7987 9.2679C41.0994 9.30457 41.356 9.33024 41.5687 9.3449C41.7887 9.35224 42.0014 9.3559 42.2067 9.3559C42.478 9.3559 42.7824 9.34124 43.1197 9.3119C43.457 9.28257 43.8054 9.2459 44.1647 9.2019C44.524 9.15057 44.8724 9.0919 45.2097 9.0259C45.5544 8.95257 45.8624 8.87557 46.1337 8.7949L46.1557 9.6529C45.8697 9.7189 45.5507 9.7849 45.1987 9.8509C44.8467 9.90957 44.4874 9.9609 44.1207 10.0049C43.7614 10.0489 43.4167 10.0856 43.0867 10.1149C42.7567 10.1442 42.4707 10.1589 42.2287 10.1589C41.9134 10.1589 41.6457 10.1552 41.4257 10.1479C41.213 10.1406 41.0114 10.1259 40.8207 10.1039L40.7987 9.2679ZM57.1447 7.3649C57.1447 7.40157 57.1374 7.46757 57.1227 7.5629C57.1154 7.65824 57.108 7.75357 57.1007 7.8489C57.1007 7.9369 57.097 8.00657 57.0897 8.0579C57.0824 8.19724 57.0787 8.3879 57.0787 8.6299C57.0787 8.8719 57.0787 9.1359 57.0787 9.4219C57.0787 9.7079 57.0787 9.99757 57.0787 10.2909C57.086 10.5842 57.0897 10.8592 57.0897 11.1159C57.097 11.3726 57.1007 11.5889 57.1007 11.7649L56.2537 11.3469C56.2537 11.2442 56.2537 11.0902 56.2537 10.8849C56.2537 10.6722 56.2537 10.4302 56.2537 10.1589C56.2537 9.88024 56.25 9.60524 56.2427 9.3339C56.2427 9.06257 56.239 8.81324 56.2317 8.5859C56.2244 8.35857 56.217 8.18257 56.2097 8.0579C56.2024 7.91124 56.1914 7.7719 56.1767 7.6399C56.162 7.50057 56.151 7.4089 56.1437 7.3649H57.1447ZM51.3037 8.8939C51.6044 8.8939 51.9454 8.89024 52.3267 8.8829C52.708 8.86824 53.1114 8.85357 53.5367 8.8389C53.9694 8.82424 54.4057 8.81324 54.8457 8.8059C55.2857 8.79857 55.7074 8.79124 56.1107 8.7839C56.5214 8.77657 56.899 8.7729 57.2437 8.7729C57.5737 8.7729 57.9037 8.7729 58.2337 8.7729C58.5637 8.7729 58.8717 8.7729 59.1577 8.7729C59.451 8.7729 59.7077 8.77657 59.9277 8.7839C60.155 8.7839 60.3347 8.7839 60.4667 8.7839L60.4557 9.5979C60.1477 9.58324 59.7334 9.57224 59.2127 9.5649C58.6994 9.55024 58.0394 9.5429 57.2327 9.5429C56.756 9.5429 56.2574 9.55024 55.7367 9.5649C55.2234 9.57224 54.7064 9.58324 54.1857 9.5979C53.665 9.61257 53.159 9.63457 52.6677 9.6639C52.1837 9.6859 51.7364 9.71157 51.3257 9.7409L51.3037 8.8939ZM57.0787 12.0949C57.0787 12.5789 57.0054 12.9859 56.8587 13.3159C56.7194 13.6459 56.5214 13.8916 56.2647 14.0529C56.0154 14.2142 55.722 14.2949 55.3847 14.2949C55.1574 14.2949 54.9337 14.2582 54.7137 14.1849C54.501 14.1042 54.3067 13.9869 54.1307 13.8329C53.962 13.6716 53.8264 13.4772 53.7237 13.2499C53.6284 13.0152 53.5807 12.7512 53.5807 12.4579C53.5807 12.0912 53.6687 11.7649 53.8447 11.4789C54.0207 11.1929 54.2554 10.9656 54.5487 10.7969C54.8494 10.6282 55.172 10.5439 55.5167 10.5439C55.9494 10.5439 56.305 10.6429 56.5837 10.8409C56.8697 11.0316 57.086 11.2956 57.2327 11.6329C57.3794 11.9629 57.4527 12.3406 57.4527 12.7659C57.4527 13.1326 57.3977 13.5066 57.2877 13.8879C57.185 14.2692 57.009 14.6359 56.7597 14.9879C56.5177 15.3399 56.184 15.6626 55.7587 15.9559C55.3407 16.2419 54.809 16.4802 54.1637 16.6709L53.4267 15.9449C53.9254 15.8276 54.3727 15.6772 54.7687 15.4939C55.1647 15.3106 55.4984 15.0869 55.7697 14.8229C56.041 14.5589 56.2464 14.2509 56.3857 13.8989C56.5324 13.5469 56.6057 13.1436 56.6057 12.6889C56.6057 12.1902 56.4994 11.8309 56.2867 11.6109C56.074 11.3909 55.8174 11.2809 55.5167 11.2809C55.326 11.2809 55.1464 11.3286 54.9777 11.4239C54.809 11.5119 54.6697 11.6439 54.5597 11.8199C54.457 11.9959 54.4057 12.2049 54.4057 12.4469C54.4057 12.7916 54.5157 13.0592 54.7357 13.2499C54.963 13.4406 55.227 13.5359 55.5277 13.5359C55.755 13.5359 55.9494 13.4736 56.1107 13.3489C56.272 13.2169 56.3857 13.0226 56.4517 12.7659C56.525 12.5019 56.5324 12.1756 56.4737 11.7869L57.0787 12.0949ZM67.9247 7.3649C67.9247 7.40157 67.9174 7.46757 67.9027 7.5629C67.8954 7.65824 67.888 7.75357 67.8807 7.8489C67.8807 7.9369 67.877 8.00657 67.8697 8.0579C67.8624 8.19724 67.8587 8.3879 67.8587 8.6299C67.8587 8.8719 67.8587 9.1359 67.8587 9.4219C67.8587 9.7079 67.8587 9.99757 67.8587 10.2909C67.866 10.5842 67.8697 10.8592 67.8697 11.1159C67.877 11.3726 67.8807 11.5889 67.8807 11.7649L67.0337 11.3469C67.0337 11.2442 67.0337 11.0902 67.0337 10.8849C67.0337 10.6722 67.0337 10.4302 67.0337 10.1589C67.0337 9.88024 67.03 9.60524 67.0227 9.3339C67.0227 9.06257 67.019 8.81324 67.0117 8.5859C67.0044 8.35857 66.997 8.18257 66.9897 8.0579C66.9824 7.91124 66.9714 7.7719 66.9567 7.6399C66.942 7.50057 66.931 7.4089 66.9237 7.3649H67.9247ZM62.0837 8.8939C62.3844 8.8939 62.7254 8.89024 63.1067 8.8829C63.488 8.86824 63.8914 8.85357 64.3167 8.8389C64.7494 8.82424 65.1857 8.81324 65.6257 8.8059C66.0657 8.79857 66.4874 8.79124 66.8907 8.7839C67.3014 8.77657 67.679 8.7729 68.0237 8.7729C68.3537 8.7729 68.6837 8.7729 69.0137 8.7729C69.3437 8.7729 69.6517 8.7729 69.9377 8.7729C70.231 8.7729 70.4877 8.77657 70.7077 8.7839C70.935 8.7839 71.1147 8.7839 71.2467 8.7839L71.2357 9.5979C70.9277 9.58324 70.5134 9.57224 69.9927 9.5649C69.4794 9.55024 68.8194 9.5429 68.0127 9.5429C67.536 9.5429 67.0374 9.55024 66.5167 9.5649C66.0034 9.57224 65.4864 9.58324 64.9657 9.5979C64.445 9.61257 63.939 9.63457 63.4477 9.6639C62.9637 9.6859 62.5164 9.71157 62.1057 9.7409L62.0837 8.8939ZM67.8587 12.0949C67.8587 12.5789 67.7854 12.9859 67.6387 13.3159C67.4994 13.6459 67.3014 13.8916 67.0447 14.0529C66.7954 14.2142 66.502 14.2949 66.1647 14.2949C65.9374 14.2949 65.7137 14.2582 65.4937 14.1849C65.281 14.1042 65.0867 13.9869 64.9107 13.8329C64.742 13.6716 64.6064 13.4772 64.5037 13.2499C64.4084 13.0152 64.3607 12.7512 64.3607 12.4579C64.3607 12.0912 64.4487 11.7649 64.6247 11.4789C64.8007 11.1929 65.0354 10.9656 65.3287 10.7969C65.6294 10.6282 65.952 10.5439 66.2967 10.5439C66.7294 10.5439 67.085 10.6429 67.3637 10.8409C67.6497 11.0316 67.866 11.2956 68.0127 11.6329C68.1594 11.9629 68.2327 12.3406 68.2327 12.7659C68.2327 13.1326 68.1777 13.5066 68.0677 13.8879C67.965 14.2692 67.789 14.6359 67.5397 14.9879C67.2977 15.3399 66.964 15.6626 66.5387 15.9559C66.1207 16.2419 65.589 16.4802 64.9437 16.6709L64.2067 15.9449C64.7054 15.8276 65.1527 15.6772 65.5487 15.4939C65.9447 15.3106 66.2784 15.0869 66.5497 14.8229C66.821 14.5589 67.0264 14.2509 67.1657 13.8989C67.3124 13.5469 67.3857 13.1436 67.3857 12.6889C67.3857 12.1902 67.2794 11.8309 67.0667 11.6109C66.854 11.3909 66.5974 11.2809 66.2967 11.2809C66.106 11.2809 65.9264 11.3286 65.7577 11.4239C65.589 11.5119 65.4497 11.6439 65.3397 11.8199C65.237 11.9959 65.1857 12.2049 65.1857 12.4469C65.1857 12.7916 65.2957 13.0592 65.5157 13.2499C65.743 13.4406 66.007 13.5359 66.3077 13.5359C66.535 13.5359 66.7294 13.4736 66.8907 13.3489C67.052 13.2169 67.1657 13.0226 67.2317 12.7659C67.305 12.5019 67.3124 12.1756 67.2537 11.7869L67.8587 12.0949ZM79.1667 7.5629C79.1447 7.6509 79.1227 7.7499 79.1007 7.8599C79.0787 7.96257 79.0567 8.06524 79.0347 8.1679C79.02 8.27057 79.0017 8.3549 78.9797 8.4209C78.877 8.8829 78.7524 9.35957 78.6057 9.8509C78.4664 10.3422 78.3087 10.8299 78.1327 11.3139C77.9567 11.7979 77.766 12.2489 77.5607 12.6669C77.3627 13.0849 77.1537 13.4479 76.9337 13.7559C76.655 14.1372 76.3727 14.4819 76.0867 14.7899C75.808 15.0906 75.522 15.3252 75.2287 15.4939C74.9354 15.6626 74.62 15.7469 74.2827 15.7469C74.0114 15.7469 73.7584 15.6699 73.5237 15.5159C73.289 15.3619 73.102 15.1382 72.9627 14.8449C72.8234 14.5516 72.7537 14.1922 72.7537 13.7669C72.7537 13.3049 72.838 12.8429 73.0067 12.3809C73.1827 11.9189 73.421 11.4936 73.7217 11.1049C74.0297 10.7162 74.3744 10.3936 74.7557 10.1369C75.2984 9.7629 75.8447 9.4989 76.3947 9.3449C76.9447 9.1909 77.4984 9.1139 78.0557 9.1139C78.7744 9.1139 79.4124 9.26424 79.9697 9.5649C80.5344 9.86557 80.9744 10.2872 81.2897 10.8299C81.6124 11.3652 81.7737 11.9922 81.7737 12.7109C81.7737 13.4369 81.6087 14.0712 81.2787 14.6139C80.956 15.1492 80.4977 15.5819 79.9037 15.9119C79.317 16.2346 78.6314 16.4509 77.8467 16.5609L77.3297 15.7799C77.909 15.7286 78.4187 15.6186 78.8587 15.4499C79.306 15.2812 79.68 15.0612 79.9807 14.7899C80.2814 14.5186 80.5087 14.2032 80.6627 13.8439C80.824 13.4846 80.9047 13.0959 80.9047 12.6779C80.9047 12.1352 80.7837 11.6549 80.5417 11.2369C80.2997 10.8116 79.955 10.4779 79.5077 10.2359C79.0677 9.9939 78.5544 9.8729 77.9677 9.8729C77.4324 9.8729 76.9227 9.9609 76.4387 10.1369C75.962 10.3056 75.5074 10.5476 75.0747 10.8629C74.7667 11.0829 74.499 11.3542 74.2717 11.6769C74.0444 11.9996 73.8647 12.3369 73.7327 12.6889C73.608 13.0336 73.5457 13.3709 73.5457 13.7009C73.5457 14.0676 73.619 14.3572 73.7657 14.5699C73.9197 14.7752 74.1214 14.8779 74.3707 14.8779C74.5467 14.8779 74.7264 14.8266 74.9097 14.7239C75.093 14.6139 75.2727 14.4709 75.4487 14.2949C75.6247 14.1189 75.7934 13.9246 75.9547 13.7119C76.1234 13.4919 76.2737 13.2719 76.4057 13.0519C76.589 12.7659 76.7687 12.4359 76.9447 12.0619C77.1207 11.6879 77.2857 11.2882 77.4397 10.8629C77.601 10.4302 77.7404 9.99757 77.8577 9.5649C77.9824 9.1249 78.0814 8.7069 78.1547 8.3109C78.1767 8.2009 78.1914 8.06524 78.1987 7.9039C78.2134 7.74257 78.2207 7.59957 78.2207 7.4749L79.1667 7.5629ZM74.6677 8.0579C74.697 8.2119 74.73 8.3769 74.7667 8.5529C74.8107 8.72157 74.851 8.8829 74.8877 9.0369C74.961 9.3009 75.0527 9.5979 75.1627 9.9279C75.2727 10.2579 75.3864 10.5879 75.5037 10.9179C75.6284 11.2479 75.7567 11.5596 75.8887 11.8529C76.0207 12.1389 76.1454 12.3772 76.2627 12.5679C76.4534 12.8906 76.6697 13.2206 76.9117 13.5579C77.1537 13.8952 77.4067 14.1886 77.6707 14.4379L76.9777 15.0099C76.7577 14.7606 76.545 14.4966 76.3397 14.2179C76.1344 13.9392 75.929 13.6202 75.7237 13.2609C75.5844 13.0482 75.445 12.7916 75.3057 12.4909C75.1664 12.1829 75.0234 11.8529 74.8767 11.5009C74.7374 11.1489 74.6017 10.7896 74.4697 10.4229C74.3377 10.0489 74.2204 9.68957 74.1177 9.3449C74.0664 9.1689 74.0077 8.99657 73.9417 8.8279C73.883 8.6519 73.8207 8.49424 73.7547 8.3549L74.6677 8.0579ZM88.4727 8.3769H93.0817V9.1359H88.4727V8.3769ZM90.0567 9.5539H90.7717V15.0979H90.0567V9.5539ZM88.7477 6.8259L89.5507 6.9909C89.3674 7.7609 89.1217 8.49057 88.8137 9.1799C88.5057 9.8619 88.15 10.4412 87.7467 10.9179C87.71 10.8666 87.6514 10.8079 87.5707 10.7419C87.49 10.6686 87.4094 10.5952 87.3287 10.5219C87.248 10.4486 87.1747 10.3936 87.1087 10.3569C87.49 9.93157 87.82 9.40724 88.0987 8.7839C88.3774 8.16057 88.5937 7.5079 88.7477 6.8259ZM87.2957 12.6009L92.1247 10.3239L92.4217 11.0059L87.5927 13.2719L87.2957 12.6009ZM88.2637 10.4119H89.0117V15.6809C89.0117 15.8936 89.052 16.0329 89.1327 16.0989C89.2207 16.1649 89.415 16.1979 89.7157 16.1979C89.789 16.1979 89.921 16.1979 90.1117 16.1979C90.3097 16.1979 90.526 16.1979 90.7607 16.1979C90.9954 16.1979 91.2154 16.1979 91.4207 16.1979C91.626 16.1979 91.7764 16.1979 91.8717 16.1979C92.033 16.1979 92.154 16.1649 92.2347 16.0989C92.3154 16.0329 92.374 15.9082 92.4107 15.7249C92.4474 15.5416 92.473 15.2739 92.4877 14.9219C92.5757 14.9879 92.6857 15.0502 92.8177 15.1089C92.957 15.1602 93.0817 15.1969 93.1917 15.2189C93.1624 15.6516 93.1037 15.9889 93.0157 16.2309C92.935 16.4802 92.8104 16.6562 92.6417 16.7589C92.473 16.8616 92.231 16.9129 91.9157 16.9129C91.8644 16.9129 91.7617 16.9129 91.6077 16.9129C91.4537 16.9129 91.2777 16.9129 91.0797 16.9129C90.8817 16.9129 90.6837 16.9129 90.4857 16.9129C90.2877 16.9129 90.1117 16.9129 89.9577 16.9129C89.811 16.9129 89.7157 16.9129 89.6717 16.9129C89.305 16.9129 89.019 16.8762 88.8137 16.8029C88.6084 16.7369 88.4654 16.6122 88.3847 16.4289C88.304 16.2529 88.2637 15.9999 88.2637 15.6699V10.4119ZM91.9377 10.5109H91.8387L92.0257 10.3459L92.1687 10.2359L92.6967 10.4449L92.6527 10.5659C92.6527 10.9619 92.649 11.3396 92.6417 11.6989C92.6417 12.0582 92.638 12.3882 92.6307 12.6889C92.6307 12.9822 92.627 13.2316 92.6197 13.4369C92.6124 13.6349 92.6014 13.7706 92.5867 13.8439C92.572 14.0199 92.5207 14.1556 92.4327 14.2509C92.3447 14.3462 92.231 14.4122 92.0917 14.4489C91.9744 14.4782 91.835 14.5002 91.6737 14.5149C91.5197 14.5222 91.3804 14.5222 91.2557 14.5149C91.2484 14.4122 91.23 14.3022 91.2007 14.1849C91.1714 14.0602 91.1347 13.9539 91.0907 13.8659C91.1934 13.8732 91.2997 13.8769 91.4097 13.8769C91.527 13.8769 91.6114 13.8769 91.6627 13.8769C91.7214 13.8769 91.769 13.8659 91.8057 13.8439C91.8497 13.8219 91.879 13.7669 91.8937 13.6789C91.901 13.6276 91.9084 13.5139 91.9157 13.3379C91.923 13.1546 91.9267 12.9236 91.9267 12.6449C91.9267 12.3589 91.9267 12.0362 91.9267 11.6769C91.934 11.3102 91.9377 10.9216 91.9377 10.5109ZM83.0717 8.6299H87.7247V9.4109H83.0717V8.6299ZM84.6557 10.9179H86.5917V11.6879H84.6557V10.9179ZM85.0077 6.8589H85.7997V8.9049H85.0077V6.8589ZM84.2707 9.0699H85.0627C85.048 9.8399 85.0224 10.5989 84.9857 11.3469C84.949 12.0949 84.883 12.8136 84.7877 13.5029C84.6924 14.1922 84.5457 14.8302 84.3477 15.4169C84.157 16.0036 83.9004 16.5169 83.5777 16.9569C83.5044 16.8616 83.4054 16.7589 83.2807 16.6489C83.1634 16.5462 83.0534 16.4656 82.9507 16.4069C83.244 16.0109 83.475 15.5416 83.6437 14.9989C83.8197 14.4489 83.9517 13.8549 84.0397 13.2169C84.1277 12.5716 84.1864 11.8969 84.2157 11.1929C84.245 10.4889 84.2634 9.78124 84.2707 9.0699ZM86.3167 10.9179H87.0757C87.0757 10.9179 87.0757 10.9436 87.0757 10.9949C87.0757 11.0389 87.0757 11.0902 87.0757 11.1489C87.0757 11.2076 87.0757 11.2552 87.0757 11.2919C87.0537 12.2159 87.0317 12.9932 87.0097 13.6239C86.995 14.2546 86.9694 14.7716 86.9327 15.1749C86.9034 15.5782 86.8667 15.8899 86.8227 16.1099C86.7787 16.3299 86.72 16.4876 86.6467 16.5829C86.5587 16.7002 86.467 16.7809 86.3717 16.8249C86.2764 16.8762 86.1517 16.9129 85.9977 16.9349C85.873 16.9496 85.7044 16.9569 85.4917 16.9569C85.279 16.9569 85.059 16.9496 84.8317 16.9349C84.8244 16.8249 84.8024 16.6966 84.7657 16.5499C84.729 16.4106 84.6814 16.2932 84.6227 16.1979C84.8427 16.2126 85.048 16.2199 85.2387 16.2199C85.4294 16.2272 85.565 16.2309 85.6457 16.2309C85.719 16.2382 85.7814 16.2309 85.8327 16.2089C85.8914 16.1942 85.9427 16.1539 85.9867 16.0879C86.0454 15.9999 86.0967 15.7909 86.1407 15.4609C86.1847 15.1236 86.2177 14.6029 86.2397 13.8989C86.269 13.1949 86.2947 12.2562 86.3167 11.0829V10.9179ZM98.8347 7.1889H99.6157V8.5309C99.6157 8.8389 99.579 9.1689 99.5057 9.5209C99.4324 9.8729 99.2967 10.2139 99.0987 10.5439C98.9007 10.8739 98.6037 11.1709 98.2077 11.4349C98.171 11.3762 98.1124 11.3139 98.0317 11.2479C97.9584 11.1746 97.8814 11.1049 97.8007 11.0389C97.7274 10.9656 97.6614 10.9142 97.6027 10.8849C97.9547 10.6502 98.2187 10.4009 98.3947 10.1369C98.5707 9.86557 98.688 9.59057 98.7467 9.3119C98.8054 9.03324 98.8347 8.76557 98.8347 8.5089V7.1889ZM101.508 7.1889H102.3V9.8839C102.3 10.0086 102.311 10.0892 102.333 10.1259C102.362 10.1552 102.421 10.1699 102.509 10.1699C102.538 10.1699 102.589 10.1699 102.663 10.1699C102.736 10.1699 102.813 10.1699 102.894 10.1699C102.974 10.1699 103.033 10.1699 103.07 10.1699C103.128 10.1699 103.172 10.1442 103.202 10.0929C103.238 10.0416 103.264 9.93157 103.279 9.7629C103.301 9.5869 103.312 9.3229 103.312 8.9709C103.392 9.0369 103.502 9.09557 103.642 9.1469C103.781 9.19824 103.906 9.23857 104.016 9.2679C103.994 9.70057 103.95 10.0342 103.884 10.2689C103.825 10.5036 103.737 10.6686 103.62 10.7639C103.51 10.8519 103.356 10.8959 103.158 10.8959C103.106 10.8959 103.029 10.8959 102.927 10.8959C102.824 10.8959 102.718 10.8959 102.608 10.8959C102.505 10.8959 102.432 10.8959 102.388 10.8959C102.16 10.8959 101.981 10.8666 101.849 10.8079C101.724 10.7492 101.636 10.6502 101.585 10.5109C101.533 10.3642 101.508 10.1589 101.508 9.8949V7.1889ZM99.4287 12.3699C99.8027 13.3232 100.386 14.1372 101.178 14.8119C101.977 15.4866 102.93 15.9632 104.038 16.2419C103.979 16.2932 103.913 16.3629 103.84 16.4509C103.774 16.5389 103.708 16.6269 103.642 16.7149C103.583 16.8029 103.532 16.8799 103.488 16.9459C102.351 16.6159 101.376 16.0806 100.562 15.3399C99.755 14.5919 99.1317 13.6826 98.6917 12.6119L99.4287 12.3699ZM102.509 11.5999H102.663L102.806 11.5669L103.345 11.7759C103.154 12.5019 102.883 13.1472 102.531 13.7119C102.186 14.2692 101.783 14.7606 101.321 15.1859C100.859 15.6112 100.353 15.9669 99.8027 16.2529C99.26 16.5462 98.6844 16.7809 98.0757 16.9569C98.0537 16.8836 98.017 16.7992 97.9657 16.7039C97.9144 16.6159 97.8594 16.5279 97.8007 16.4399C97.742 16.3519 97.6834 16.2822 97.6247 16.2309C98.182 16.0842 98.7174 15.8826 99.2307 15.6259C99.744 15.3692 100.217 15.0576 100.65 14.6909C101.09 14.3169 101.467 13.8842 101.783 13.3929C102.098 12.9016 102.34 12.3516 102.509 11.7429V11.5999ZM98.1197 11.5999H102.828V12.3589H98.1197V11.5999ZM99.1647 7.1889H101.915V7.9259H99.1647V7.1889ZM94.3137 10.1699H97.5917V10.8189H94.3137V10.1699ZM94.3577 7.2219H97.5697V7.8819H94.3577V7.2219ZM94.3137 11.6329H97.5917V12.2929H94.3137V11.6329ZM93.7857 8.6629H97.9767V9.3559H93.7857V8.6629ZM94.6987 13.1179H97.5807V16.3299H94.6987V15.6479H96.8547V13.8109H94.6987V13.1179ZM94.2917 13.1179H95.0177V16.8359H94.2917V13.1179ZM108.845 13.1399H113.234V13.7669H108.845V13.1399ZM107.822 7.6949H114.356V8.3329H107.822V7.6949ZM108.086 9.0369H114.081V9.6419H108.086V9.0369ZM107.492 10.4009H114.686V11.0389H107.492V10.4009ZM108.856 14.6029H113.267V15.2299H108.856V14.6029ZM108.284 11.6769H113.223V12.3149H109.054V16.9459H108.284V11.6769ZM113.036 11.6769H113.817V16.0329C113.817 16.2382 113.787 16.3996 113.729 16.5169C113.677 16.6342 113.575 16.7222 113.421 16.7809C113.267 16.8469 113.061 16.8836 112.805 16.8909C112.548 16.9056 112.225 16.9129 111.837 16.9129C111.822 16.8102 111.789 16.6892 111.738 16.5499C111.694 16.4179 111.646 16.3006 111.595 16.1979C111.873 16.2052 112.13 16.2089 112.365 16.2089C112.607 16.2162 112.764 16.2162 112.838 16.2089C112.97 16.2016 113.036 16.1392 113.036 16.0219V11.6769ZM110.638 6.8369H111.452V10.5989H110.638V6.8369ZM105.82 6.8369H106.568V16.9459H105.82V6.8369ZM104.951 8.9599L105.567 9.0369C105.552 9.3229 105.523 9.64557 105.479 10.0049C105.442 10.3569 105.391 10.7089 105.325 11.0609C105.259 11.4129 105.182 11.7282 105.094 12.0069L104.445 11.7869C104.533 11.5376 104.61 11.2479 104.676 10.9179C104.742 10.5879 104.797 10.2506 104.841 9.9059C104.892 9.56124 104.929 9.2459 104.951 8.9599ZM106.667 8.6629L107.217 8.4429C107.341 8.69224 107.462 8.96724 107.58 9.2679C107.697 9.56124 107.781 9.8069 107.833 10.0049L107.25 10.2909C107.198 10.0782 107.118 9.8179 107.008 9.5099C106.898 9.2019 106.784 8.91957 106.667 8.6629ZM121.044 11.0829H124.652V11.7649H121.044V11.0829ZM120.637 7.3429H124.564V8.0909H121.396V16.9679H120.637V7.3429ZM124.168 7.3429H124.938V9.4659C124.938 9.67124 124.908 9.83257 124.85 9.9499C124.798 10.0672 124.688 10.1589 124.52 10.2249C124.351 10.2836 124.124 10.3202 123.838 10.3349C123.559 10.3422 123.203 10.3459 122.771 10.3459C122.756 10.2359 122.723 10.1149 122.672 9.9829C122.628 9.84357 122.576 9.72257 122.518 9.6199C122.752 9.62724 122.965 9.63457 123.156 9.6419C123.354 9.6419 123.522 9.6419 123.662 9.6419C123.801 9.6419 123.896 9.63824 123.948 9.6309C124.043 9.62357 124.102 9.6089 124.124 9.5869C124.153 9.5649 124.168 9.52457 124.168 9.4659V7.3429ZM122.122 11.5339C122.32 12.2232 122.587 12.8796 122.925 13.5029C123.262 14.1189 123.654 14.6689 124.102 15.1529C124.556 15.6369 125.062 16.0146 125.62 16.2859C125.524 16.3592 125.422 16.4619 125.312 16.5939C125.202 16.7332 125.114 16.8542 125.048 16.9569C124.483 16.6342 123.97 16.2089 123.508 15.6809C123.053 15.1529 122.653 14.5479 122.309 13.8659C121.971 13.1839 121.693 12.4652 121.473 11.7099L122.122 11.5339ZM124.399 11.0829H124.542L124.685 11.0499L125.202 11.2369C125.055 12.0289 124.835 12.7879 124.542 13.5139C124.256 14.2399 123.893 14.8999 123.453 15.4939C123.02 16.0806 122.51 16.5756 121.924 16.9789C121.858 16.8836 121.77 16.7809 121.66 16.6709C121.557 16.5682 121.458 16.4839 121.363 16.4179C121.92 16.0512 122.404 15.5966 122.815 15.0539C123.225 14.5039 123.563 13.9026 123.827 13.2499C124.098 12.5972 124.289 11.9372 124.399 11.2699V11.0829ZM115.775 7.9699H119.856V8.6739H115.775V7.9699ZM115.654 13.9759H119.999V14.6909H115.654V13.9759ZM115.39 9.7849H120.285V10.4999H115.39V9.7849ZM115.544 12.0619H120.142V12.7769H115.544V12.0619ZM117.469 6.8479H118.239V10.0379H117.469V6.8479ZM117.469 12.3699H118.239V16.9349H117.469V12.3699ZM118.954 10.4559L119.669 10.6319C119.559 10.8959 119.449 11.1636 119.339 11.4349C119.236 11.6989 119.13 11.9262 119.02 12.1169L118.415 11.9409C118.473 11.8016 118.536 11.6439 118.602 11.4679C118.675 11.2919 118.741 11.1159 118.8 10.9399C118.866 10.7566 118.917 10.5952 118.954 10.4559ZM116.149 10.6319L116.776 10.4669C116.908 10.7016 117.021 10.9582 117.117 11.2369C117.212 11.5156 117.271 11.7502 117.293 11.9409L116.633 12.1389C116.611 11.9409 116.552 11.7026 116.457 11.4239C116.369 11.1379 116.266 10.8739 116.149 10.6319Z" fill="#1B6AAC"/>
</svg>
