<svg width="24" height="26" viewBox="0 0 24 26" fill="none" xmlns="http://www.w3.org/2000/svg">
<path d="M10.0898 12.9619L9.03516 11.8193L16.5 3.71973L23.9648 11.8193L22.9102 12.9619L22.5 12.5303V19.5H18V14.625H15V19.5H10.5V12.5303L10.0898 12.9619ZM12 17.875H13.5V13H19.5V17.875H21V10.9053L16.5 6.03027L12 10.9053V17.875ZM24 21.125V22.75H0V21.125H24ZM3 14.5488C2.5625 14.4557 2.16406 14.2865 1.80469 14.041C1.44531 13.7956 1.12891 13.4909 0.855469 13.127C0.582031 12.763 0.371094 12.3695 0.222656 11.9463C0.0742188 11.5231 0 11.0618 0 10.5625C0 9.94466 0.0546875 9.38607 0.164062 8.88672C0.273438 8.38737 0.417969 7.90495 0.597656 7.43945C0.777344 6.97396 0.984375 6.50423 1.21875 6.03027C1.45312 5.55632 1.70312 5.04004 1.96875 4.48145C2.04688 4.31217 2.14844 4.15137 2.27344 3.99902C2.39844 3.84668 2.54297 3.71549 2.70703 3.60547C2.87109 3.49544 3.03906 3.41081 3.21094 3.35156C3.38281 3.29232 3.5625 3.25846 3.75 3.25C4.125 3.25 4.44141 3.3431 4.69922 3.5293C4.95703 3.71549 5.17969 3.95671 5.36719 4.25293C5.55469 4.54915 5.72266 4.8623 5.87109 5.19238C6.01953 5.52246 6.16016 5.83561 6.29297 6.13184L6.46875 6.5127C6.63281 6.86816 6.77734 7.19401 6.90234 7.49023C7.02734 7.78646 7.13672 8.08268 7.23047 8.37891C7.32422 8.67513 7.39062 9.00098 7.42969 9.35645C7.46875 9.71191 7.49219 10.1139 7.5 10.5625C7.5 11.0449 7.42578 11.502 7.27734 11.9336C7.12891 12.3652 6.92188 12.763 6.65625 13.127C6.39062 13.4909 6.07031 13.7913 5.69531 14.0283C5.32031 14.2653 4.92188 14.4388 4.5 14.5488V19.5H3V14.5488ZM3.75 4.875C3.67969 4.875 3.58984 4.95117 3.48047 5.10352C3.37109 5.25586 3.24609 5.45052 3.10547 5.6875C2.96484 5.92448 2.82812 6.18685 2.69531 6.47461C2.5625 6.76237 2.43359 7.03743 2.30859 7.2998C2.18359 7.56217 2.07812 7.79915 1.99219 8.01074C1.90625 8.22233 1.84375 8.37044 1.80469 8.45508C1.6875 8.77669 1.60938 9.1237 1.57031 9.49609C1.53125 9.86849 1.50781 10.224 1.5 10.5625C1.5 10.901 1.55859 11.2184 1.67578 11.5146C1.79297 11.8109 1.95312 12.069 2.15625 12.2891C2.35938 12.5091 2.59766 12.6826 2.87109 12.8096C3.14453 12.9365 3.4375 13 3.75 13C4.0625 13 4.35547 12.9365 4.62891 12.8096C4.90234 12.6826 5.14062 12.5091 5.34375 12.2891C5.54688 12.069 5.70703 11.8109 5.82422 11.5146C5.94141 11.2184 6 10.901 6 10.5625C6 10.224 5.98047 9.86849 5.94141 9.49609C5.90234 9.1237 5.82031 8.77669 5.69531 8.45508C5.66406 8.37044 5.60547 8.22233 5.51953 8.01074C5.43359 7.79915 5.32812 7.56217 5.20312 7.2998C5.07812 7.03743 4.94531 6.76237 4.80469 6.47461C4.66406 6.18685 4.52734 5.92448 4.39453 5.6875C4.26172 5.45052 4.14062 5.25586 4.03125 5.10352C3.92188 4.95117 3.82812 4.875 3.75 4.875Z" fill="#1B6AAC"/>
</svg>
